%TF.GenerationSoftware,KiCad,Pcbnew,(5.1.6)-1*%
%TF.CreationDate,2020-09-19T17:54:41+02:00*%
%TF.ProjectId,USB_PD_PSU,5553425f-5044-45f5-9053-552e6b696361,rev?*%
%TF.SameCoordinates,Original*%
%TF.FileFunction,Soldermask,Bot*%
%TF.FilePolarity,Negative*%
%FSLAX46Y46*%
G04 Gerber Fmt 4.6, Leading zero omitted, Abs format (unit mm)*
G04 Created by KiCad (PCBNEW (5.1.6)-1) date 2020-09-19 17:54:41*
%MOMM*%
%LPD*%
G01*
G04 APERTURE LIST*
%ADD10R,1.800000X1.800000*%
%ADD11O,1.800000X1.800000*%
%ADD12C,0.750000*%
%ADD13O,2.200000X1.150000*%
%ADD14O,2.100000X1.100000*%
%ADD15C,8.100000*%
%ADD16C,0.900000*%
%ADD17C,6.500000*%
G04 APERTURE END LIST*
D10*
%TO.C,J2*%
X54584600Y-80416400D03*
D11*
X54584600Y-77876400D03*
X52044600Y-80416400D03*
X52044600Y-77876400D03*
X49504600Y-80416400D03*
X49504600Y-77876400D03*
X46964600Y-80416400D03*
X46964600Y-77876400D03*
X44424600Y-80416400D03*
X44424600Y-77876400D03*
X41884600Y-80416400D03*
X41884600Y-77876400D03*
%TD*%
D10*
%TO.C,J3*%
X98552000Y-46990000D03*
D11*
X98552000Y-49530000D03*
X101092000Y-46990000D03*
X101092000Y-49530000D03*
X103632000Y-46990000D03*
X103632000Y-49530000D03*
X106172000Y-46990000D03*
X106172000Y-49530000D03*
X108712000Y-46990000D03*
X108712000Y-49530000D03*
%TD*%
D12*
%TO.C,J1*%
X37462000Y-60102000D03*
X37462000Y-65882000D03*
D13*
X37962000Y-67312000D03*
X37962000Y-58672000D03*
D14*
X33782000Y-67312000D03*
X33782000Y-58672000D03*
%TD*%
D15*
%TO.C,J4*%
X185928000Y-64516000D03*
%TD*%
%TO.C,J5*%
X185928000Y-77978000D03*
%TD*%
D16*
%TO.C,H1*%
X39289056Y-39704944D03*
X37592000Y-39002000D03*
X35894944Y-39704944D03*
X35192000Y-41402000D03*
X35894944Y-43099056D03*
X37592000Y-43802000D03*
X39289056Y-43099056D03*
X39992000Y-41402000D03*
D17*
X37592000Y-41402000D03*
%TD*%
%TO.C,H2*%
X37592000Y-88646000D03*
D16*
X39992000Y-88646000D03*
X39289056Y-90343056D03*
X37592000Y-91046000D03*
X35894944Y-90343056D03*
X35192000Y-88646000D03*
X35894944Y-86948944D03*
X37592000Y-86246000D03*
X39289056Y-86948944D03*
%TD*%
D17*
%TO.C,H3*%
X188976000Y-41402000D03*
D16*
X191376000Y-41402000D03*
X190673056Y-43099056D03*
X188976000Y-43802000D03*
X187278944Y-43099056D03*
X186576000Y-41402000D03*
X187278944Y-39704944D03*
X188976000Y-39002000D03*
X190673056Y-39704944D03*
%TD*%
%TO.C,H4*%
X100503056Y-86948944D03*
X98806000Y-86246000D03*
X97108944Y-86948944D03*
X96406000Y-88646000D03*
X97108944Y-90343056D03*
X98806000Y-91046000D03*
X100503056Y-90343056D03*
X101206000Y-88646000D03*
D17*
X98806000Y-88646000D03*
%TD*%
D10*
%TO.C,J6*%
X132842000Y-90424000D03*
D11*
X132842000Y-87884000D03*
X130302000Y-90424000D03*
X130302000Y-87884000D03*
X127762000Y-90424000D03*
X127762000Y-87884000D03*
%TD*%
M02*
