%TF.GenerationSoftware,KiCad,Pcbnew,(5.1.6)-1*%
%TF.CreationDate,2020-09-19T17:54:41+02:00*%
%TF.ProjectId,USB_PD_PSU,5553425f-5044-45f5-9053-552e6b696361,rev?*%
%TF.SameCoordinates,Original*%
%TF.FileFunction,Copper,L2,Bot*%
%TF.FilePolarity,Positive*%
%FSLAX46Y46*%
G04 Gerber Fmt 4.6, Leading zero omitted, Abs format (unit mm)*
G04 Created by KiCad (PCBNEW (5.1.6)-1) date 2020-09-19 17:54:41*
%MOMM*%
%LPD*%
G01*
G04 APERTURE LIST*
%TA.AperFunction,ComponentPad*%
%ADD10R,1.700000X1.700000*%
%TD*%
%TA.AperFunction,ComponentPad*%
%ADD11O,1.700000X1.700000*%
%TD*%
%TA.AperFunction,ComponentPad*%
%ADD12O,2.100000X1.050000*%
%TD*%
%TA.AperFunction,ComponentPad*%
%ADD13O,2.000000X1.000000*%
%TD*%
%TA.AperFunction,ComponentPad*%
%ADD14C,8.000000*%
%TD*%
%TA.AperFunction,ComponentPad*%
%ADD15C,0.800000*%
%TD*%
%TA.AperFunction,ComponentPad*%
%ADD16C,6.400000*%
%TD*%
%TA.AperFunction,ViaPad*%
%ADD17C,0.800000*%
%TD*%
%TA.AperFunction,Conductor*%
%ADD18C,0.400000*%
%TD*%
%TA.AperFunction,Conductor*%
%ADD19C,0.250000*%
%TD*%
%TA.AperFunction,Conductor*%
%ADD20C,0.500000*%
%TD*%
%TA.AperFunction,Conductor*%
%ADD21C,0.300000*%
%TD*%
%TA.AperFunction,Conductor*%
%ADD22C,0.200000*%
%TD*%
%TA.AperFunction,Conductor*%
%ADD23C,1.000000*%
%TD*%
%TA.AperFunction,Conductor*%
%ADD24C,0.254000*%
%TD*%
G04 APERTURE END LIST*
D10*
%TO.P,J2,1*%
%TO.N,Alert*%
X54584600Y-80416400D03*
D11*
%TO.P,J2,2*%
%TO.N,A_B_SIDE*%
X54584600Y-77876400D03*
%TO.P,J2,3*%
%TO.N,ATTACH*%
X52044600Y-80416400D03*
%TO.P,J2,4*%
%TO.N,VPP*%
X52044600Y-77876400D03*
%TO.P,J2,5*%
%TO.N,Reset*%
X49504600Y-80416400D03*
%TO.P,J2,6*%
%TO.N,GND*%
X49504600Y-77876400D03*
%TO.P,J2,7*%
X46964600Y-80416400D03*
%TO.P,J2,8*%
%TO.N,POWER_OK2*%
X46964600Y-77876400D03*
%TO.P,J2,9*%
%TO.N,SCL*%
X44424600Y-80416400D03*
%TO.P,J2,10*%
%TO.N,SDA*%
X44424600Y-77876400D03*
%TO.P,J2,11*%
%TO.N,POWER_OK3*%
X41884600Y-80416400D03*
%TO.P,J2,12*%
%TO.N,GPIO*%
X41884600Y-77876400D03*
%TD*%
D10*
%TO.P,J3,1*%
%TO.N,Net-(J3-Pad1)*%
X98552000Y-46990000D03*
D11*
%TO.P,J3,2*%
%TO.N,Net-(J3-Pad2)*%
X98552000Y-49530000D03*
%TO.P,J3,3*%
%TO.N,Net-(J3-Pad3)*%
X101092000Y-46990000D03*
%TO.P,J3,4*%
%TO.N,Net-(J3-Pad4)*%
X101092000Y-49530000D03*
%TO.P,J3,5*%
%TO.N,GND*%
X103632000Y-46990000D03*
%TO.P,J3,6*%
X103632000Y-49530000D03*
%TO.P,J3,7*%
%TO.N,5V_lin*%
X106172000Y-46990000D03*
%TO.P,J3,8*%
%TO.N,Net-(J3-Pad8)*%
X106172000Y-49530000D03*
%TO.P,J3,9*%
%TO.N,Net-(J3-Pad9)*%
X108712000Y-46990000D03*
%TO.P,J3,10*%
%TO.N,Net-(J3-Pad10)*%
X108712000Y-49530000D03*
%TD*%
D12*
%TO.P,J1,G4*%
%TO.N,GND*%
X37962000Y-67312000D03*
%TO.P,J1,G3*%
X37962000Y-58672000D03*
D13*
%TO.P,J1,G2*%
X33782000Y-67312000D03*
%TO.P,J1,G1*%
X33782000Y-58672000D03*
%TD*%
D14*
%TO.P,J4,1*%
%TO.N,GND*%
X185928000Y-64516000D03*
%TD*%
%TO.P,J5,1*%
%TO.N,V_OUTPUT*%
X185928000Y-77978000D03*
%TD*%
D15*
%TO.P,H1,1*%
%TO.N,N/C*%
X39289056Y-39704944D03*
X37592000Y-39002000D03*
X35894944Y-39704944D03*
X35192000Y-41402000D03*
X35894944Y-43099056D03*
X37592000Y-43802000D03*
X39289056Y-43099056D03*
X39992000Y-41402000D03*
D16*
X37592000Y-41402000D03*
%TD*%
%TO.P,H2,1*%
%TO.N,N/C*%
X37592000Y-88646000D03*
D15*
X39992000Y-88646000D03*
X39289056Y-90343056D03*
X37592000Y-91046000D03*
X35894944Y-90343056D03*
X35192000Y-88646000D03*
X35894944Y-86948944D03*
X37592000Y-86246000D03*
X39289056Y-86948944D03*
%TD*%
D16*
%TO.P,H3,1*%
%TO.N,N/C*%
X188976000Y-41402000D03*
D15*
X191376000Y-41402000D03*
X190673056Y-43099056D03*
X188976000Y-43802000D03*
X187278944Y-43099056D03*
X186576000Y-41402000D03*
X187278944Y-39704944D03*
X188976000Y-39002000D03*
X190673056Y-39704944D03*
%TD*%
%TO.P,H4,1*%
%TO.N,N/C*%
X100503056Y-86948944D03*
X98806000Y-86246000D03*
X97108944Y-86948944D03*
X96406000Y-88646000D03*
X97108944Y-90343056D03*
X98806000Y-91046000D03*
X100503056Y-90343056D03*
X101206000Y-88646000D03*
D16*
X98806000Y-88646000D03*
%TD*%
D10*
%TO.P,J6,1*%
%TO.N,I_Source*%
X132842000Y-90424000D03*
D11*
%TO.P,J6,2*%
%TO.N,Net-(J6-Pad2)*%
X132842000Y-87884000D03*
%TO.P,J6,3*%
%TO.N,I_Source*%
X130302000Y-90424000D03*
%TO.P,J6,4*%
%TO.N,Net-(J6-Pad4)*%
X130302000Y-87884000D03*
%TO.P,J6,5*%
%TO.N,I_Source*%
X127762000Y-90424000D03*
%TO.P,J6,6*%
%TO.N,N/C*%
X127762000Y-87884000D03*
%TD*%
D17*
%TO.N,Net-(C1-Pad1)*%
X40690800Y-64541400D03*
X38506400Y-53086000D03*
X40855990Y-55174010D03*
X39796901Y-60447101D03*
%TO.N,GND*%
X161036000Y-86868000D03*
X144526000Y-43434000D03*
X151638000Y-45212000D03*
X42672000Y-55626000D03*
X39624000Y-59436000D03*
X43230800Y-64947800D03*
X47936500Y-64700500D03*
X79216600Y-56292400D03*
X122936000Y-77724000D03*
X125476000Y-79756000D03*
X112259000Y-57413000D03*
X131064000Y-66802000D03*
X133350000Y-66802000D03*
X157489000Y-53857000D03*
X171871990Y-59315990D03*
X162247580Y-73444100D03*
X163573460Y-73538080D03*
X164846000Y-73660000D03*
X166116000Y-74168000D03*
X146812000Y-87884000D03*
X148336000Y-87884000D03*
X150114000Y-87884000D03*
X151638000Y-87884000D03*
X153162000Y-87884000D03*
X154432000Y-87884000D03*
X156210000Y-87884000D03*
X157734000Y-88138000D03*
X159004000Y-87884000D03*
X191262000Y-66802000D03*
X191262000Y-60706000D03*
X191262000Y-63754000D03*
X191262000Y-62484000D03*
X191262000Y-70104000D03*
X191262000Y-65278000D03*
X191262000Y-68580000D03*
X192532000Y-60706000D03*
X192532000Y-70104000D03*
X192532000Y-66802000D03*
X192532000Y-62484000D03*
X192532000Y-65278000D03*
X192532000Y-63754000D03*
X192532000Y-68580000D03*
X184912000Y-59182000D03*
X191008000Y-59182000D03*
X186690000Y-59182000D03*
X189484000Y-59182000D03*
X187960000Y-59182000D03*
X192786000Y-59182000D03*
X186690000Y-57912000D03*
X191008000Y-57912000D03*
X187960000Y-57912000D03*
X192786000Y-57912000D03*
X189484000Y-57912000D03*
X184912000Y-57912000D03*
X186690000Y-55372000D03*
X187960000Y-56642000D03*
X186690000Y-56642000D03*
X192786000Y-56642000D03*
X191008000Y-56642000D03*
X189484000Y-55372000D03*
X184912000Y-55372000D03*
X191008000Y-55372000D03*
X192786000Y-55372000D03*
X189484000Y-56642000D03*
X184912000Y-56642000D03*
X187960000Y-55372000D03*
X186690000Y-52832000D03*
X192786000Y-50292000D03*
X187960000Y-50292000D03*
X184912000Y-50292000D03*
X187960000Y-54102000D03*
X186690000Y-54102000D03*
X192786000Y-54102000D03*
X186690000Y-50292000D03*
X186690000Y-51562000D03*
X189484000Y-51562000D03*
X191008000Y-54102000D03*
X192786000Y-51562000D03*
X189484000Y-52832000D03*
X184912000Y-52832000D03*
X191008000Y-52832000D03*
X191008000Y-50292000D03*
X192786000Y-52832000D03*
X191008000Y-51562000D03*
X189484000Y-54102000D03*
X184912000Y-54102000D03*
X187960000Y-52832000D03*
X187960000Y-51562000D03*
X189484000Y-50292000D03*
X184912000Y-51562000D03*
X172466000Y-89154000D03*
X173990000Y-89154000D03*
X175768000Y-89154000D03*
X180848000Y-89662000D03*
X184658000Y-89154000D03*
X175768000Y-90424000D03*
X184658000Y-90424000D03*
X181864000Y-90424000D03*
X177292000Y-90424000D03*
X178816000Y-90424000D03*
X172466000Y-90424000D03*
X173990000Y-90424000D03*
X180086000Y-90424000D03*
X183388000Y-90424000D03*
X190500000Y-90424000D03*
X187706000Y-90424000D03*
X185928000Y-90424000D03*
X189230000Y-90424000D03*
X190500000Y-89154000D03*
X187706000Y-89154000D03*
X189230000Y-89154000D03*
X185928000Y-89154000D03*
X33782000Y-65278000D03*
X33782000Y-64262000D03*
X33782000Y-63246000D03*
X33782000Y-62230000D03*
X33782000Y-61214000D03*
X33782000Y-60198000D03*
X34798000Y-60198000D03*
X34798000Y-61214000D03*
X34798000Y-62230000D03*
X34798000Y-63246000D03*
X34798000Y-64262000D03*
X34798000Y-65278000D03*
X35814000Y-60198000D03*
X35814000Y-61214000D03*
X35814000Y-62230000D03*
X35814000Y-63246000D03*
X35814000Y-64262000D03*
X36830000Y-62230000D03*
X36830000Y-63246000D03*
X62367000Y-54219000D03*
X61214000Y-55880000D03*
X62230000Y-55880000D03*
X60960000Y-56896000D03*
X61976000Y-56896000D03*
X60452000Y-57912000D03*
X61468000Y-57912000D03*
X62484000Y-57912000D03*
X63500000Y-57912000D03*
X64516000Y-57912000D03*
X60960000Y-58928000D03*
X61976000Y-58928000D03*
X62992000Y-58928000D03*
X64008000Y-58928000D03*
X65024000Y-58928000D03*
X59944000Y-58928000D03*
X58928000Y-58928000D03*
X57912000Y-58928000D03*
X62738000Y-46482000D03*
X64008000Y-46482000D03*
X65024000Y-46482000D03*
X66040000Y-46482000D03*
X67056000Y-46482000D03*
X68072000Y-46482000D03*
X69088000Y-46482000D03*
X64516000Y-47498000D03*
X65532000Y-47498000D03*
X66548000Y-47498000D03*
X67564000Y-47498000D03*
X68580000Y-47498000D03*
X69596000Y-47498000D03*
X120650000Y-88646000D03*
X120650000Y-89916000D03*
X120650000Y-91186000D03*
X120650000Y-92456000D03*
X119380000Y-88646000D03*
X119380000Y-91186000D03*
X119380000Y-92456000D03*
X119380000Y-89916000D03*
X118110000Y-88646000D03*
X118110000Y-92456000D03*
X118110000Y-91186000D03*
X118110000Y-89916000D03*
X148082000Y-89154000D03*
X146812000Y-89154000D03*
X150622000Y-89154000D03*
X149352000Y-89154000D03*
X149352000Y-90170000D03*
X146812000Y-90170000D03*
X150622000Y-90170000D03*
X148082000Y-90170000D03*
X146812000Y-91186000D03*
X150622000Y-91186000D03*
X148082000Y-91186000D03*
X149352000Y-91186000D03*
X148082000Y-92202000D03*
X149352000Y-92202000D03*
X146812000Y-92202000D03*
X150622000Y-92202000D03*
X182372000Y-48514000D03*
X180848000Y-48514000D03*
X177800000Y-48514000D03*
X179578000Y-47244000D03*
X183896000Y-47244000D03*
X180848000Y-47244000D03*
X183896000Y-48514000D03*
X179578000Y-48514000D03*
X177800000Y-47244000D03*
X177800000Y-40894000D03*
X183896000Y-39624000D03*
X182372000Y-47244000D03*
X177800000Y-44704000D03*
X180848000Y-42164000D03*
X177800000Y-45974000D03*
X180848000Y-45974000D03*
X182372000Y-44704000D03*
X179578000Y-43434000D03*
X183896000Y-43434000D03*
X179578000Y-42164000D03*
X177800000Y-42164000D03*
X179578000Y-45974000D03*
X179578000Y-44704000D03*
X182372000Y-43434000D03*
X182372000Y-39624000D03*
X182372000Y-42164000D03*
X183896000Y-40894000D03*
X179578000Y-39624000D03*
X179578000Y-40894000D03*
X182372000Y-40894000D03*
X183896000Y-42164000D03*
X177800000Y-43434000D03*
X180848000Y-40894000D03*
X183896000Y-45974000D03*
X180848000Y-44704000D03*
X183896000Y-44704000D03*
X180848000Y-39624000D03*
X180848000Y-43434000D03*
X177800000Y-39624000D03*
X182372000Y-45974000D03*
X172974000Y-47244000D03*
X169926000Y-44704000D03*
X171704000Y-42164000D03*
X174498000Y-42164000D03*
X171704000Y-47244000D03*
X171704000Y-38354000D03*
X176022000Y-40894000D03*
X172974000Y-40894000D03*
X172974000Y-43434000D03*
X172974000Y-45974000D03*
X171704000Y-44704000D03*
X174498000Y-43434000D03*
X176022000Y-42164000D03*
X171704000Y-45974000D03*
X176022000Y-38354000D03*
X172974000Y-44704000D03*
X174498000Y-38354000D03*
X174498000Y-39624000D03*
X172974000Y-38354000D03*
X172974000Y-42164000D03*
X174498000Y-40894000D03*
X171704000Y-43434000D03*
X172974000Y-39624000D03*
X174498000Y-44704000D03*
X171704000Y-40894000D03*
X176022000Y-44704000D03*
X174498000Y-45974000D03*
X176022000Y-43434000D03*
X169926000Y-39624000D03*
X169926000Y-47244000D03*
X169926000Y-45974000D03*
X176022000Y-47244000D03*
X169926000Y-40894000D03*
X174498000Y-47244000D03*
X176022000Y-39624000D03*
X169926000Y-43434000D03*
X169926000Y-38354000D03*
X176022000Y-45974000D03*
X171704000Y-39624000D03*
X169926000Y-42164000D03*
X124460000Y-42164000D03*
X130810000Y-37846000D03*
X128270000Y-40894000D03*
X130810000Y-40894000D03*
X125730000Y-39370000D03*
X127000000Y-42164000D03*
X127000000Y-39370000D03*
X125730000Y-37846000D03*
X130810000Y-39370000D03*
X132080000Y-40894000D03*
X129540000Y-42164000D03*
X132080000Y-43942000D03*
X130810000Y-43942000D03*
X127000000Y-37846000D03*
X132080000Y-39370000D03*
X124460000Y-37846000D03*
X125730000Y-40894000D03*
X125730000Y-42164000D03*
X124460000Y-40894000D03*
X129540000Y-37846000D03*
X129540000Y-43942000D03*
X132080000Y-42164000D03*
X130810000Y-42164000D03*
X129540000Y-40894000D03*
X124460000Y-39370000D03*
X132080000Y-37846000D03*
X128270000Y-37846000D03*
X128270000Y-42164000D03*
X128270000Y-39370000D03*
X129540000Y-39370000D03*
X127000000Y-40894000D03*
X139700000Y-37846000D03*
X134620000Y-37846000D03*
X133350000Y-37846000D03*
X133350000Y-40894000D03*
X135890000Y-40894000D03*
X137160000Y-37846000D03*
X139700000Y-39370000D03*
X134620000Y-40894000D03*
X137160000Y-40894000D03*
X138430000Y-39370000D03*
X135890000Y-39370000D03*
X140970000Y-37846000D03*
X133350000Y-39370000D03*
X139700000Y-40894000D03*
X135890000Y-37846000D03*
X134620000Y-39370000D03*
X138430000Y-37846000D03*
X137160000Y-39370000D03*
X140970000Y-40894000D03*
X138430000Y-40894000D03*
X140970000Y-39370000D03*
X146050000Y-39370000D03*
X147320000Y-39370000D03*
X144780000Y-37846000D03*
X148590000Y-37846000D03*
X144780000Y-39370000D03*
X147320000Y-37846000D03*
X146050000Y-37846000D03*
X148590000Y-39370000D03*
X142240000Y-37846000D03*
X143510000Y-39370000D03*
X142240000Y-39370000D03*
X143510000Y-37846000D03*
X146050000Y-40894000D03*
X144780000Y-40894000D03*
X143510000Y-40894000D03*
X142240000Y-40894000D03*
X64516000Y-70104000D03*
X61468000Y-67564000D03*
X63246000Y-65024000D03*
X66040000Y-65024000D03*
X63246000Y-70104000D03*
X63246000Y-61214000D03*
X67564000Y-63754000D03*
X64516000Y-63754000D03*
X64516000Y-66294000D03*
X64516000Y-68834000D03*
X63246000Y-67564000D03*
X66040000Y-66294000D03*
X67564000Y-65024000D03*
X63246000Y-68834000D03*
X67564000Y-61214000D03*
X64516000Y-67564000D03*
X66040000Y-61214000D03*
X66040000Y-62484000D03*
X64516000Y-61214000D03*
X64516000Y-65024000D03*
X66040000Y-63754000D03*
X63246000Y-66294000D03*
X64516000Y-62484000D03*
X66040000Y-67564000D03*
X63246000Y-63754000D03*
X67564000Y-67564000D03*
X66040000Y-68834000D03*
X67564000Y-66294000D03*
X61468000Y-62484000D03*
X61468000Y-70104000D03*
X61468000Y-68834000D03*
X67564000Y-70104000D03*
X61468000Y-63754000D03*
X66040000Y-70104000D03*
X67564000Y-62484000D03*
X61468000Y-66294000D03*
X61468000Y-61214000D03*
X67564000Y-68834000D03*
X63246000Y-62484000D03*
X61468000Y-65024000D03*
X89916000Y-84328000D03*
X88138000Y-83058000D03*
X94234000Y-90678000D03*
X92710000Y-91948000D03*
X88138000Y-88138000D03*
X94234000Y-84328000D03*
X88138000Y-86868000D03*
X92710000Y-90678000D03*
X94234000Y-83058000D03*
X94234000Y-88138000D03*
X88138000Y-84328000D03*
X91186000Y-84328000D03*
X94234000Y-89408000D03*
X91186000Y-91948000D03*
X89916000Y-89408000D03*
X92710000Y-83058000D03*
X89916000Y-90678000D03*
X88138000Y-89408000D03*
X89916000Y-86868000D03*
X89916000Y-91948000D03*
X89916000Y-83058000D03*
X94234000Y-85598000D03*
X91186000Y-85598000D03*
X91186000Y-88138000D03*
X91186000Y-90678000D03*
X94234000Y-86868000D03*
X91186000Y-89408000D03*
X92710000Y-84328000D03*
X91186000Y-83058000D03*
X91186000Y-86868000D03*
X92710000Y-88138000D03*
X92710000Y-85598000D03*
X89916000Y-88138000D03*
X92710000Y-86868000D03*
X92710000Y-89408000D03*
X89916000Y-85598000D03*
X88138000Y-85598000D03*
X88138000Y-91948000D03*
X88138000Y-90678000D03*
X94234000Y-91948000D03*
X49276000Y-90932000D03*
X54356000Y-90932000D03*
X48006000Y-88392000D03*
X54356000Y-88392000D03*
X50546000Y-89662000D03*
X49276000Y-86868000D03*
X54356000Y-86868000D03*
X46736000Y-89662000D03*
X48006000Y-89662000D03*
X53086000Y-89662000D03*
X48006000Y-86868000D03*
X46736000Y-88392000D03*
X55626000Y-90932000D03*
X53086000Y-88392000D03*
X51816000Y-89662000D03*
X49276000Y-89662000D03*
X51816000Y-86868000D03*
X55626000Y-86868000D03*
X51816000Y-88392000D03*
X48006000Y-90932000D03*
X46736000Y-86868000D03*
X54356000Y-89662000D03*
X55626000Y-89662000D03*
X46736000Y-90932000D03*
X55626000Y-88392000D03*
X51816000Y-90932000D03*
X53086000Y-90932000D03*
X50546000Y-90932000D03*
X49276000Y-88392000D03*
X50546000Y-88392000D03*
X50546000Y-86868000D03*
X53086000Y-86868000D03*
X66040000Y-86868000D03*
X57150000Y-88392000D03*
X66040000Y-89662000D03*
X64770000Y-90932000D03*
X63500000Y-86868000D03*
X63500000Y-89662000D03*
X62230000Y-86868000D03*
X58420000Y-90932000D03*
X57150000Y-89662000D03*
X64770000Y-88392000D03*
X57150000Y-90932000D03*
X58420000Y-86868000D03*
X66040000Y-88392000D03*
X58420000Y-88392000D03*
X59690000Y-90932000D03*
X60960000Y-88392000D03*
X62230000Y-89662000D03*
X62230000Y-90932000D03*
X59690000Y-89662000D03*
X64770000Y-86868000D03*
X57150000Y-86868000D03*
X60960000Y-89662000D03*
X66040000Y-90932000D03*
X63500000Y-90932000D03*
X62230000Y-88392000D03*
X60960000Y-86868000D03*
X59690000Y-86868000D03*
X63500000Y-88392000D03*
X60960000Y-90932000D03*
X58420000Y-89662000D03*
X59690000Y-88392000D03*
X64770000Y-89662000D03*
X70866000Y-38354000D03*
X61976000Y-39878000D03*
X70866000Y-41148000D03*
X69596000Y-42418000D03*
X68326000Y-38354000D03*
X68326000Y-41148000D03*
X67056000Y-38354000D03*
X63246000Y-42418000D03*
X61976000Y-41148000D03*
X69596000Y-39878000D03*
X61976000Y-42418000D03*
X63246000Y-38354000D03*
X70866000Y-39878000D03*
X63246000Y-39878000D03*
X64516000Y-42418000D03*
X65786000Y-39878000D03*
X67056000Y-41148000D03*
X67056000Y-42418000D03*
X64516000Y-41148000D03*
X69596000Y-38354000D03*
X61976000Y-38354000D03*
X65786000Y-41148000D03*
X70866000Y-42418000D03*
X68326000Y-42418000D03*
X67056000Y-39878000D03*
X65786000Y-38354000D03*
X64516000Y-38354000D03*
X68326000Y-39878000D03*
X65786000Y-42418000D03*
X63246000Y-41148000D03*
X64516000Y-39878000D03*
X69596000Y-41148000D03*
X76200000Y-39878000D03*
X80010000Y-38354000D03*
X72390000Y-38354000D03*
X77470000Y-41148000D03*
X74930000Y-41148000D03*
X76200000Y-41148000D03*
X81280000Y-42418000D03*
X78740000Y-42418000D03*
X77470000Y-39878000D03*
X76200000Y-38354000D03*
X77470000Y-42418000D03*
X74930000Y-38354000D03*
X72390000Y-41148000D03*
X80010000Y-39878000D03*
X72390000Y-42418000D03*
X73660000Y-38354000D03*
X77470000Y-38354000D03*
X81280000Y-39878000D03*
X73660000Y-39878000D03*
X74930000Y-42418000D03*
X81280000Y-41148000D03*
X80010000Y-42418000D03*
X73660000Y-42418000D03*
X72390000Y-39878000D03*
X78740000Y-38354000D03*
X81280000Y-38354000D03*
X78740000Y-41148000D03*
X76200000Y-42418000D03*
X78740000Y-39878000D03*
X73660000Y-41148000D03*
X80010000Y-41148000D03*
X74930000Y-39878000D03*
X85912960Y-48582580D03*
%TO.N,Net-(C5-Pad1)*%
X55164001Y-49695999D03*
X43434000Y-60452000D03*
X59436000Y-49479200D03*
X61087000Y-50774600D03*
%TO.N,VSNK*%
X130556000Y-56896000D03*
X132588000Y-46228000D03*
X127000000Y-72898000D03*
X127000000Y-76200000D03*
X78486000Y-49530000D03*
X128524000Y-59944000D03*
X85966300Y-51135280D03*
X82903060Y-50073560D03*
%TO.N,/LinReg/V_IN_BUCK*%
X87884000Y-68072000D03*
X141097000Y-84201000D03*
X140462000Y-84836000D03*
X139700000Y-85344000D03*
X138938000Y-85344000D03*
X141224000Y-72898000D03*
X141224000Y-71882000D03*
X141224000Y-70358000D03*
X141224000Y-71120000D03*
X87015320Y-51168300D03*
%TO.N,Net-(C13-Pad2)*%
X87884000Y-49530000D03*
X92710000Y-54356000D03*
%TO.N,5V_lin*%
X104996999Y-51148999D03*
X104996999Y-57309001D03*
X128778000Y-45974000D03*
X139700000Y-45974000D03*
%TO.N,Net-(C21-Pad1)*%
X162052000Y-47752000D03*
X148581000Y-48251000D03*
%TO.N,I_MON*%
X142240000Y-64262000D03*
X142240000Y-79502000D03*
%TO.N,Net-(C28-Pad1)*%
X148590000Y-49276000D03*
X152908000Y-46482000D03*
%TO.N,Net-(C32-Pad1)*%
X151892000Y-66294000D03*
X156718000Y-67564000D03*
X154940000Y-68834000D03*
X153416000Y-67564000D03*
X153416000Y-68834000D03*
X151892000Y-67564000D03*
X151892000Y-68834000D03*
X155956000Y-66040000D03*
X154686000Y-66040000D03*
X157226000Y-66040000D03*
X157226000Y-64770000D03*
X156210000Y-64770000D03*
X154686000Y-64770000D03*
X153416000Y-64770000D03*
X152146000Y-64770000D03*
X157226000Y-63500000D03*
X155956000Y-63500000D03*
X154686000Y-63500000D03*
X153416000Y-63500000D03*
X152146000Y-63500000D03*
X150368000Y-63500000D03*
X150368000Y-64770000D03*
X150368000Y-66294000D03*
X150368000Y-67564000D03*
X150368000Y-68834000D03*
X149098000Y-68834000D03*
X149098000Y-67564000D03*
X149098000Y-66294000D03*
X149098000Y-64770000D03*
X149098000Y-63500000D03*
X157226000Y-62230000D03*
X155956000Y-62230000D03*
X154686000Y-62230000D03*
X153416000Y-62230000D03*
X152146000Y-62230000D03*
X150622000Y-62230000D03*
X149098000Y-62230000D03*
X153416000Y-65786000D03*
X155067000Y-67437000D03*
X156591000Y-68961000D03*
%TO.N,Net-(C34-Pad1)*%
X150368000Y-77724000D03*
X149098000Y-77724000D03*
X149098000Y-78994000D03*
X150368000Y-78994000D03*
X152908000Y-77724000D03*
X151638000Y-77724000D03*
X151638000Y-78994000D03*
X152908000Y-78994000D03*
X150368000Y-80264000D03*
X149098000Y-80264000D03*
X152908000Y-80264000D03*
X151638000Y-80264000D03*
X149098000Y-81534000D03*
X150368000Y-81534000D03*
X152908000Y-81534000D03*
X151638000Y-81534000D03*
X149098000Y-82804000D03*
X152908000Y-84074000D03*
X151638000Y-84074000D03*
X152908000Y-82804000D03*
X149098000Y-84074000D03*
X150368000Y-84074000D03*
X151638000Y-82804000D03*
X150368000Y-82804000D03*
X154178000Y-77724000D03*
X156718000Y-77724000D03*
X155448000Y-77724000D03*
X154178000Y-78994000D03*
X156718000Y-78994000D03*
X156718000Y-81534000D03*
X155448000Y-81534000D03*
X156718000Y-80264000D03*
X155448000Y-78994000D03*
X154178000Y-81534000D03*
X155448000Y-80264000D03*
X154178000Y-80264000D03*
X154178000Y-82804000D03*
X155448000Y-84074000D03*
X154178000Y-84074000D03*
X156718000Y-84074000D03*
X156718000Y-82804000D03*
X155448000Y-82804000D03*
%TO.N,V_OUTPUT*%
X156718000Y-58420000D03*
X159512000Y-57912000D03*
X181356000Y-80772000D03*
X180340000Y-80772000D03*
X181102000Y-79756000D03*
X179832000Y-79756000D03*
X179578000Y-78740000D03*
X180594000Y-78740000D03*
X179324000Y-77470000D03*
X180340000Y-77470000D03*
X179578000Y-76200000D03*
X180848000Y-76200000D03*
X180086000Y-74676000D03*
X181356000Y-74676000D03*
X182880000Y-73406000D03*
X184150000Y-73660000D03*
X187706000Y-73660000D03*
X189738000Y-74422000D03*
X190246000Y-75438000D03*
X190754000Y-76708000D03*
X190500000Y-79502000D03*
X190246000Y-80772000D03*
X189230000Y-81534000D03*
X187960000Y-82550000D03*
X189484000Y-83312000D03*
X190500000Y-82296000D03*
X184150000Y-82804000D03*
X183134000Y-82042000D03*
X181102000Y-82042000D03*
X173482000Y-66040000D03*
X175514000Y-66040000D03*
X173482000Y-67818000D03*
X175514000Y-67818000D03*
X173482000Y-71374000D03*
X173482000Y-69596000D03*
X175514000Y-75184000D03*
X175514000Y-73406000D03*
X173482000Y-75184000D03*
X173482000Y-73406000D03*
X173482000Y-78740000D03*
X173482000Y-76962000D03*
X175514000Y-78740000D03*
X175514000Y-76962000D03*
X94414340Y-42931080D03*
%TO.N,POWER_OK2*%
X49174400Y-60121800D03*
%TO.N,POWER_OK3*%
X49022000Y-64008000D03*
%TO.N,Alert*%
X50469800Y-60756800D03*
%TO.N,A_B_SIDE*%
X57353200Y-75514200D03*
X53213000Y-61290200D03*
X51823620Y-63545720D03*
X50596800Y-61935360D03*
%TO.N,ATTACH*%
X49784000Y-65608200D03*
X53873400Y-68122800D03*
%TO.N,VPP*%
X42418000Y-71120000D03*
%TO.N,Reset*%
X42418000Y-67081400D03*
X53340000Y-70383400D03*
%TO.N,GPIO*%
X50012600Y-63652400D03*
X53822600Y-66649600D03*
%TO.N,Net-(J3-Pad1)*%
X114046000Y-48768000D03*
X113284000Y-54610000D03*
%TO.N,Net-(J3-Pad2)*%
X116332000Y-48768000D03*
X114300000Y-53848000D03*
%TO.N,Net-(J3-Pad3)*%
X118618000Y-48768000D03*
X115824000Y-53086000D03*
%TO.N,Net-(J3-Pad4)*%
X120904000Y-48768000D03*
X117348000Y-52324000D03*
%TO.N,Net-(J3-Pad8)*%
X127762000Y-48768000D03*
X122682000Y-50800000D03*
%TO.N,Net-(J3-Pad9)*%
X125476000Y-48768000D03*
X120414000Y-50800000D03*
X123707000Y-54093000D03*
X126991000Y-54093000D03*
X111506000Y-50800000D03*
%TO.N,Net-(J3-Pad10)*%
X123190000Y-48768000D03*
X118872000Y-51562000D03*
%TO.N,Net-(Q3-Pad3)*%
X165354000Y-54102000D03*
X171450000Y-53086000D03*
%TO.N,Net-(R9-Pad2)*%
X50800000Y-53086000D03*
X49585104Y-61666896D03*
%TO.N,Net-(R25-Pad1)*%
X116332000Y-74422000D03*
X117602000Y-75946000D03*
%TO.N,Net-(R35-Pad2)*%
X134874000Y-59690000D03*
X135128000Y-71882000D03*
%TO.N,Net-(R37-Pad2)*%
X137668000Y-67056000D03*
X139700000Y-58928000D03*
%TO.N,Net-(R47-Pad2)*%
X144272000Y-70612000D03*
X145034000Y-60198000D03*
%TO.N,Net-(R48-Pad2)*%
X144272000Y-75184000D03*
X145542000Y-85852000D03*
%TO.N,Net-(BUCK_FB1-Pad1)*%
X92837000Y-51689000D03*
X94488000Y-50038000D03*
%TO.N,I_Source*%
X139700000Y-76454000D03*
X139700000Y-74930000D03*
X128016000Y-64008000D03*
X148082000Y-58928000D03*
X141732000Y-85598000D03*
%TO.N,Net-(R68-Pad1)*%
X121144000Y-66054000D03*
X118618000Y-86614000D03*
%TD*%
D18*
%TO.N,Net-(C1-Pad1)*%
X39796901Y-63647501D02*
X40690800Y-64541400D01*
X39796901Y-60447101D02*
X39796901Y-63647501D01*
D19*
X40855990Y-55174010D02*
X39883210Y-55174010D01*
X39883210Y-55174010D02*
X39883210Y-54462810D01*
X39883210Y-54462810D02*
X38506400Y-53086000D01*
%TO.N,GND*%
X39624000Y-59436000D02*
X42164000Y-61214000D01*
D20*
X39624000Y-58674000D02*
X42672000Y-55626000D01*
X39624000Y-59436000D02*
X39624000Y-58674000D01*
D19*
X43230800Y-62280800D02*
X42164000Y-61214000D01*
X43230800Y-64947800D02*
X43230800Y-62280800D01*
D21*
X43478100Y-64700500D02*
X43230800Y-64947800D01*
X47936500Y-64700500D02*
X43478100Y-64700500D01*
D19*
X37962000Y-67737002D02*
X37962000Y-67312000D01*
X46926397Y-76701399D02*
X37962000Y-67737002D01*
X48329599Y-76701399D02*
X46926397Y-76701399D01*
X49504600Y-77876400D02*
X48329599Y-76701399D01*
X149860000Y-43434000D02*
X151638000Y-45212000D01*
X144526000Y-43434000D02*
X149860000Y-43434000D01*
X122936000Y-77724000D02*
X124968000Y-79756000D01*
X124968000Y-79756000D02*
X125476000Y-79756000D01*
X112259000Y-57337998D02*
X104451002Y-49530000D01*
X104451002Y-49530000D02*
X103632000Y-49530000D01*
X112259000Y-57413000D02*
X112259000Y-57337998D01*
X131064000Y-66802000D02*
X133350000Y-66802000D01*
X162947990Y-59315990D02*
X171871990Y-59315990D01*
X157489000Y-53857000D02*
X162947990Y-59315990D01*
X161036000Y-86868000D02*
X161036000Y-73406000D01*
X161036000Y-61227980D02*
X162947990Y-59315990D01*
X161036000Y-72390000D02*
X161036000Y-66548000D01*
X161036000Y-73406000D02*
X161036000Y-72390000D01*
X161036000Y-62484000D02*
X161036000Y-61227980D01*
X161036000Y-64008000D02*
X161036000Y-62484000D01*
X161036000Y-65278000D02*
X161036000Y-64008000D01*
X161036000Y-66548000D02*
X161036000Y-65278000D01*
X48589611Y-82041411D02*
X46964600Y-80416400D01*
X61214589Y-82041411D02*
X48589611Y-82041411D01*
X66548000Y-76708000D02*
X61214589Y-82041411D01*
X77143200Y-54219000D02*
X79216600Y-56292400D01*
X62367000Y-54219000D02*
X77143200Y-54219000D01*
X62367000Y-49647000D02*
X64516000Y-47498000D01*
X62367000Y-54219000D02*
X62367000Y-49647000D01*
X96050998Y-48768000D02*
X97987999Y-50705001D01*
X102456999Y-50705001D02*
X103632000Y-49530000D01*
X85912960Y-48582580D02*
X96050998Y-48768000D01*
X97987999Y-50705001D02*
X102456999Y-50705001D01*
D22*
X79216600Y-52724018D02*
X79216600Y-56292400D01*
X83358038Y-48582580D02*
X79216600Y-52724018D01*
X85912960Y-48582580D02*
X83358038Y-48582580D01*
D19*
%TO.N,Net-(C5-Pad1)*%
X55164001Y-49695999D02*
X52920001Y-49695999D01*
X52920001Y-52039001D02*
X44507002Y-60452000D01*
X52920001Y-49695999D02*
X52920001Y-52039001D01*
X44507002Y-60452000D02*
X43434000Y-60452000D01*
X59436000Y-49479200D02*
X60731400Y-50774600D01*
X60731400Y-50774600D02*
X61087000Y-50774600D01*
X61087000Y-50774600D02*
X61214000Y-50774600D01*
%TO.N,VSNK*%
X130556000Y-56896000D02*
X130556000Y-48260000D01*
X130556000Y-48260000D02*
X132588000Y-46228000D01*
X127000000Y-72898000D02*
X127000000Y-76200000D01*
X129990998Y-48260000D02*
X130556000Y-48260000D01*
X127095987Y-45364989D02*
X129990998Y-48260000D01*
X78486000Y-49530000D02*
X82651011Y-45364989D01*
X82651011Y-45364989D02*
X129889987Y-45364989D01*
X128524000Y-58928000D02*
X130556000Y-56896000D01*
X128524000Y-59944000D02*
X128524000Y-58928000D01*
D22*
X84904580Y-50073560D02*
X85966300Y-51135280D01*
X82903060Y-50073560D02*
X84904580Y-50073560D01*
D23*
%TO.N,/LinReg/V_IN_BUCK*%
X140824001Y-73297999D02*
X140824001Y-83674001D01*
X140824001Y-83674001D02*
X141212001Y-84062001D01*
X141224000Y-72898000D02*
X140824001Y-73297999D01*
X141212001Y-84062001D02*
X141212001Y-84085999D01*
X141212001Y-84085999D02*
X141097000Y-84201000D01*
X139954000Y-85344000D02*
X139700000Y-85344000D01*
X141097000Y-84201000D02*
X140462000Y-84836000D01*
X140462000Y-84836000D02*
X139954000Y-85344000D01*
X139700000Y-85344000D02*
X138938000Y-85344000D01*
X141224000Y-72898000D02*
X141224000Y-71882000D01*
X141224000Y-71882000D02*
X141224000Y-71120000D01*
X141224000Y-71120000D02*
X141224000Y-70358000D01*
D19*
X87015320Y-67203320D02*
X87884000Y-68072000D01*
X87015320Y-51168300D02*
X87015320Y-67203320D01*
D22*
%TO.N,Net-(C13-Pad2)*%
X87884000Y-49530000D02*
X92710000Y-54356000D01*
D19*
%TO.N,5V_lin*%
X104996999Y-51148999D02*
X104996999Y-57309001D01*
X129249001Y-45502999D02*
X128778000Y-45974000D01*
X139228999Y-45502999D02*
X129249001Y-45502999D01*
X139700000Y-45974000D02*
X139228999Y-45502999D01*
%TO.N,Net-(C21-Pad1)*%
X152559999Y-45756999D02*
X160056999Y-45756999D01*
X150065998Y-48251000D02*
X152559999Y-45756999D01*
X160056999Y-45756999D02*
X162052000Y-47752000D01*
X148581000Y-48251000D02*
X150065998Y-48251000D01*
%TO.N,I_MON*%
X142240000Y-64262000D02*
X142240000Y-79502000D01*
%TO.N,Net-(C28-Pad1)*%
X150114000Y-49276000D02*
X152908000Y-46482000D01*
X148590000Y-49276000D02*
X150114000Y-49276000D01*
%TO.N,V_OUTPUT*%
X159004000Y-58420000D02*
X159512000Y-57912000D01*
X156718000Y-58420000D02*
X159004000Y-58420000D01*
D22*
X137693082Y-42931080D02*
X153182002Y-58420000D01*
X153182002Y-58420000D02*
X156718000Y-58420000D01*
X94414340Y-42931080D02*
X137693082Y-42931080D01*
D19*
%TO.N,POWER_OK2*%
X48139601Y-80790403D02*
X48139601Y-79051401D01*
X48940599Y-81591401D02*
X48139601Y-80790403D01*
X55694601Y-81591401D02*
X48940599Y-81591401D01*
X55759601Y-81526401D02*
X55694601Y-81591401D01*
X50507803Y-59721801D02*
X55759601Y-64973599D01*
X55759601Y-64973599D02*
X55759601Y-81526401D01*
X49574399Y-59721801D02*
X50507803Y-59721801D01*
X48139601Y-79051401D02*
X46964600Y-77876400D01*
X49174400Y-60121800D02*
X49574399Y-59721801D01*
%TO.N,POWER_OK3*%
X48037201Y-65672801D02*
X40749199Y-65672801D01*
X49022000Y-64008000D02*
X49022000Y-64688002D01*
X49022000Y-64688002D02*
X48037201Y-65672801D01*
X36136980Y-74668780D02*
X41884600Y-80416400D01*
X36136980Y-65608608D02*
X36136980Y-74668780D01*
X36963598Y-64781990D02*
X36136980Y-65608608D01*
X39858388Y-64781990D02*
X36963598Y-64781990D01*
X40749199Y-65672801D02*
X39858388Y-64781990D01*
%TO.N,Alert*%
X53409599Y-79241399D02*
X54584600Y-80416400D01*
X53409599Y-77197201D02*
X53409599Y-79241399D01*
X55081001Y-65368001D02*
X55081001Y-75525799D01*
X55081001Y-75525799D02*
X53409599Y-77197201D01*
X50469800Y-60756800D02*
X55081001Y-65368001D01*
%TO.N,A_B_SIDE*%
X57353200Y-65930788D02*
X57353200Y-75514200D01*
X57353200Y-65430400D02*
X57353200Y-65930788D01*
X53213000Y-61290200D02*
X57353200Y-65430400D01*
D22*
X51823620Y-63162180D02*
X51823620Y-63545720D01*
X50596800Y-61935360D02*
X51823620Y-63162180D01*
D19*
%TO.N,ATTACH*%
X52298600Y-68122800D02*
X49784000Y-65608200D01*
X53873400Y-68122800D02*
X52298600Y-68122800D01*
%TO.N,VPP*%
X51243602Y-77876400D02*
X52044600Y-77876400D01*
X44487202Y-71120000D02*
X51243602Y-77876400D01*
X42418000Y-71120000D02*
X44487202Y-71120000D01*
%TO.N,Reset*%
X45720000Y-70383400D02*
X42418000Y-67081400D01*
X53340000Y-70383400D02*
X45720000Y-70383400D01*
%TO.N,GPIO*%
X37774001Y-65231999D02*
X37149999Y-65231999D01*
X38664813Y-66122811D02*
X37774001Y-65231999D01*
X48223601Y-66122811D02*
X38664813Y-66122811D01*
X50107799Y-64238613D02*
X48223601Y-66122811D01*
X36586990Y-72578790D02*
X41884600Y-77876400D01*
X36586990Y-65795008D02*
X36586990Y-72578790D01*
X37149999Y-65231999D02*
X36586990Y-65795008D01*
X50107799Y-63747599D02*
X50107799Y-64238613D01*
X50012600Y-63652400D02*
X50107799Y-63747599D01*
X51487813Y-64238613D02*
X50107799Y-64238613D01*
X53822600Y-66649600D02*
X51487813Y-64238613D01*
D22*
%TO.N,Net-(J3-Pad1)*%
X113284000Y-49530000D02*
X113284000Y-54610000D01*
X114046000Y-48768000D02*
X113284000Y-49530000D01*
D19*
X99727001Y-45814999D02*
X111092999Y-45814999D01*
X111092999Y-45814999D02*
X114046000Y-48768000D01*
X98552000Y-46990000D02*
X99727001Y-45814999D01*
D22*
%TO.N,Net-(J3-Pad2)*%
X114300000Y-50800000D02*
X114300000Y-53848000D01*
X116332000Y-48768000D02*
X114300000Y-50800000D01*
%TO.N,Net-(J3-Pad3)*%
X115824000Y-51562000D02*
X115824000Y-53086000D01*
X118618000Y-48768000D02*
X115824000Y-51562000D01*
%TO.N,Net-(J3-Pad4)*%
X117348000Y-51758315D02*
X117348000Y-52324000D01*
X120338315Y-48768000D02*
X117348000Y-51758315D01*
X120904000Y-48768000D02*
X120338315Y-48768000D01*
%TO.N,Net-(J3-Pad8)*%
X125730000Y-50800000D02*
X122682000Y-50800000D01*
X127762000Y-48768000D02*
X125730000Y-50800000D01*
%TO.N,Net-(J3-Pad9)*%
X121345991Y-49868009D02*
X120414000Y-50800000D01*
X124375991Y-49868009D02*
X121345991Y-49868009D01*
X125476000Y-48768000D02*
X124375991Y-49868009D01*
D19*
X123707000Y-54093000D02*
X126991000Y-54093000D01*
X111506000Y-49784000D02*
X108712000Y-46990000D01*
X111506000Y-50800000D02*
X111506000Y-49784000D01*
D22*
%TO.N,Net-(J3-Pad10)*%
X118872000Y-50996315D02*
X118872000Y-51562000D01*
X122489999Y-49468001D02*
X120400314Y-49468001D01*
X120400314Y-49468001D02*
X118872000Y-50996315D01*
X123190000Y-48768000D02*
X122489999Y-49468001D01*
D19*
%TO.N,Net-(Q3-Pad3)*%
X165354000Y-54102000D02*
X169926000Y-54102000D01*
X169926000Y-54102000D02*
X170942000Y-53086000D01*
X170942000Y-53086000D02*
X171450000Y-53086000D01*
%TO.N,Net-(R9-Pad2)*%
X49726998Y-53086000D02*
X50800000Y-53086000D01*
X42708999Y-60800001D02*
X42708999Y-60103999D01*
X43656398Y-61747400D02*
X42708999Y-60800001D01*
X42708999Y-60103999D02*
X49726998Y-53086000D01*
X49504600Y-61747400D02*
X49585104Y-61666896D01*
X43656398Y-61747400D02*
X49504600Y-61747400D01*
%TO.N,Net-(R25-Pad1)*%
X116332000Y-74422000D02*
X117602000Y-75946000D01*
%TO.N,Net-(R35-Pad2)*%
X134874000Y-59690000D02*
X134874000Y-71628000D01*
X134874000Y-71628000D02*
X135128000Y-71882000D01*
%TO.N,Net-(R37-Pad2)*%
X137668000Y-60960000D02*
X139700000Y-58928000D01*
X137668000Y-67056000D02*
X137668000Y-60960000D01*
%TO.N,Net-(R47-Pad2)*%
X144272000Y-70612000D02*
X144272000Y-60706000D01*
X144272000Y-60706000D02*
X144780000Y-60198000D01*
X144780000Y-60198000D02*
X145034000Y-60198000D01*
%TO.N,Net-(R48-Pad2)*%
X145542000Y-76454000D02*
X144272000Y-75184000D01*
X145542000Y-85852000D02*
X145542000Y-76454000D01*
D22*
%TO.N,Net-(BUCK_FB1-Pad1)*%
X92837000Y-51689000D02*
X94488000Y-50038000D01*
D19*
%TO.N,I_Source*%
X139700000Y-74930000D02*
X139700000Y-76454000D01*
X133821001Y-58202999D02*
X147356999Y-58202999D01*
X128016000Y-64008000D02*
X133821001Y-58202999D01*
X147356999Y-58202999D02*
X148082000Y-58928000D01*
X138596270Y-86169010D02*
X138112990Y-85685730D01*
X138112990Y-78041010D02*
X139700000Y-76454000D01*
X138112990Y-85685730D02*
X138112990Y-78041010D01*
X141160990Y-86169010D02*
X138596270Y-86169010D01*
X141732000Y-85598000D02*
X141160990Y-86169010D01*
%TO.N,Net-(R68-Pad1)*%
X118618000Y-86614000D02*
X118618000Y-79531002D01*
X121144000Y-77005002D02*
X121144000Y-66054000D01*
X118618000Y-79531002D02*
X121144000Y-77005002D01*
%TD*%
D24*
%TO.N,Net-(C32-Pad1)*%
G36*
X158115000Y-69469000D02*
G01*
X148209000Y-69469000D01*
X148209000Y-61595000D01*
X158115000Y-61595000D01*
X158115000Y-69469000D01*
G37*
X158115000Y-69469000D02*
X148209000Y-69469000D01*
X148209000Y-61595000D01*
X158115000Y-61595000D01*
X158115000Y-69469000D01*
%TO.N,Net-(C34-Pad1)*%
G36*
X158010405Y-84709000D02*
G01*
X148104405Y-84709000D01*
X148104405Y-76835000D01*
X158010405Y-76835000D01*
X158010405Y-84709000D01*
G37*
X158010405Y-84709000D02*
X148104405Y-84709000D01*
X148104405Y-76835000D01*
X158010405Y-76835000D01*
X158010405Y-84709000D01*
%TO.N,GND*%
G36*
X189758249Y-37054437D02*
G01*
X190515774Y-37261672D01*
X191224625Y-37599777D01*
X191862404Y-38058067D01*
X192408946Y-38622055D01*
X192846977Y-39273913D01*
X193162651Y-39993038D01*
X193347206Y-40761768D01*
X193396001Y-41426221D01*
X193396000Y-88616608D01*
X193323563Y-89428249D01*
X193116328Y-90185774D01*
X192778221Y-90894627D01*
X192319928Y-91532410D01*
X191755945Y-92078946D01*
X191104085Y-92516978D01*
X190384963Y-92832651D01*
X189616232Y-93017206D01*
X188951792Y-93066000D01*
X37621392Y-93066000D01*
X36809751Y-92993563D01*
X36052226Y-92786328D01*
X35343373Y-92448221D01*
X34705590Y-91989928D01*
X34159054Y-91425945D01*
X33721022Y-90774085D01*
X33405349Y-90054963D01*
X33220794Y-89286232D01*
X33172000Y-88621792D01*
X33172000Y-88268285D01*
X33757000Y-88268285D01*
X33757000Y-89023715D01*
X33904377Y-89764628D01*
X34193467Y-90462554D01*
X34613161Y-91090670D01*
X35147330Y-91624839D01*
X35775446Y-92044533D01*
X36473372Y-92333623D01*
X37214285Y-92481000D01*
X37969715Y-92481000D01*
X38710628Y-92333623D01*
X39408554Y-92044533D01*
X40036670Y-91624839D01*
X40570839Y-91090670D01*
X40990533Y-90462554D01*
X41279623Y-89764628D01*
X41427000Y-89023715D01*
X41427000Y-88268285D01*
X94971000Y-88268285D01*
X94971000Y-89023715D01*
X95118377Y-89764628D01*
X95407467Y-90462554D01*
X95827161Y-91090670D01*
X96361330Y-91624839D01*
X96989446Y-92044533D01*
X97687372Y-92333623D01*
X98428285Y-92481000D01*
X99183715Y-92481000D01*
X99924628Y-92333623D01*
X100622554Y-92044533D01*
X101250670Y-91624839D01*
X101784839Y-91090670D01*
X102204533Y-90462554D01*
X102493623Y-89764628D01*
X102641000Y-89023715D01*
X102641000Y-88268285D01*
X102535468Y-87737740D01*
X126277000Y-87737740D01*
X126277000Y-88030260D01*
X126334068Y-88317158D01*
X126446010Y-88587411D01*
X126608525Y-88830632D01*
X126815368Y-89037475D01*
X126989760Y-89154000D01*
X126815368Y-89270525D01*
X126608525Y-89477368D01*
X126446010Y-89720589D01*
X126334068Y-89990842D01*
X126277000Y-90277740D01*
X126277000Y-90570260D01*
X126334068Y-90857158D01*
X126446010Y-91127411D01*
X126608525Y-91370632D01*
X126815368Y-91577475D01*
X127058589Y-91739990D01*
X127328842Y-91851932D01*
X127615740Y-91909000D01*
X127908260Y-91909000D01*
X128195158Y-91851932D01*
X128465411Y-91739990D01*
X128708632Y-91577475D01*
X128915475Y-91370632D01*
X129032000Y-91196240D01*
X129148525Y-91370632D01*
X129355368Y-91577475D01*
X129598589Y-91739990D01*
X129868842Y-91851932D01*
X130155740Y-91909000D01*
X130448260Y-91909000D01*
X130735158Y-91851932D01*
X131005411Y-91739990D01*
X131248632Y-91577475D01*
X131380487Y-91445620D01*
X131402498Y-91518180D01*
X131461463Y-91628494D01*
X131540815Y-91725185D01*
X131637506Y-91804537D01*
X131747820Y-91863502D01*
X131867518Y-91899812D01*
X131992000Y-91912072D01*
X133692000Y-91912072D01*
X133816482Y-91899812D01*
X133936180Y-91863502D01*
X134046494Y-91804537D01*
X134143185Y-91725185D01*
X134222537Y-91628494D01*
X134281502Y-91518180D01*
X134317812Y-91398482D01*
X134330072Y-91274000D01*
X134330072Y-89574000D01*
X134317812Y-89449518D01*
X134281502Y-89329820D01*
X134222537Y-89219506D01*
X134143185Y-89122815D01*
X134046494Y-89043463D01*
X133936180Y-88984498D01*
X133863620Y-88962487D01*
X133995475Y-88830632D01*
X134157990Y-88587411D01*
X134269932Y-88317158D01*
X134327000Y-88030260D01*
X134327000Y-87737740D01*
X134269932Y-87450842D01*
X134157990Y-87180589D01*
X133995475Y-86937368D01*
X133788632Y-86730525D01*
X133545411Y-86568010D01*
X133275158Y-86456068D01*
X132988260Y-86399000D01*
X132695740Y-86399000D01*
X132408842Y-86456068D01*
X132138589Y-86568010D01*
X131895368Y-86730525D01*
X131688525Y-86937368D01*
X131572000Y-87111760D01*
X131455475Y-86937368D01*
X131248632Y-86730525D01*
X131005411Y-86568010D01*
X130735158Y-86456068D01*
X130448260Y-86399000D01*
X130155740Y-86399000D01*
X129868842Y-86456068D01*
X129598589Y-86568010D01*
X129355368Y-86730525D01*
X129148525Y-86937368D01*
X129032000Y-87111760D01*
X128915475Y-86937368D01*
X128708632Y-86730525D01*
X128465411Y-86568010D01*
X128195158Y-86456068D01*
X127908260Y-86399000D01*
X127615740Y-86399000D01*
X127328842Y-86456068D01*
X127058589Y-86568010D01*
X126815368Y-86730525D01*
X126608525Y-86937368D01*
X126446010Y-87180589D01*
X126334068Y-87450842D01*
X126277000Y-87737740D01*
X102535468Y-87737740D01*
X102493623Y-87527372D01*
X102204533Y-86829446D01*
X101992463Y-86512061D01*
X117583000Y-86512061D01*
X117583000Y-86715939D01*
X117622774Y-86915898D01*
X117700795Y-87104256D01*
X117814063Y-87273774D01*
X117958226Y-87417937D01*
X118127744Y-87531205D01*
X118316102Y-87609226D01*
X118516061Y-87649000D01*
X118719939Y-87649000D01*
X118919898Y-87609226D01*
X119108256Y-87531205D01*
X119277774Y-87417937D01*
X119421937Y-87273774D01*
X119535205Y-87104256D01*
X119613226Y-86915898D01*
X119653000Y-86715939D01*
X119653000Y-86512061D01*
X119613226Y-86312102D01*
X119535205Y-86123744D01*
X119421937Y-85954226D01*
X119378000Y-85910289D01*
X119378000Y-79845803D01*
X121182794Y-78041010D01*
X137349314Y-78041010D01*
X137352991Y-78078342D01*
X137352990Y-85648408D01*
X137349314Y-85685730D01*
X137352990Y-85723052D01*
X137352990Y-85723062D01*
X137363987Y-85834715D01*
X137397169Y-85944102D01*
X137407444Y-85977976D01*
X137478016Y-86110006D01*
X137506117Y-86144247D01*
X137572989Y-86225731D01*
X137601993Y-86249534D01*
X138032466Y-86680007D01*
X138056269Y-86709011D01*
X138122037Y-86762985D01*
X138171993Y-86803984D01*
X138219629Y-86829446D01*
X138304023Y-86874556D01*
X138447284Y-86918013D01*
X138558937Y-86929010D01*
X138558946Y-86929010D01*
X138596269Y-86932686D01*
X138633592Y-86929010D01*
X141123668Y-86929010D01*
X141160990Y-86932686D01*
X141198312Y-86929010D01*
X141198323Y-86929010D01*
X141309976Y-86918013D01*
X141453237Y-86874556D01*
X141585266Y-86803984D01*
X141700991Y-86709011D01*
X141724793Y-86680008D01*
X141771801Y-86633000D01*
X141833939Y-86633000D01*
X142033898Y-86593226D01*
X142222256Y-86515205D01*
X142391774Y-86401937D01*
X142535937Y-86257774D01*
X142649205Y-86088256D01*
X142727226Y-85899898D01*
X142767000Y-85699939D01*
X142767000Y-85496061D01*
X142727226Y-85296102D01*
X142649205Y-85107744D01*
X142535937Y-84938226D01*
X142391774Y-84794063D01*
X142222256Y-84680795D01*
X142188510Y-84666817D01*
X142265677Y-84522445D01*
X142330578Y-84308497D01*
X142347001Y-84141750D01*
X142352492Y-84085999D01*
X142351310Y-84074000D01*
X142352492Y-84062001D01*
X142330578Y-83839502D01*
X142310132Y-83772102D01*
X142265677Y-83625554D01*
X142160285Y-83428378D01*
X142018450Y-83255552D01*
X141975136Y-83220005D01*
X141959001Y-83203870D01*
X141959001Y-80501383D01*
X142138061Y-80537000D01*
X142341939Y-80537000D01*
X142541898Y-80497226D01*
X142730256Y-80419205D01*
X142899774Y-80305937D01*
X143043937Y-80161774D01*
X143157205Y-79992256D01*
X143235226Y-79803898D01*
X143275000Y-79603939D01*
X143275000Y-79400061D01*
X143235226Y-79200102D01*
X143157205Y-79011744D01*
X143043937Y-78842226D01*
X143000000Y-78798289D01*
X143000000Y-75082061D01*
X143237000Y-75082061D01*
X143237000Y-75285939D01*
X143276774Y-75485898D01*
X143354795Y-75674256D01*
X143468063Y-75843774D01*
X143612226Y-75987937D01*
X143781744Y-76101205D01*
X143970102Y-76179226D01*
X144170061Y-76219000D01*
X144232199Y-76219000D01*
X144782001Y-76768803D01*
X144782000Y-85148289D01*
X144738063Y-85192226D01*
X144624795Y-85361744D01*
X144546774Y-85550102D01*
X144507000Y-85750061D01*
X144507000Y-85953939D01*
X144546774Y-86153898D01*
X144624795Y-86342256D01*
X144738063Y-86511774D01*
X144882226Y-86655937D01*
X145051744Y-86769205D01*
X145240102Y-86847226D01*
X145440061Y-86887000D01*
X145643939Y-86887000D01*
X145843898Y-86847226D01*
X146032256Y-86769205D01*
X146201774Y-86655937D01*
X146345937Y-86511774D01*
X146459205Y-86342256D01*
X146537226Y-86153898D01*
X146577000Y-85953939D01*
X146577000Y-85750061D01*
X146537226Y-85550102D01*
X146459205Y-85361744D01*
X146345937Y-85192226D01*
X146302000Y-85148289D01*
X146302000Y-76491322D01*
X146305676Y-76453999D01*
X146302000Y-76416676D01*
X146302000Y-76416667D01*
X146291003Y-76305014D01*
X146247546Y-76161753D01*
X146176974Y-76029724D01*
X146082001Y-75913999D01*
X146053003Y-75890201D01*
X145854802Y-75692000D01*
X147193000Y-75692000D01*
X147193000Y-85852000D01*
X147195440Y-85876776D01*
X147202667Y-85900601D01*
X147214403Y-85922557D01*
X147230197Y-85941803D01*
X147249443Y-85957597D01*
X147271399Y-85969333D01*
X147295224Y-85976560D01*
X147320000Y-85979000D01*
X159004000Y-85979000D01*
X159028776Y-85976560D01*
X159052601Y-85969333D01*
X159074557Y-85957597D01*
X159093803Y-85941803D01*
X159109597Y-85922557D01*
X159121333Y-85900601D01*
X159128560Y-85876776D01*
X159131000Y-85852000D01*
X159131000Y-75692000D01*
X159128560Y-75667224D01*
X159121333Y-75643399D01*
X159109597Y-75621443D01*
X159093803Y-75602197D01*
X159074557Y-75586403D01*
X159052601Y-75574667D01*
X159028776Y-75567440D01*
X159004000Y-75565000D01*
X147320000Y-75565000D01*
X147295224Y-75567440D01*
X147271399Y-75574667D01*
X147249443Y-75586403D01*
X147230197Y-75602197D01*
X147214403Y-75621443D01*
X147202667Y-75643399D01*
X147195440Y-75667224D01*
X147193000Y-75692000D01*
X145854802Y-75692000D01*
X145307000Y-75144199D01*
X145307000Y-75082061D01*
X145267226Y-74882102D01*
X145189205Y-74693744D01*
X145075937Y-74524226D01*
X144931774Y-74380063D01*
X144762256Y-74266795D01*
X144573898Y-74188774D01*
X144373939Y-74149000D01*
X144170061Y-74149000D01*
X143970102Y-74188774D01*
X143781744Y-74266795D01*
X143612226Y-74380063D01*
X143468063Y-74524226D01*
X143354795Y-74693744D01*
X143276774Y-74882102D01*
X143237000Y-75082061D01*
X143000000Y-75082061D01*
X143000000Y-70510061D01*
X143237000Y-70510061D01*
X143237000Y-70713939D01*
X143276774Y-70913898D01*
X143354795Y-71102256D01*
X143468063Y-71271774D01*
X143612226Y-71415937D01*
X143781744Y-71529205D01*
X143970102Y-71607226D01*
X144170061Y-71647000D01*
X144373939Y-71647000D01*
X144573898Y-71607226D01*
X144762256Y-71529205D01*
X144931774Y-71415937D01*
X145075937Y-71271774D01*
X145189205Y-71102256D01*
X145267226Y-70913898D01*
X145307000Y-70713939D01*
X145307000Y-70510061D01*
X145267226Y-70310102D01*
X145189205Y-70121744D01*
X145075937Y-69952226D01*
X145032000Y-69908289D01*
X145032000Y-61233000D01*
X145135939Y-61233000D01*
X145335898Y-61193226D01*
X145524256Y-61115205D01*
X145693774Y-61001937D01*
X145837937Y-60857774D01*
X145951205Y-60688256D01*
X146029226Y-60499898D01*
X146038753Y-60452000D01*
X147193000Y-60452000D01*
X147193000Y-70612000D01*
X147195440Y-70636776D01*
X147202667Y-70660601D01*
X147214403Y-70682557D01*
X147230197Y-70701803D01*
X147249443Y-70717597D01*
X147271399Y-70729333D01*
X147295224Y-70736560D01*
X147320000Y-70739000D01*
X159004000Y-70739000D01*
X159028776Y-70736560D01*
X159052601Y-70729333D01*
X159074557Y-70717597D01*
X159093803Y-70701803D01*
X159109597Y-70682557D01*
X159121333Y-70660601D01*
X159128560Y-70636776D01*
X159131000Y-70612000D01*
X159131000Y-63134875D01*
X170561000Y-63134875D01*
X170561000Y-88138000D01*
X170563440Y-88162776D01*
X170570667Y-88186601D01*
X170582403Y-88208557D01*
X170598197Y-88227803D01*
X170617443Y-88243597D01*
X170639399Y-88255333D01*
X170663224Y-88262560D01*
X170687811Y-88265000D01*
X192023811Y-88296750D01*
X192048591Y-88294346D01*
X192072426Y-88287155D01*
X192094400Y-88275452D01*
X192113669Y-88259686D01*
X192129492Y-88240464D01*
X192141260Y-88218525D01*
X192148523Y-88194712D01*
X192151000Y-88169750D01*
X192151000Y-72136000D01*
X192148560Y-72111224D01*
X192141333Y-72087399D01*
X192129597Y-72065443D01*
X192113803Y-72046197D01*
X192094557Y-72030403D01*
X192072601Y-72018667D01*
X192048776Y-72011440D01*
X192024000Y-72009000D01*
X179197000Y-72009000D01*
X179197000Y-67785580D01*
X182838025Y-67785580D01*
X183294197Y-68357185D01*
X184094183Y-68797207D01*
X184964641Y-69072704D01*
X185872121Y-69173091D01*
X186781748Y-69094508D01*
X187658566Y-68839975D01*
X188468879Y-68419275D01*
X188561803Y-68357185D01*
X189017975Y-67785580D01*
X185928000Y-64695605D01*
X182838025Y-67785580D01*
X179197000Y-67785580D01*
X179197000Y-64460121D01*
X181270909Y-64460121D01*
X181349492Y-65369748D01*
X181604025Y-66246566D01*
X182024725Y-67056879D01*
X182086815Y-67149803D01*
X182658420Y-67605975D01*
X185748395Y-64516000D01*
X186107605Y-64516000D01*
X189197580Y-67605975D01*
X189769185Y-67149803D01*
X190209207Y-66349817D01*
X190484704Y-65479359D01*
X190585091Y-64571879D01*
X190506508Y-63662252D01*
X190251975Y-62785434D01*
X189831275Y-61975121D01*
X189769185Y-61882197D01*
X189197580Y-61426025D01*
X186107605Y-64516000D01*
X185748395Y-64516000D01*
X182658420Y-61426025D01*
X182086815Y-61882197D01*
X181646793Y-62682183D01*
X181371296Y-63552641D01*
X181270909Y-64460121D01*
X179197000Y-64460121D01*
X179197000Y-62992000D01*
X179194560Y-62967224D01*
X179187333Y-62943399D01*
X179175597Y-62921443D01*
X179159803Y-62902197D01*
X179140557Y-62886403D01*
X179118601Y-62874667D01*
X179094776Y-62867440D01*
X179067836Y-62865018D01*
X170685836Y-63007893D01*
X170661104Y-63010756D01*
X170637407Y-63018388D01*
X170615653Y-63030496D01*
X170596680Y-63046616D01*
X170581216Y-63066128D01*
X170569856Y-63088281D01*
X170563036Y-63112225D01*
X170561000Y-63134875D01*
X159131000Y-63134875D01*
X159131000Y-61246420D01*
X182838025Y-61246420D01*
X185928000Y-64336395D01*
X189017975Y-61246420D01*
X188561803Y-60674815D01*
X187761817Y-60234793D01*
X186891359Y-59959296D01*
X185983879Y-59858909D01*
X185074252Y-59937492D01*
X184197434Y-60192025D01*
X183387121Y-60612725D01*
X183294197Y-60674815D01*
X182838025Y-61246420D01*
X159131000Y-61246420D01*
X159131000Y-60452000D01*
X159128560Y-60427224D01*
X159121333Y-60403399D01*
X159109597Y-60381443D01*
X159093803Y-60362197D01*
X159074557Y-60346403D01*
X159052601Y-60334667D01*
X159028776Y-60327440D01*
X159004000Y-60325000D01*
X147320000Y-60325000D01*
X147295224Y-60327440D01*
X147271399Y-60334667D01*
X147249443Y-60346403D01*
X147230197Y-60362197D01*
X147214403Y-60381443D01*
X147202667Y-60403399D01*
X147195440Y-60427224D01*
X147193000Y-60452000D01*
X146038753Y-60452000D01*
X146069000Y-60299939D01*
X146069000Y-60096061D01*
X146029226Y-59896102D01*
X145951205Y-59707744D01*
X145837937Y-59538226D01*
X145693774Y-59394063D01*
X145524256Y-59280795D01*
X145335898Y-59202774D01*
X145135939Y-59163000D01*
X144932061Y-59163000D01*
X144732102Y-59202774D01*
X144543744Y-59280795D01*
X144374226Y-59394063D01*
X144230063Y-59538226D01*
X144116795Y-59707744D01*
X144061174Y-59842025D01*
X143760998Y-60142201D01*
X143732000Y-60165999D01*
X143708202Y-60194997D01*
X143708201Y-60194998D01*
X143637026Y-60281724D01*
X143566454Y-60413754D01*
X143551045Y-60464554D01*
X143522998Y-60557014D01*
X143513361Y-60654861D01*
X143508324Y-60706000D01*
X143512001Y-60743332D01*
X143512000Y-69908289D01*
X143468063Y-69952226D01*
X143354795Y-70121744D01*
X143276774Y-70310102D01*
X143237000Y-70510061D01*
X143000000Y-70510061D01*
X143000000Y-64965711D01*
X143043937Y-64921774D01*
X143157205Y-64752256D01*
X143235226Y-64563898D01*
X143275000Y-64363939D01*
X143275000Y-64160061D01*
X143235226Y-63960102D01*
X143157205Y-63771744D01*
X143043937Y-63602226D01*
X142899774Y-63458063D01*
X142730256Y-63344795D01*
X142541898Y-63266774D01*
X142341939Y-63227000D01*
X142138061Y-63227000D01*
X141938102Y-63266774D01*
X141749744Y-63344795D01*
X141580226Y-63458063D01*
X141436063Y-63602226D01*
X141322795Y-63771744D01*
X141244774Y-63960102D01*
X141205000Y-64160061D01*
X141205000Y-64363939D01*
X141244774Y-64563898D01*
X141322795Y-64752256D01*
X141436063Y-64921774D01*
X141480000Y-64965711D01*
X141480000Y-69249586D01*
X141446499Y-69239423D01*
X141224000Y-69217509D01*
X141001502Y-69239423D01*
X140787554Y-69304324D01*
X140590378Y-69409716D01*
X140417552Y-69551551D01*
X140275717Y-69724377D01*
X140170324Y-69921553D01*
X140105423Y-70135501D01*
X140089000Y-70302248D01*
X140089000Y-72427869D01*
X140060866Y-72456003D01*
X140017552Y-72491550D01*
X139875717Y-72664376D01*
X139773259Y-72856063D01*
X139770325Y-72861553D01*
X139705424Y-73075501D01*
X139683510Y-73297999D01*
X139689001Y-73353751D01*
X139689001Y-73895000D01*
X139598061Y-73895000D01*
X139398102Y-73934774D01*
X139209744Y-74012795D01*
X139040226Y-74126063D01*
X138896063Y-74270226D01*
X138782795Y-74439744D01*
X138704774Y-74628102D01*
X138665000Y-74828061D01*
X138665000Y-75031939D01*
X138704774Y-75231898D01*
X138782795Y-75420256D01*
X138896063Y-75589774D01*
X138940000Y-75633711D01*
X138940001Y-75750288D01*
X138896063Y-75794226D01*
X138782795Y-75963744D01*
X138704774Y-76152102D01*
X138665000Y-76352061D01*
X138665000Y-76414198D01*
X137601988Y-77477211D01*
X137572990Y-77501009D01*
X137549192Y-77530007D01*
X137549191Y-77530008D01*
X137478016Y-77616734D01*
X137407444Y-77748764D01*
X137400427Y-77771898D01*
X137363988Y-77892024D01*
X137353649Y-77997000D01*
X137349314Y-78041010D01*
X121182794Y-78041010D01*
X121655009Y-77568796D01*
X121684001Y-77545003D01*
X121707795Y-77516010D01*
X121707799Y-77516006D01*
X121778973Y-77429279D01*
X121778974Y-77429278D01*
X121849546Y-77297249D01*
X121893003Y-77153988D01*
X121904000Y-77042335D01*
X121904000Y-77042326D01*
X121907676Y-77005003D01*
X121904000Y-76967680D01*
X121904000Y-72796061D01*
X125965000Y-72796061D01*
X125965000Y-72999939D01*
X126004774Y-73199898D01*
X126082795Y-73388256D01*
X126196063Y-73557774D01*
X126240000Y-73601711D01*
X126240001Y-75496288D01*
X126196063Y-75540226D01*
X126082795Y-75709744D01*
X126004774Y-75898102D01*
X125965000Y-76098061D01*
X125965000Y-76301939D01*
X126004774Y-76501898D01*
X126082795Y-76690256D01*
X126196063Y-76859774D01*
X126340226Y-77003937D01*
X126509744Y-77117205D01*
X126698102Y-77195226D01*
X126898061Y-77235000D01*
X127101939Y-77235000D01*
X127301898Y-77195226D01*
X127490256Y-77117205D01*
X127659774Y-77003937D01*
X127803937Y-76859774D01*
X127917205Y-76690256D01*
X127995226Y-76501898D01*
X128035000Y-76301939D01*
X128035000Y-76098061D01*
X127995226Y-75898102D01*
X127917205Y-75709744D01*
X127803937Y-75540226D01*
X127760000Y-75496289D01*
X127760000Y-73601711D01*
X127803937Y-73557774D01*
X127917205Y-73388256D01*
X127995226Y-73199898D01*
X128035000Y-72999939D01*
X128035000Y-72796061D01*
X127995226Y-72596102D01*
X127917205Y-72407744D01*
X127803937Y-72238226D01*
X127659774Y-72094063D01*
X127490256Y-71980795D01*
X127301898Y-71902774D01*
X127101939Y-71863000D01*
X126898061Y-71863000D01*
X126698102Y-71902774D01*
X126509744Y-71980795D01*
X126340226Y-72094063D01*
X126196063Y-72238226D01*
X126082795Y-72407744D01*
X126004774Y-72596102D01*
X125965000Y-72796061D01*
X121904000Y-72796061D01*
X121904000Y-66757711D01*
X121947937Y-66713774D01*
X122061205Y-66544256D01*
X122139226Y-66355898D01*
X122179000Y-66155939D01*
X122179000Y-65952061D01*
X122139226Y-65752102D01*
X122061205Y-65563744D01*
X121947937Y-65394226D01*
X121803774Y-65250063D01*
X121634256Y-65136795D01*
X121445898Y-65058774D01*
X121245939Y-65019000D01*
X121042061Y-65019000D01*
X120842102Y-65058774D01*
X120653744Y-65136795D01*
X120484226Y-65250063D01*
X120340063Y-65394226D01*
X120226795Y-65563744D01*
X120148774Y-65752102D01*
X120109000Y-65952061D01*
X120109000Y-66155939D01*
X120148774Y-66355898D01*
X120226795Y-66544256D01*
X120340063Y-66713774D01*
X120384001Y-66757712D01*
X120384000Y-76690199D01*
X118106998Y-78967203D01*
X118078000Y-78991001D01*
X118054202Y-79019999D01*
X118054201Y-79020000D01*
X117983026Y-79106726D01*
X117912454Y-79238756D01*
X117868998Y-79382017D01*
X117854324Y-79531002D01*
X117858001Y-79568334D01*
X117858000Y-85910289D01*
X117814063Y-85954226D01*
X117700795Y-86123744D01*
X117622774Y-86312102D01*
X117583000Y-86512061D01*
X101992463Y-86512061D01*
X101784839Y-86201330D01*
X101250670Y-85667161D01*
X100622554Y-85247467D01*
X99924628Y-84958377D01*
X99183715Y-84811000D01*
X98428285Y-84811000D01*
X97687372Y-84958377D01*
X96989446Y-85247467D01*
X96361330Y-85667161D01*
X95827161Y-86201330D01*
X95407467Y-86829446D01*
X95118377Y-87527372D01*
X94971000Y-88268285D01*
X41427000Y-88268285D01*
X41279623Y-87527372D01*
X40990533Y-86829446D01*
X40570839Y-86201330D01*
X40036670Y-85667161D01*
X39408554Y-85247467D01*
X38710628Y-84958377D01*
X37969715Y-84811000D01*
X37214285Y-84811000D01*
X36473372Y-84958377D01*
X35775446Y-85247467D01*
X35147330Y-85667161D01*
X34613161Y-86201330D01*
X34193467Y-86829446D01*
X33904377Y-87527372D01*
X33757000Y-88268285D01*
X33172000Y-88268285D01*
X33172000Y-68447000D01*
X33655000Y-68447000D01*
X33655000Y-67439000D01*
X33635000Y-67439000D01*
X33635000Y-67185000D01*
X33655000Y-67185000D01*
X33655000Y-66177000D01*
X33909000Y-66177000D01*
X33909000Y-67185000D01*
X33929000Y-67185000D01*
X33929000Y-67439000D01*
X33909000Y-67439000D01*
X33909000Y-68447000D01*
X34409000Y-68447000D01*
X34627987Y-68400415D01*
X34833678Y-68312003D01*
X35018169Y-68185161D01*
X35174369Y-68024764D01*
X35296276Y-67836976D01*
X35376119Y-67613874D01*
X35249955Y-67439002D01*
X35376980Y-67439002D01*
X35376981Y-74631448D01*
X35373304Y-74668780D01*
X35376981Y-74706113D01*
X35387978Y-74817766D01*
X35401160Y-74861222D01*
X35431434Y-74961026D01*
X35502006Y-75093056D01*
X35573181Y-75179782D01*
X35596980Y-75208781D01*
X35625978Y-75232579D01*
X40443390Y-80049992D01*
X40399600Y-80270140D01*
X40399600Y-80562660D01*
X40456668Y-80849558D01*
X40568610Y-81119811D01*
X40731125Y-81363032D01*
X40937968Y-81569875D01*
X41181189Y-81732390D01*
X41451442Y-81844332D01*
X41738340Y-81901400D01*
X42030860Y-81901400D01*
X42317758Y-81844332D01*
X42588011Y-81732390D01*
X42831232Y-81569875D01*
X43038075Y-81363032D01*
X43154600Y-81188640D01*
X43271125Y-81363032D01*
X43477968Y-81569875D01*
X43721189Y-81732390D01*
X43991442Y-81844332D01*
X44278340Y-81901400D01*
X44570860Y-81901400D01*
X44857758Y-81844332D01*
X45128011Y-81732390D01*
X45371232Y-81569875D01*
X45578075Y-81363032D01*
X45699795Y-81180866D01*
X45769422Y-81297755D01*
X45964331Y-81513988D01*
X46197680Y-81688041D01*
X46460501Y-81813225D01*
X46607710Y-81857876D01*
X46837600Y-81736555D01*
X46837600Y-80543400D01*
X46817600Y-80543400D01*
X46817600Y-80289400D01*
X46837600Y-80289400D01*
X46837600Y-80269400D01*
X47091600Y-80269400D01*
X47091600Y-80289400D01*
X47111600Y-80289400D01*
X47111600Y-80543400D01*
X47091600Y-80543400D01*
X47091600Y-81736555D01*
X47321490Y-81857876D01*
X47468699Y-81813225D01*
X47731520Y-81688041D01*
X47863783Y-81589387D01*
X48376800Y-82102403D01*
X48400598Y-82131402D01*
X48516323Y-82226375D01*
X48648352Y-82296947D01*
X48791613Y-82340404D01*
X48903266Y-82351401D01*
X48903275Y-82351401D01*
X48940598Y-82355077D01*
X48977921Y-82351401D01*
X55657279Y-82351401D01*
X55694601Y-82355077D01*
X55731923Y-82351401D01*
X55731934Y-82351401D01*
X55843587Y-82340404D01*
X55986848Y-82296947D01*
X56118877Y-82226375D01*
X56234602Y-82131402D01*
X56258405Y-82102398D01*
X56270598Y-82090205D01*
X56299602Y-82066402D01*
X56394575Y-81950677D01*
X56465147Y-81818648D01*
X56508604Y-81675387D01*
X56519601Y-81563734D01*
X56519601Y-81563723D01*
X56523277Y-81526401D01*
X56519601Y-81489078D01*
X56519601Y-76129582D01*
X56549263Y-76173974D01*
X56693426Y-76318137D01*
X56862944Y-76431405D01*
X57051302Y-76509426D01*
X57251261Y-76549200D01*
X57455139Y-76549200D01*
X57655098Y-76509426D01*
X57843456Y-76431405D01*
X58012974Y-76318137D01*
X58157137Y-76173974D01*
X58270405Y-76004456D01*
X58348426Y-75816098D01*
X58388200Y-75616139D01*
X58388200Y-75412261D01*
X58348426Y-75212302D01*
X58270405Y-75023944D01*
X58157137Y-74854426D01*
X58113200Y-74810489D01*
X58113200Y-74320061D01*
X115297000Y-74320061D01*
X115297000Y-74523939D01*
X115336774Y-74723898D01*
X115414795Y-74912256D01*
X115528063Y-75081774D01*
X115672226Y-75225937D01*
X115841744Y-75339205D01*
X116030102Y-75417226D01*
X116200263Y-75451073D01*
X116567000Y-75891158D01*
X116567000Y-76047939D01*
X116606774Y-76247898D01*
X116684795Y-76436256D01*
X116798063Y-76605774D01*
X116942226Y-76749937D01*
X117111744Y-76863205D01*
X117300102Y-76941226D01*
X117500061Y-76981000D01*
X117703939Y-76981000D01*
X117903898Y-76941226D01*
X118092256Y-76863205D01*
X118261774Y-76749937D01*
X118405937Y-76605774D01*
X118519205Y-76436256D01*
X118597226Y-76247898D01*
X118637000Y-76047939D01*
X118637000Y-75844061D01*
X118597226Y-75644102D01*
X118519205Y-75455744D01*
X118405937Y-75286226D01*
X118261774Y-75142063D01*
X118092256Y-75028795D01*
X117903898Y-74950774D01*
X117733737Y-74916927D01*
X117367000Y-74476842D01*
X117367000Y-74320061D01*
X117327226Y-74120102D01*
X117249205Y-73931744D01*
X117135937Y-73762226D01*
X116991774Y-73618063D01*
X116822256Y-73504795D01*
X116633898Y-73426774D01*
X116433939Y-73387000D01*
X116230061Y-73387000D01*
X116030102Y-73426774D01*
X115841744Y-73504795D01*
X115672226Y-73618063D01*
X115528063Y-73762226D01*
X115414795Y-73931744D01*
X115336774Y-74120102D01*
X115297000Y-74320061D01*
X58113200Y-74320061D01*
X58113200Y-65467722D01*
X58116876Y-65430400D01*
X58113200Y-65393077D01*
X58113200Y-65393067D01*
X58102203Y-65281414D01*
X58058746Y-65138153D01*
X58024581Y-65074236D01*
X57988174Y-65006123D01*
X57916999Y-64919397D01*
X57893201Y-64890399D01*
X57864204Y-64866602D01*
X54248000Y-61250399D01*
X54248000Y-61188261D01*
X54208226Y-60988302D01*
X54130205Y-60799944D01*
X54016937Y-60630426D01*
X53872774Y-60486263D01*
X53703256Y-60372995D01*
X53514898Y-60294974D01*
X53314939Y-60255200D01*
X53111061Y-60255200D01*
X52911102Y-60294974D01*
X52722744Y-60372995D01*
X52553226Y-60486263D01*
X52450146Y-60589343D01*
X51071607Y-59210804D01*
X51047804Y-59181800D01*
X50932079Y-59086827D01*
X50800050Y-59016255D01*
X50656789Y-58972798D01*
X50545136Y-58961801D01*
X50545125Y-58961801D01*
X50507803Y-58958125D01*
X50470481Y-58961801D01*
X49611721Y-58961801D01*
X49574398Y-58958125D01*
X49537076Y-58961801D01*
X49537066Y-58961801D01*
X49425413Y-58972798D01*
X49282152Y-59016255D01*
X49150174Y-59086800D01*
X49072461Y-59086800D01*
X48872502Y-59126574D01*
X48684144Y-59204595D01*
X48514626Y-59317863D01*
X48370463Y-59462026D01*
X48257195Y-59631544D01*
X48179174Y-59819902D01*
X48139400Y-60019861D01*
X48139400Y-60223739D01*
X48179174Y-60423698D01*
X48257195Y-60612056D01*
X48370463Y-60781574D01*
X48514626Y-60925737D01*
X48606911Y-60987400D01*
X45050779Y-60987400D01*
X45070806Y-60962997D01*
X53431004Y-52602800D01*
X53460002Y-52579002D01*
X53554975Y-52463277D01*
X53625547Y-52331248D01*
X53669004Y-52187987D01*
X53680001Y-52076334D01*
X53680001Y-52076325D01*
X53683677Y-52039002D01*
X53680001Y-52001679D01*
X53680001Y-50455999D01*
X54460290Y-50455999D01*
X54504227Y-50499936D01*
X54673745Y-50613204D01*
X54862103Y-50691225D01*
X55062062Y-50730999D01*
X55265940Y-50730999D01*
X55465899Y-50691225D01*
X55654257Y-50613204D01*
X55823775Y-50499936D01*
X55967938Y-50355773D01*
X56081206Y-50186255D01*
X56159227Y-49997897D01*
X56199001Y-49797938D01*
X56199001Y-49594060D01*
X56159227Y-49394101D01*
X56152252Y-49377261D01*
X58401000Y-49377261D01*
X58401000Y-49581139D01*
X58440774Y-49781098D01*
X58518795Y-49969456D01*
X58632063Y-50138974D01*
X58776226Y-50283137D01*
X58945744Y-50396405D01*
X59134102Y-50474426D01*
X59334061Y-50514200D01*
X59396199Y-50514200D01*
X60167601Y-51285603D01*
X60191399Y-51314601D01*
X60217159Y-51335742D01*
X60283063Y-51434374D01*
X60427226Y-51578537D01*
X60596744Y-51691805D01*
X60785102Y-51769826D01*
X60985061Y-51809600D01*
X61188939Y-51809600D01*
X61388898Y-51769826D01*
X61577256Y-51691805D01*
X61746774Y-51578537D01*
X61890937Y-51434374D01*
X62004205Y-51264856D01*
X62082226Y-51076498D01*
X62122000Y-50876539D01*
X62122000Y-50672661D01*
X62082226Y-50472702D01*
X62004205Y-50284344D01*
X61890937Y-50114826D01*
X61746774Y-49970663D01*
X61577256Y-49857395D01*
X61388898Y-49779374D01*
X61188939Y-49739600D01*
X60985061Y-49739600D01*
X60806683Y-49775081D01*
X60471000Y-49439399D01*
X60471000Y-49428061D01*
X77451000Y-49428061D01*
X77451000Y-49631939D01*
X77490774Y-49831898D01*
X77568795Y-50020256D01*
X77682063Y-50189774D01*
X77826226Y-50333937D01*
X77995744Y-50447205D01*
X78184102Y-50525226D01*
X78384061Y-50565000D01*
X78587939Y-50565000D01*
X78787898Y-50525226D01*
X78976256Y-50447205D01*
X79145774Y-50333937D01*
X79289937Y-50189774D01*
X79403205Y-50020256D01*
X79423350Y-49971621D01*
X81868060Y-49971621D01*
X81868060Y-50175499D01*
X81907834Y-50375458D01*
X81985855Y-50563816D01*
X82099123Y-50733334D01*
X82243286Y-50877497D01*
X82412804Y-50990765D01*
X82601162Y-51068786D01*
X82801121Y-51108560D01*
X83004999Y-51108560D01*
X83204958Y-51068786D01*
X83393316Y-50990765D01*
X83562834Y-50877497D01*
X83631771Y-50808560D01*
X84600134Y-50808560D01*
X84931300Y-51139727D01*
X84931300Y-51237219D01*
X84971074Y-51437178D01*
X85049095Y-51625536D01*
X85162363Y-51795054D01*
X85306526Y-51939217D01*
X85476044Y-52052485D01*
X85664402Y-52130506D01*
X85864361Y-52170280D01*
X86068239Y-52170280D01*
X86255320Y-52133068D01*
X86255321Y-67165987D01*
X86251644Y-67203320D01*
X86255321Y-67240653D01*
X86266318Y-67352306D01*
X86268575Y-67359747D01*
X86309774Y-67495566D01*
X86380346Y-67627596D01*
X86411814Y-67665939D01*
X86475320Y-67743321D01*
X86504318Y-67767119D01*
X86849000Y-68111801D01*
X86849000Y-68173939D01*
X86888774Y-68373898D01*
X86966795Y-68562256D01*
X87080063Y-68731774D01*
X87224226Y-68875937D01*
X87393744Y-68989205D01*
X87582102Y-69067226D01*
X87782061Y-69107000D01*
X87985939Y-69107000D01*
X88185898Y-69067226D01*
X88374256Y-68989205D01*
X88543774Y-68875937D01*
X88687937Y-68731774D01*
X88801205Y-68562256D01*
X88879226Y-68373898D01*
X88919000Y-68173939D01*
X88919000Y-67970061D01*
X88879226Y-67770102D01*
X88801205Y-67581744D01*
X88687937Y-67412226D01*
X88543774Y-67268063D01*
X88374256Y-67154795D01*
X88185898Y-67076774D01*
X87985939Y-67037000D01*
X87923801Y-67037000D01*
X87775320Y-66888519D01*
X87775320Y-63906061D01*
X126981000Y-63906061D01*
X126981000Y-64109939D01*
X127020774Y-64309898D01*
X127098795Y-64498256D01*
X127212063Y-64667774D01*
X127356226Y-64811937D01*
X127525744Y-64925205D01*
X127714102Y-65003226D01*
X127914061Y-65043000D01*
X128117939Y-65043000D01*
X128317898Y-65003226D01*
X128506256Y-64925205D01*
X128675774Y-64811937D01*
X128819937Y-64667774D01*
X128933205Y-64498256D01*
X129011226Y-64309898D01*
X129051000Y-64109939D01*
X129051000Y-64047801D01*
X134135803Y-58962999D01*
X134137290Y-58962999D01*
X134070063Y-59030226D01*
X133956795Y-59199744D01*
X133878774Y-59388102D01*
X133839000Y-59588061D01*
X133839000Y-59791939D01*
X133878774Y-59991898D01*
X133956795Y-60180256D01*
X134070063Y-60349774D01*
X134114000Y-60393711D01*
X134114001Y-71590668D01*
X134110324Y-71628000D01*
X134114001Y-71665333D01*
X134114604Y-71671451D01*
X134093000Y-71780061D01*
X134093000Y-71983939D01*
X134132774Y-72183898D01*
X134210795Y-72372256D01*
X134324063Y-72541774D01*
X134468226Y-72685937D01*
X134637744Y-72799205D01*
X134826102Y-72877226D01*
X135026061Y-72917000D01*
X135229939Y-72917000D01*
X135429898Y-72877226D01*
X135618256Y-72799205D01*
X135787774Y-72685937D01*
X135931937Y-72541774D01*
X136045205Y-72372256D01*
X136123226Y-72183898D01*
X136163000Y-71983939D01*
X136163000Y-71780061D01*
X136123226Y-71580102D01*
X136045205Y-71391744D01*
X135931937Y-71222226D01*
X135787774Y-71078063D01*
X135634000Y-70975315D01*
X135634000Y-60393711D01*
X135677937Y-60349774D01*
X135791205Y-60180256D01*
X135869226Y-59991898D01*
X135909000Y-59791939D01*
X135909000Y-59588061D01*
X135869226Y-59388102D01*
X135791205Y-59199744D01*
X135677937Y-59030226D01*
X135610710Y-58962999D01*
X138590199Y-58962999D01*
X137156998Y-60396201D01*
X137128000Y-60419999D01*
X137104202Y-60448997D01*
X137104201Y-60448998D01*
X137033026Y-60535724D01*
X136962454Y-60667754D01*
X136939251Y-60744247D01*
X136918998Y-60811014D01*
X136914055Y-60861205D01*
X136904324Y-60960000D01*
X136908001Y-60997332D01*
X136908000Y-66352289D01*
X136864063Y-66396226D01*
X136750795Y-66565744D01*
X136672774Y-66754102D01*
X136633000Y-66954061D01*
X136633000Y-67157939D01*
X136672774Y-67357898D01*
X136750795Y-67546256D01*
X136864063Y-67715774D01*
X137008226Y-67859937D01*
X137177744Y-67973205D01*
X137366102Y-68051226D01*
X137566061Y-68091000D01*
X137769939Y-68091000D01*
X137969898Y-68051226D01*
X138158256Y-67973205D01*
X138327774Y-67859937D01*
X138471937Y-67715774D01*
X138585205Y-67546256D01*
X138663226Y-67357898D01*
X138703000Y-67157939D01*
X138703000Y-66954061D01*
X138663226Y-66754102D01*
X138585205Y-66565744D01*
X138471937Y-66396226D01*
X138428000Y-66352289D01*
X138428000Y-61274801D01*
X139739802Y-59963000D01*
X139801939Y-59963000D01*
X140001898Y-59923226D01*
X140190256Y-59845205D01*
X140359774Y-59731937D01*
X140503937Y-59587774D01*
X140617205Y-59418256D01*
X140695226Y-59229898D01*
X140735000Y-59029939D01*
X140735000Y-58962999D01*
X147042198Y-58962999D01*
X147047000Y-58967801D01*
X147047000Y-59029939D01*
X147086774Y-59229898D01*
X147164795Y-59418256D01*
X147278063Y-59587774D01*
X147422226Y-59731937D01*
X147591744Y-59845205D01*
X147780102Y-59923226D01*
X147980061Y-59963000D01*
X148183939Y-59963000D01*
X148383898Y-59923226D01*
X148572256Y-59845205D01*
X148741774Y-59731937D01*
X148885937Y-59587774D01*
X148999205Y-59418256D01*
X149077226Y-59229898D01*
X149117000Y-59029939D01*
X149117000Y-58826061D01*
X149077226Y-58626102D01*
X148999205Y-58437744D01*
X148885937Y-58268226D01*
X148741774Y-58124063D01*
X148572256Y-58010795D01*
X148383898Y-57932774D01*
X148183939Y-57893000D01*
X148121801Y-57893000D01*
X147920802Y-57692001D01*
X147897000Y-57662998D01*
X147781275Y-57568025D01*
X147649246Y-57497453D01*
X147505985Y-57453996D01*
X147394332Y-57442999D01*
X147394321Y-57442999D01*
X147356999Y-57439323D01*
X147319677Y-57442999D01*
X133858323Y-57442999D01*
X133821000Y-57439323D01*
X133783677Y-57442999D01*
X133783668Y-57442999D01*
X133672015Y-57453996D01*
X133528754Y-57497453D01*
X133396724Y-57568025D01*
X133338190Y-57616063D01*
X133281000Y-57662998D01*
X133257202Y-57691996D01*
X127976199Y-62973000D01*
X127914061Y-62973000D01*
X127714102Y-63012774D01*
X127525744Y-63090795D01*
X127356226Y-63204063D01*
X127212063Y-63348226D01*
X127098795Y-63517744D01*
X127020774Y-63706102D01*
X126981000Y-63906061D01*
X87775320Y-63906061D01*
X87775320Y-51872011D01*
X87819257Y-51828074D01*
X87932525Y-51658556D01*
X88010546Y-51470198D01*
X88050320Y-51270239D01*
X88050320Y-51066361D01*
X88010546Y-50866402D01*
X87932525Y-50678044D01*
X87856992Y-50565000D01*
X87879554Y-50565000D01*
X91675000Y-54360447D01*
X91675000Y-54457939D01*
X91714774Y-54657898D01*
X91792795Y-54846256D01*
X91906063Y-55015774D01*
X92050226Y-55159937D01*
X92219744Y-55273205D01*
X92408102Y-55351226D01*
X92608061Y-55391000D01*
X92811939Y-55391000D01*
X93011898Y-55351226D01*
X93200256Y-55273205D01*
X93369774Y-55159937D01*
X93513937Y-55015774D01*
X93627205Y-54846256D01*
X93705226Y-54657898D01*
X93745000Y-54457939D01*
X93745000Y-54254061D01*
X93705226Y-54054102D01*
X93627205Y-53865744D01*
X93513937Y-53696226D01*
X93369774Y-53552063D01*
X93200256Y-53438795D01*
X93011898Y-53360774D01*
X92811939Y-53321000D01*
X92714447Y-53321000D01*
X90980508Y-51587061D01*
X91802000Y-51587061D01*
X91802000Y-51790939D01*
X91841774Y-51990898D01*
X91919795Y-52179256D01*
X92033063Y-52348774D01*
X92177226Y-52492937D01*
X92346744Y-52606205D01*
X92535102Y-52684226D01*
X92735061Y-52724000D01*
X92938939Y-52724000D01*
X93138898Y-52684226D01*
X93327256Y-52606205D01*
X93496774Y-52492937D01*
X93640937Y-52348774D01*
X93754205Y-52179256D01*
X93832226Y-51990898D01*
X93872000Y-51790939D01*
X93872000Y-51693446D01*
X94492447Y-51073000D01*
X94589939Y-51073000D01*
X94789898Y-51033226D01*
X94978256Y-50955205D01*
X95147774Y-50841937D01*
X95291937Y-50697774D01*
X95405205Y-50528256D01*
X95483226Y-50339898D01*
X95523000Y-50139939D01*
X95523000Y-49936061D01*
X95483226Y-49736102D01*
X95405205Y-49547744D01*
X95291937Y-49378226D01*
X95147774Y-49234063D01*
X94978256Y-49120795D01*
X94789898Y-49042774D01*
X94589939Y-49003000D01*
X94386061Y-49003000D01*
X94186102Y-49042774D01*
X93997744Y-49120795D01*
X93828226Y-49234063D01*
X93684063Y-49378226D01*
X93570795Y-49547744D01*
X93492774Y-49736102D01*
X93453000Y-49936061D01*
X93453000Y-50033553D01*
X92832554Y-50654000D01*
X92735061Y-50654000D01*
X92535102Y-50693774D01*
X92346744Y-50771795D01*
X92177226Y-50885063D01*
X92033063Y-51029226D01*
X91919795Y-51198744D01*
X91841774Y-51387102D01*
X91802000Y-51587061D01*
X90980508Y-51587061D01*
X88919000Y-49525554D01*
X88919000Y-49428061D01*
X88879226Y-49228102D01*
X88801205Y-49039744D01*
X88687937Y-48870226D01*
X88543774Y-48726063D01*
X88374256Y-48612795D01*
X88185898Y-48534774D01*
X87985939Y-48495000D01*
X87782061Y-48495000D01*
X87582102Y-48534774D01*
X87393744Y-48612795D01*
X87224226Y-48726063D01*
X87080063Y-48870226D01*
X86966795Y-49039744D01*
X86888774Y-49228102D01*
X86849000Y-49428061D01*
X86849000Y-49631939D01*
X86888774Y-49831898D01*
X86966795Y-50020256D01*
X87042328Y-50133300D01*
X86913381Y-50133300D01*
X86713422Y-50173074D01*
X86525064Y-50251095D01*
X86515519Y-50257473D01*
X86456556Y-50218075D01*
X86268198Y-50140054D01*
X86068239Y-50100280D01*
X85970747Y-50100280D01*
X85449838Y-49579372D01*
X85426818Y-49551322D01*
X85314900Y-49459473D01*
X85187213Y-49391223D01*
X85048665Y-49349195D01*
X84940685Y-49338560D01*
X84904580Y-49335004D01*
X84868475Y-49338560D01*
X83631771Y-49338560D01*
X83562834Y-49269623D01*
X83393316Y-49156355D01*
X83204958Y-49078334D01*
X83004999Y-49038560D01*
X82801121Y-49038560D01*
X82601162Y-49078334D01*
X82412804Y-49156355D01*
X82243286Y-49269623D01*
X82099123Y-49413786D01*
X81985855Y-49583304D01*
X81907834Y-49771662D01*
X81868060Y-49971621D01*
X79423350Y-49971621D01*
X79481226Y-49831898D01*
X79521000Y-49631939D01*
X79521000Y-49569801D01*
X82965813Y-46124989D01*
X97065406Y-46124989D01*
X97063928Y-46140000D01*
X97063928Y-47840000D01*
X97076188Y-47964482D01*
X97112498Y-48084180D01*
X97171463Y-48194494D01*
X97250815Y-48291185D01*
X97347506Y-48370537D01*
X97457820Y-48429502D01*
X97530380Y-48451513D01*
X97398525Y-48583368D01*
X97236010Y-48826589D01*
X97124068Y-49096842D01*
X97067000Y-49383740D01*
X97067000Y-49676260D01*
X97124068Y-49963158D01*
X97236010Y-50233411D01*
X97398525Y-50476632D01*
X97605368Y-50683475D01*
X97848589Y-50845990D01*
X98118842Y-50957932D01*
X98405740Y-51015000D01*
X98698260Y-51015000D01*
X98985158Y-50957932D01*
X99255411Y-50845990D01*
X99498632Y-50683475D01*
X99705475Y-50476632D01*
X99822000Y-50302240D01*
X99938525Y-50476632D01*
X100145368Y-50683475D01*
X100388589Y-50845990D01*
X100658842Y-50957932D01*
X100945740Y-51015000D01*
X101238260Y-51015000D01*
X101525158Y-50957932D01*
X101795411Y-50845990D01*
X102038632Y-50683475D01*
X102245475Y-50476632D01*
X102367195Y-50294466D01*
X102436822Y-50411355D01*
X102631731Y-50627588D01*
X102865080Y-50801641D01*
X103127901Y-50926825D01*
X103275110Y-50971476D01*
X103505000Y-50850155D01*
X103505000Y-49657000D01*
X103485000Y-49657000D01*
X103485000Y-49403000D01*
X103505000Y-49403000D01*
X103505000Y-47117000D01*
X103485000Y-47117000D01*
X103485000Y-46863000D01*
X103505000Y-46863000D01*
X103505000Y-46843000D01*
X103759000Y-46843000D01*
X103759000Y-46863000D01*
X103779000Y-46863000D01*
X103779000Y-47117000D01*
X103759000Y-47117000D01*
X103759000Y-49403000D01*
X103779000Y-49403000D01*
X103779000Y-49657000D01*
X103759000Y-49657000D01*
X103759000Y-50850155D01*
X103978160Y-50965813D01*
X103961999Y-51047060D01*
X103961999Y-51250938D01*
X104001773Y-51450897D01*
X104079794Y-51639255D01*
X104193062Y-51808773D01*
X104236999Y-51852710D01*
X104237000Y-56605289D01*
X104193062Y-56649227D01*
X104079794Y-56818745D01*
X104001773Y-57007103D01*
X103961999Y-57207062D01*
X103961999Y-57410940D01*
X104001773Y-57610899D01*
X104079794Y-57799257D01*
X104193062Y-57968775D01*
X104337225Y-58112938D01*
X104506743Y-58226206D01*
X104695101Y-58304227D01*
X104895060Y-58344001D01*
X105098938Y-58344001D01*
X105298897Y-58304227D01*
X105487255Y-58226206D01*
X105656773Y-58112938D01*
X105800936Y-57968775D01*
X105914204Y-57799257D01*
X105992225Y-57610899D01*
X106031999Y-57410940D01*
X106031999Y-57207062D01*
X105992225Y-57007103D01*
X105914204Y-56818745D01*
X105800936Y-56649227D01*
X105756999Y-56605290D01*
X105756999Y-51852710D01*
X105800936Y-51808773D01*
X105914204Y-51639255D01*
X105992225Y-51450897D01*
X106031999Y-51250938D01*
X106031999Y-51047060D01*
X106025617Y-51014976D01*
X106025740Y-51015000D01*
X106318260Y-51015000D01*
X106605158Y-50957932D01*
X106875411Y-50845990D01*
X107118632Y-50683475D01*
X107325475Y-50476632D01*
X107442000Y-50302240D01*
X107558525Y-50476632D01*
X107765368Y-50683475D01*
X108008589Y-50845990D01*
X108278842Y-50957932D01*
X108565740Y-51015000D01*
X108858260Y-51015000D01*
X109145158Y-50957932D01*
X109415411Y-50845990D01*
X109658632Y-50683475D01*
X109865475Y-50476632D01*
X110027990Y-50233411D01*
X110139932Y-49963158D01*
X110197000Y-49676260D01*
X110197000Y-49549802D01*
X110744744Y-50097545D01*
X110702063Y-50140226D01*
X110588795Y-50309744D01*
X110510774Y-50498102D01*
X110471000Y-50698061D01*
X110471000Y-50901939D01*
X110510774Y-51101898D01*
X110588795Y-51290256D01*
X110702063Y-51459774D01*
X110846226Y-51603937D01*
X111015744Y-51717205D01*
X111204102Y-51795226D01*
X111404061Y-51835000D01*
X111607939Y-51835000D01*
X111807898Y-51795226D01*
X111996256Y-51717205D01*
X112165774Y-51603937D01*
X112309937Y-51459774D01*
X112423205Y-51290256D01*
X112501226Y-51101898D01*
X112541000Y-50901939D01*
X112541000Y-50698061D01*
X112501226Y-50498102D01*
X112423205Y-50309744D01*
X112309937Y-50140226D01*
X112266000Y-50096289D01*
X112266000Y-49821325D01*
X112269676Y-49784000D01*
X112266000Y-49746675D01*
X112266000Y-49746667D01*
X112255003Y-49635014D01*
X112211546Y-49491753D01*
X112140974Y-49359724D01*
X112046001Y-49243999D01*
X112017003Y-49220201D01*
X110153209Y-47356408D01*
X110197000Y-47136260D01*
X110197000Y-46843740D01*
X110143544Y-46574999D01*
X110778198Y-46574999D01*
X112988876Y-48785678D01*
X112789808Y-48984746D01*
X112761762Y-49007763D01*
X112669913Y-49119681D01*
X112601663Y-49247368D01*
X112578442Y-49323917D01*
X112559635Y-49385915D01*
X112545444Y-49530000D01*
X112549000Y-49566105D01*
X112549001Y-53881288D01*
X112480063Y-53950226D01*
X112366795Y-54119744D01*
X112288774Y-54308102D01*
X112249000Y-54508061D01*
X112249000Y-54711939D01*
X112288774Y-54911898D01*
X112366795Y-55100256D01*
X112480063Y-55269774D01*
X112624226Y-55413937D01*
X112793744Y-55527205D01*
X112982102Y-55605226D01*
X113182061Y-55645000D01*
X113385939Y-55645000D01*
X113585898Y-55605226D01*
X113774256Y-55527205D01*
X113943774Y-55413937D01*
X114087937Y-55269774D01*
X114201205Y-55100256D01*
X114279226Y-54911898D01*
X114284974Y-54883000D01*
X114401939Y-54883000D01*
X114601898Y-54843226D01*
X114790256Y-54765205D01*
X114959774Y-54651937D01*
X115103937Y-54507774D01*
X115217205Y-54338256D01*
X115295226Y-54149898D01*
X115325500Y-53997697D01*
X115333744Y-54003205D01*
X115522102Y-54081226D01*
X115722061Y-54121000D01*
X115925939Y-54121000D01*
X116125898Y-54081226D01*
X116314256Y-54003205D01*
X116332430Y-53991061D01*
X122672000Y-53991061D01*
X122672000Y-54194939D01*
X122711774Y-54394898D01*
X122789795Y-54583256D01*
X122903063Y-54752774D01*
X123047226Y-54896937D01*
X123216744Y-55010205D01*
X123405102Y-55088226D01*
X123605061Y-55128000D01*
X123808939Y-55128000D01*
X124008898Y-55088226D01*
X124197256Y-55010205D01*
X124366774Y-54896937D01*
X124410711Y-54853000D01*
X126287289Y-54853000D01*
X126331226Y-54896937D01*
X126500744Y-55010205D01*
X126689102Y-55088226D01*
X126889061Y-55128000D01*
X127092939Y-55128000D01*
X127292898Y-55088226D01*
X127481256Y-55010205D01*
X127650774Y-54896937D01*
X127794937Y-54752774D01*
X127908205Y-54583256D01*
X127986226Y-54394898D01*
X128026000Y-54194939D01*
X128026000Y-53991061D01*
X127986226Y-53791102D01*
X127908205Y-53602744D01*
X127794937Y-53433226D01*
X127650774Y-53289063D01*
X127481256Y-53175795D01*
X127292898Y-53097774D01*
X127092939Y-53058000D01*
X126889061Y-53058000D01*
X126689102Y-53097774D01*
X126500744Y-53175795D01*
X126331226Y-53289063D01*
X126287289Y-53333000D01*
X124410711Y-53333000D01*
X124366774Y-53289063D01*
X124197256Y-53175795D01*
X124008898Y-53097774D01*
X123808939Y-53058000D01*
X123605061Y-53058000D01*
X123405102Y-53097774D01*
X123216744Y-53175795D01*
X123047226Y-53289063D01*
X122903063Y-53433226D01*
X122789795Y-53602744D01*
X122711774Y-53791102D01*
X122672000Y-53991061D01*
X116332430Y-53991061D01*
X116483774Y-53889937D01*
X116627937Y-53745774D01*
X116741205Y-53576256D01*
X116819226Y-53387898D01*
X116849500Y-53235697D01*
X116857744Y-53241205D01*
X117046102Y-53319226D01*
X117246061Y-53359000D01*
X117449939Y-53359000D01*
X117649898Y-53319226D01*
X117838256Y-53241205D01*
X118007774Y-53127937D01*
X118151937Y-52983774D01*
X118265205Y-52814256D01*
X118343226Y-52625898D01*
X118373500Y-52473697D01*
X118381744Y-52479205D01*
X118570102Y-52557226D01*
X118770061Y-52597000D01*
X118973939Y-52597000D01*
X119173898Y-52557226D01*
X119362256Y-52479205D01*
X119531774Y-52365937D01*
X119675937Y-52221774D01*
X119789205Y-52052256D01*
X119867226Y-51863898D01*
X119899612Y-51701081D01*
X119923744Y-51717205D01*
X120112102Y-51795226D01*
X120312061Y-51835000D01*
X120515939Y-51835000D01*
X120715898Y-51795226D01*
X120904256Y-51717205D01*
X121073774Y-51603937D01*
X121217937Y-51459774D01*
X121331205Y-51290256D01*
X121409226Y-51101898D01*
X121449000Y-50901939D01*
X121449000Y-50804447D01*
X121650438Y-50603009D01*
X121665907Y-50603009D01*
X121647000Y-50698061D01*
X121647000Y-50901939D01*
X121686774Y-51101898D01*
X121764795Y-51290256D01*
X121878063Y-51459774D01*
X122022226Y-51603937D01*
X122191744Y-51717205D01*
X122380102Y-51795226D01*
X122580061Y-51835000D01*
X122783939Y-51835000D01*
X122983898Y-51795226D01*
X123172256Y-51717205D01*
X123341774Y-51603937D01*
X123410711Y-51535000D01*
X125693895Y-51535000D01*
X125730000Y-51538556D01*
X125766105Y-51535000D01*
X125874085Y-51524365D01*
X126012633Y-51482337D01*
X126140320Y-51414087D01*
X126252238Y-51322238D01*
X126275258Y-51294188D01*
X127766447Y-49803000D01*
X127863939Y-49803000D01*
X128063898Y-49763226D01*
X128252256Y-49685205D01*
X128421774Y-49571937D01*
X128565937Y-49427774D01*
X128679205Y-49258256D01*
X128757226Y-49069898D01*
X128797000Y-48869939D01*
X128797000Y-48666061D01*
X128757226Y-48466102D01*
X128679205Y-48277744D01*
X128565937Y-48108226D01*
X128421774Y-47964063D01*
X128252256Y-47850795D01*
X128063898Y-47772774D01*
X127863939Y-47733000D01*
X127660061Y-47733000D01*
X127460102Y-47772774D01*
X127271744Y-47850795D01*
X127102226Y-47964063D01*
X126958063Y-48108226D01*
X126844795Y-48277744D01*
X126766774Y-48466102D01*
X126727000Y-48666061D01*
X126727000Y-48763553D01*
X126483783Y-49006771D01*
X126511000Y-48869939D01*
X126511000Y-48666061D01*
X126471226Y-48466102D01*
X126393205Y-48277744D01*
X126279937Y-48108226D01*
X126135774Y-47964063D01*
X125966256Y-47850795D01*
X125777898Y-47772774D01*
X125577939Y-47733000D01*
X125374061Y-47733000D01*
X125174102Y-47772774D01*
X124985744Y-47850795D01*
X124816226Y-47964063D01*
X124672063Y-48108226D01*
X124558795Y-48277744D01*
X124480774Y-48466102D01*
X124441000Y-48666061D01*
X124441000Y-48763553D01*
X124197783Y-49006771D01*
X124225000Y-48869939D01*
X124225000Y-48666061D01*
X124185226Y-48466102D01*
X124107205Y-48277744D01*
X123993937Y-48108226D01*
X123849774Y-47964063D01*
X123680256Y-47850795D01*
X123491898Y-47772774D01*
X123291939Y-47733000D01*
X123088061Y-47733000D01*
X122888102Y-47772774D01*
X122699744Y-47850795D01*
X122530226Y-47964063D01*
X122386063Y-48108226D01*
X122272795Y-48277744D01*
X122194774Y-48466102D01*
X122155000Y-48666061D01*
X122155000Y-48733001D01*
X121939000Y-48733001D01*
X121939000Y-48666061D01*
X121899226Y-48466102D01*
X121821205Y-48277744D01*
X121707937Y-48108226D01*
X121563774Y-47964063D01*
X121394256Y-47850795D01*
X121205898Y-47772774D01*
X121005939Y-47733000D01*
X120802061Y-47733000D01*
X120602102Y-47772774D01*
X120413744Y-47850795D01*
X120244226Y-47964063D01*
X120151776Y-48056513D01*
X120055682Y-48085663D01*
X119927995Y-48153913D01*
X119816077Y-48245762D01*
X119793061Y-48273807D01*
X119609577Y-48457292D01*
X119535205Y-48277744D01*
X119421937Y-48108226D01*
X119277774Y-47964063D01*
X119108256Y-47850795D01*
X118919898Y-47772774D01*
X118719939Y-47733000D01*
X118516061Y-47733000D01*
X118316102Y-47772774D01*
X118127744Y-47850795D01*
X117958226Y-47964063D01*
X117814063Y-48108226D01*
X117700795Y-48277744D01*
X117622774Y-48466102D01*
X117583000Y-48666061D01*
X117583000Y-48763553D01*
X117339783Y-49006771D01*
X117367000Y-48869939D01*
X117367000Y-48666061D01*
X117327226Y-48466102D01*
X117249205Y-48277744D01*
X117135937Y-48108226D01*
X116991774Y-47964063D01*
X116822256Y-47850795D01*
X116633898Y-47772774D01*
X116433939Y-47733000D01*
X116230061Y-47733000D01*
X116030102Y-47772774D01*
X115841744Y-47850795D01*
X115672226Y-47964063D01*
X115528063Y-48108226D01*
X115414795Y-48277744D01*
X115336774Y-48466102D01*
X115297000Y-48666061D01*
X115297000Y-48763553D01*
X115053783Y-49006771D01*
X115081000Y-48869939D01*
X115081000Y-48666061D01*
X115041226Y-48466102D01*
X114963205Y-48277744D01*
X114849937Y-48108226D01*
X114705774Y-47964063D01*
X114536256Y-47850795D01*
X114347898Y-47772774D01*
X114147939Y-47733000D01*
X114085802Y-47733000D01*
X112477790Y-46124989D01*
X126781186Y-46124989D01*
X129427199Y-48771003D01*
X129450997Y-48800001D01*
X129566722Y-48894974D01*
X129698751Y-48965546D01*
X129796001Y-48995046D01*
X129796000Y-56192289D01*
X129752063Y-56236226D01*
X129638795Y-56405744D01*
X129560774Y-56594102D01*
X129521000Y-56794061D01*
X129521000Y-56856198D01*
X128012998Y-58364201D01*
X127984000Y-58387999D01*
X127960202Y-58416997D01*
X127960201Y-58416998D01*
X127889026Y-58503724D01*
X127818454Y-58635754D01*
X127795251Y-58712247D01*
X127774998Y-58779014D01*
X127764001Y-58890667D01*
X127760324Y-58928000D01*
X127764001Y-58965332D01*
X127764001Y-59240288D01*
X127720063Y-59284226D01*
X127606795Y-59453744D01*
X127528774Y-59642102D01*
X127489000Y-59842061D01*
X127489000Y-60045939D01*
X127528774Y-60245898D01*
X127606795Y-60434256D01*
X127720063Y-60603774D01*
X127864226Y-60747937D01*
X128033744Y-60861205D01*
X128222102Y-60939226D01*
X128422061Y-60979000D01*
X128625939Y-60979000D01*
X128825898Y-60939226D01*
X129014256Y-60861205D01*
X129183774Y-60747937D01*
X129327937Y-60603774D01*
X129441205Y-60434256D01*
X129519226Y-60245898D01*
X129559000Y-60045939D01*
X129559000Y-59842061D01*
X129519226Y-59642102D01*
X129441205Y-59453744D01*
X129327937Y-59284226D01*
X129285256Y-59241545D01*
X130595802Y-57931000D01*
X130657939Y-57931000D01*
X130857898Y-57891226D01*
X131046256Y-57813205D01*
X131215774Y-57699937D01*
X131359937Y-57555774D01*
X131473205Y-57386256D01*
X131551226Y-57197898D01*
X131591000Y-56997939D01*
X131591000Y-56794061D01*
X131551226Y-56594102D01*
X131473205Y-56405744D01*
X131359937Y-56236226D01*
X131316000Y-56192289D01*
X131316000Y-48574801D01*
X132627802Y-47263000D01*
X132689939Y-47263000D01*
X132889898Y-47223226D01*
X133078256Y-47145205D01*
X133247774Y-47031937D01*
X133391937Y-46887774D01*
X133505205Y-46718256D01*
X133583226Y-46529898D01*
X133623000Y-46329939D01*
X133623000Y-46262999D01*
X138702208Y-46262999D01*
X138704774Y-46275898D01*
X138782795Y-46464256D01*
X138896063Y-46633774D01*
X139040226Y-46777937D01*
X139209744Y-46891205D01*
X139398102Y-46969226D01*
X139598061Y-47009000D01*
X139801939Y-47009000D01*
X140001898Y-46969226D01*
X140190256Y-46891205D01*
X140359774Y-46777937D01*
X140430133Y-46707578D01*
X152636748Y-58914193D01*
X152659764Y-58942238D01*
X152710406Y-58983799D01*
X152771682Y-59034087D01*
X152899368Y-59102337D01*
X153037917Y-59144365D01*
X153182002Y-59158556D01*
X153218107Y-59155000D01*
X155989289Y-59155000D01*
X156058226Y-59223937D01*
X156227744Y-59337205D01*
X156416102Y-59415226D01*
X156616061Y-59455000D01*
X156819939Y-59455000D01*
X157019898Y-59415226D01*
X157208256Y-59337205D01*
X157377774Y-59223937D01*
X157421711Y-59180000D01*
X158966678Y-59180000D01*
X159004000Y-59183676D01*
X159041322Y-59180000D01*
X159041333Y-59180000D01*
X159152986Y-59169003D01*
X159296247Y-59125546D01*
X159428276Y-59054974D01*
X159544001Y-58960001D01*
X159554671Y-58947000D01*
X159613939Y-58947000D01*
X159813898Y-58907226D01*
X160002256Y-58829205D01*
X160171774Y-58715937D01*
X160315937Y-58571774D01*
X160429205Y-58402256D01*
X160507226Y-58213898D01*
X160547000Y-58013939D01*
X160547000Y-57810061D01*
X160507226Y-57610102D01*
X160429205Y-57421744D01*
X160315937Y-57252226D01*
X160171774Y-57108063D01*
X160002256Y-56994795D01*
X159813898Y-56916774D01*
X159613939Y-56877000D01*
X159410061Y-56877000D01*
X159210102Y-56916774D01*
X159021744Y-56994795D01*
X158852226Y-57108063D01*
X158708063Y-57252226D01*
X158594795Y-57421744D01*
X158516774Y-57610102D01*
X158506849Y-57660000D01*
X157421711Y-57660000D01*
X157377774Y-57616063D01*
X157208256Y-57502795D01*
X157019898Y-57424774D01*
X156819939Y-57385000D01*
X156616061Y-57385000D01*
X156416102Y-57424774D01*
X156227744Y-57502795D01*
X156058226Y-57616063D01*
X155989289Y-57685000D01*
X153486449Y-57685000D01*
X149801510Y-54000061D01*
X164319000Y-54000061D01*
X164319000Y-54203939D01*
X164358774Y-54403898D01*
X164436795Y-54592256D01*
X164550063Y-54761774D01*
X164694226Y-54905937D01*
X164863744Y-55019205D01*
X165052102Y-55097226D01*
X165252061Y-55137000D01*
X165455939Y-55137000D01*
X165655898Y-55097226D01*
X165844256Y-55019205D01*
X166013774Y-54905937D01*
X166057711Y-54862000D01*
X169888678Y-54862000D01*
X169926000Y-54865676D01*
X169963322Y-54862000D01*
X169963333Y-54862000D01*
X170074986Y-54851003D01*
X170218247Y-54807546D01*
X170350276Y-54736974D01*
X170466001Y-54642001D01*
X170489804Y-54612998D01*
X171058635Y-54044167D01*
X171148102Y-54081226D01*
X171348061Y-54121000D01*
X171551939Y-54121000D01*
X171751898Y-54081226D01*
X171940256Y-54003205D01*
X172109774Y-53889937D01*
X172253937Y-53745774D01*
X172367205Y-53576256D01*
X172445226Y-53387898D01*
X172485000Y-53187939D01*
X172485000Y-52984061D01*
X172445226Y-52784102D01*
X172367205Y-52595744D01*
X172253937Y-52426226D01*
X172109774Y-52282063D01*
X171940256Y-52168795D01*
X171751898Y-52090774D01*
X171551939Y-52051000D01*
X171348061Y-52051000D01*
X171148102Y-52090774D01*
X170959744Y-52168795D01*
X170790226Y-52282063D01*
X170710158Y-52362131D01*
X170679812Y-52371336D01*
X170649753Y-52380454D01*
X170517723Y-52451026D01*
X170434083Y-52519668D01*
X170401999Y-52545999D01*
X170378201Y-52574997D01*
X169611199Y-53342000D01*
X166057711Y-53342000D01*
X166013774Y-53298063D01*
X165844256Y-53184795D01*
X165655898Y-53106774D01*
X165455939Y-53067000D01*
X165252061Y-53067000D01*
X165052102Y-53106774D01*
X164863744Y-53184795D01*
X164694226Y-53298063D01*
X164550063Y-53442226D01*
X164436795Y-53611744D01*
X164358774Y-53800102D01*
X164319000Y-54000061D01*
X149801510Y-54000061D01*
X143950510Y-48149061D01*
X147546000Y-48149061D01*
X147546000Y-48352939D01*
X147585774Y-48552898D01*
X147663795Y-48741256D01*
X147683158Y-48770235D01*
X147672795Y-48785744D01*
X147594774Y-48974102D01*
X147555000Y-49174061D01*
X147555000Y-49377939D01*
X147594774Y-49577898D01*
X147672795Y-49766256D01*
X147786063Y-49935774D01*
X147930226Y-50079937D01*
X148099744Y-50193205D01*
X148288102Y-50271226D01*
X148488061Y-50311000D01*
X148691939Y-50311000D01*
X148891898Y-50271226D01*
X149080256Y-50193205D01*
X149249774Y-50079937D01*
X149293711Y-50036000D01*
X150076678Y-50036000D01*
X150114000Y-50039676D01*
X150151322Y-50036000D01*
X150151333Y-50036000D01*
X150262986Y-50025003D01*
X150406247Y-49981546D01*
X150538276Y-49910974D01*
X150654001Y-49816001D01*
X150677804Y-49786997D01*
X152947802Y-47517000D01*
X153009939Y-47517000D01*
X153209898Y-47477226D01*
X153398256Y-47399205D01*
X153567774Y-47285937D01*
X153711937Y-47141774D01*
X153825205Y-46972256D01*
X153903226Y-46783898D01*
X153943000Y-46583939D01*
X153943000Y-46516999D01*
X159742198Y-46516999D01*
X161017000Y-47791802D01*
X161017000Y-47853939D01*
X161056774Y-48053898D01*
X161134795Y-48242256D01*
X161248063Y-48411774D01*
X161392226Y-48555937D01*
X161561744Y-48669205D01*
X161750102Y-48747226D01*
X161950061Y-48787000D01*
X162153939Y-48787000D01*
X162353898Y-48747226D01*
X162542256Y-48669205D01*
X162711774Y-48555937D01*
X162855937Y-48411774D01*
X162969205Y-48242256D01*
X163047226Y-48053898D01*
X163087000Y-47853939D01*
X163087000Y-47650061D01*
X163047226Y-47450102D01*
X162969205Y-47261744D01*
X162855937Y-47092226D01*
X162711774Y-46948063D01*
X162542256Y-46834795D01*
X162353898Y-46756774D01*
X162153939Y-46717000D01*
X162091802Y-46717000D01*
X160620803Y-45246001D01*
X160597000Y-45216998D01*
X160481275Y-45122025D01*
X160349246Y-45051453D01*
X160205985Y-45007996D01*
X160094332Y-44996999D01*
X160094321Y-44996999D01*
X160056999Y-44993323D01*
X160019677Y-44996999D01*
X152597321Y-44996999D01*
X152559998Y-44993323D01*
X152522675Y-44996999D01*
X152522666Y-44996999D01*
X152411013Y-45007996D01*
X152268181Y-45051323D01*
X152267752Y-45051453D01*
X152135722Y-45122025D01*
X152052082Y-45190667D01*
X152019998Y-45216998D01*
X151996200Y-45245996D01*
X149751197Y-47491000D01*
X149284711Y-47491000D01*
X149240774Y-47447063D01*
X149071256Y-47333795D01*
X148882898Y-47255774D01*
X148682939Y-47216000D01*
X148479061Y-47216000D01*
X148279102Y-47255774D01*
X148090744Y-47333795D01*
X147921226Y-47447063D01*
X147777063Y-47591226D01*
X147663795Y-47760744D01*
X147585774Y-47949102D01*
X147546000Y-48149061D01*
X143950510Y-48149061D01*
X138238341Y-42436893D01*
X138215320Y-42408842D01*
X138103402Y-42316993D01*
X137975715Y-42248743D01*
X137837167Y-42206715D01*
X137729187Y-42196080D01*
X137693082Y-42192524D01*
X137656977Y-42196080D01*
X95143051Y-42196080D01*
X95074114Y-42127143D01*
X94904596Y-42013875D01*
X94716238Y-41935854D01*
X94516279Y-41896080D01*
X94312401Y-41896080D01*
X94112442Y-41935854D01*
X93924084Y-42013875D01*
X93754566Y-42127143D01*
X93610403Y-42271306D01*
X93497135Y-42440824D01*
X93419114Y-42629182D01*
X93379340Y-42829141D01*
X93379340Y-43033019D01*
X93419114Y-43232978D01*
X93497135Y-43421336D01*
X93610403Y-43590854D01*
X93754566Y-43735017D01*
X93924084Y-43848285D01*
X94112442Y-43926306D01*
X94312401Y-43966080D01*
X94516279Y-43966080D01*
X94716238Y-43926306D01*
X94904596Y-43848285D01*
X95074114Y-43735017D01*
X95143051Y-43666080D01*
X137388636Y-43666080D01*
X138465555Y-44742999D01*
X130330084Y-44742999D01*
X130314263Y-44730015D01*
X130182234Y-44659443D01*
X130038973Y-44615986D01*
X129927320Y-44604989D01*
X127133309Y-44604989D01*
X127095987Y-44601313D01*
X127058665Y-44604989D01*
X82688333Y-44604989D01*
X82651010Y-44601313D01*
X82613687Y-44604989D01*
X82613678Y-44604989D01*
X82502025Y-44615986D01*
X82358764Y-44659443D01*
X82226734Y-44730015D01*
X82143094Y-44798657D01*
X82111010Y-44824988D01*
X82087212Y-44853986D01*
X78446199Y-48495000D01*
X78384061Y-48495000D01*
X78184102Y-48534774D01*
X77995744Y-48612795D01*
X77826226Y-48726063D01*
X77682063Y-48870226D01*
X77568795Y-49039744D01*
X77490774Y-49228102D01*
X77451000Y-49428061D01*
X60471000Y-49428061D01*
X60471000Y-49377261D01*
X60431226Y-49177302D01*
X60353205Y-48988944D01*
X60239937Y-48819426D01*
X60095774Y-48675263D01*
X59926256Y-48561995D01*
X59737898Y-48483974D01*
X59537939Y-48444200D01*
X59334061Y-48444200D01*
X59134102Y-48483974D01*
X58945744Y-48561995D01*
X58776226Y-48675263D01*
X58632063Y-48819426D01*
X58518795Y-48988944D01*
X58440774Y-49177302D01*
X58401000Y-49377261D01*
X56152252Y-49377261D01*
X56081206Y-49205743D01*
X55967938Y-49036225D01*
X55823775Y-48892062D01*
X55654257Y-48778794D01*
X55465899Y-48700773D01*
X55265940Y-48660999D01*
X55062062Y-48660999D01*
X54862103Y-48700773D01*
X54673745Y-48778794D01*
X54504227Y-48892062D01*
X54460290Y-48935999D01*
X52957334Y-48935999D01*
X52920001Y-48932322D01*
X52882668Y-48935999D01*
X52771015Y-48946996D01*
X52627754Y-48990453D01*
X52495725Y-49061025D01*
X52380000Y-49155998D01*
X52285027Y-49271723D01*
X52214455Y-49403752D01*
X52170998Y-49547013D01*
X52156324Y-49695999D01*
X52160001Y-49733332D01*
X52160002Y-51724198D01*
X51530956Y-52353245D01*
X51459774Y-52282063D01*
X51290256Y-52168795D01*
X51101898Y-52090774D01*
X50901939Y-52051000D01*
X50698061Y-52051000D01*
X50498102Y-52090774D01*
X50309744Y-52168795D01*
X50140226Y-52282063D01*
X50096289Y-52326000D01*
X49764320Y-52326000D01*
X49726997Y-52322324D01*
X49689674Y-52326000D01*
X49689665Y-52326000D01*
X49578012Y-52336997D01*
X49434751Y-52380454D01*
X49302722Y-52451026D01*
X49186997Y-52545999D01*
X49163199Y-52574997D01*
X42197997Y-59540200D01*
X42168999Y-59563998D01*
X42145201Y-59592996D01*
X42145200Y-59592997D01*
X42074025Y-59679723D01*
X42003453Y-59811753D01*
X41995008Y-59839595D01*
X41959996Y-59955013D01*
X41948999Y-60066666D01*
X41948999Y-60066677D01*
X41945323Y-60103999D01*
X41948999Y-60141321D01*
X41948999Y-60762679D01*
X41945323Y-60800001D01*
X41948999Y-60837323D01*
X41948999Y-60837333D01*
X41959996Y-60948986D01*
X42003453Y-61092247D01*
X42074025Y-61224277D01*
X42111384Y-61269799D01*
X42168998Y-61340002D01*
X42198001Y-61363805D01*
X43092599Y-62258403D01*
X43116397Y-62287401D01*
X43145395Y-62311199D01*
X43232122Y-62382374D01*
X43364151Y-62452946D01*
X43507412Y-62496403D01*
X43656398Y-62511077D01*
X43693731Y-62507400D01*
X48980057Y-62507400D01*
X49094848Y-62584101D01*
X49283206Y-62662122D01*
X49483165Y-62701896D01*
X49602734Y-62701896D01*
X49522344Y-62735195D01*
X49352826Y-62848463D01*
X49210976Y-62990313D01*
X49123939Y-62973000D01*
X48920061Y-62973000D01*
X48720102Y-63012774D01*
X48531744Y-63090795D01*
X48362226Y-63204063D01*
X48218063Y-63348226D01*
X48104795Y-63517744D01*
X48026774Y-63706102D01*
X47987000Y-63906061D01*
X47987000Y-64109939D01*
X48026774Y-64309898D01*
X48104795Y-64498256D01*
X48117672Y-64517528D01*
X47722400Y-64912801D01*
X41657237Y-64912801D01*
X41686026Y-64843298D01*
X41725800Y-64643339D01*
X41725800Y-64439461D01*
X41686026Y-64239502D01*
X41608005Y-64051144D01*
X41494737Y-63881626D01*
X41350574Y-63737463D01*
X41181056Y-63624195D01*
X40992698Y-63546174D01*
X40847575Y-63517307D01*
X40631901Y-63301634D01*
X40631901Y-61060386D01*
X40714106Y-60937357D01*
X40792127Y-60748999D01*
X40831901Y-60549040D01*
X40831901Y-60345162D01*
X40792127Y-60145203D01*
X40714106Y-59956845D01*
X40600838Y-59787327D01*
X40456675Y-59643164D01*
X40287157Y-59529896D01*
X40098799Y-59451875D01*
X39898840Y-59412101D01*
X39694962Y-59412101D01*
X39495003Y-59451875D01*
X39306645Y-59529896D01*
X39137127Y-59643164D01*
X38992964Y-59787327D01*
X38879696Y-59956845D01*
X38801675Y-60145203D01*
X38761901Y-60345162D01*
X38761901Y-60549040D01*
X38801675Y-60748999D01*
X38879696Y-60937357D01*
X38961901Y-61060386D01*
X38961902Y-63606473D01*
X38957861Y-63647501D01*
X38973983Y-63811189D01*
X39021729Y-63968587D01*
X39050274Y-64021990D01*
X37000920Y-64021990D01*
X36963597Y-64018314D01*
X36926274Y-64021990D01*
X36926265Y-64021990D01*
X36814612Y-64032987D01*
X36671351Y-64076444D01*
X36539322Y-64147016D01*
X36539320Y-64147017D01*
X36539321Y-64147017D01*
X36452594Y-64218191D01*
X36452590Y-64218195D01*
X36423597Y-64241989D01*
X36399803Y-64270982D01*
X35625982Y-65044805D01*
X35596979Y-65068607D01*
X35549693Y-65126226D01*
X35502006Y-65184332D01*
X35458436Y-65265845D01*
X35431434Y-65316362D01*
X35387977Y-65459623D01*
X35376980Y-65571276D01*
X35376980Y-65571286D01*
X35373304Y-65608608D01*
X35376980Y-65645930D01*
X35376980Y-67184998D01*
X35249955Y-67184998D01*
X35376119Y-67010126D01*
X35296276Y-66787024D01*
X35174369Y-66599236D01*
X35018169Y-66438839D01*
X34833678Y-66311997D01*
X34627987Y-66223585D01*
X34409000Y-66177000D01*
X33909000Y-66177000D01*
X33655000Y-66177000D01*
X33172000Y-66177000D01*
X33172000Y-59807000D01*
X33655000Y-59807000D01*
X33655000Y-58799000D01*
X33909000Y-58799000D01*
X33909000Y-59807000D01*
X34409000Y-59807000D01*
X34627987Y-59760415D01*
X34833678Y-59672003D01*
X35018169Y-59545161D01*
X35174369Y-59384764D01*
X35296276Y-59196976D01*
X35374710Y-58977810D01*
X36318036Y-58977810D01*
X36401937Y-59210864D01*
X36526953Y-59402441D01*
X36674258Y-59552985D01*
X36611259Y-59647269D01*
X36538892Y-59821978D01*
X36502000Y-60007448D01*
X36502000Y-60196552D01*
X36538892Y-60382022D01*
X36611259Y-60556731D01*
X36716319Y-60713964D01*
X36850036Y-60847681D01*
X37007269Y-60952741D01*
X37181978Y-61025108D01*
X37367448Y-61062000D01*
X37556552Y-61062000D01*
X37742022Y-61025108D01*
X37916731Y-60952741D01*
X38073964Y-60847681D01*
X38207681Y-60713964D01*
X38312741Y-60556731D01*
X38385108Y-60382022D01*
X38422000Y-60196552D01*
X38422000Y-60007448D01*
X38387101Y-59832000D01*
X38614000Y-59832000D01*
X38837865Y-59784934D01*
X39048246Y-59695099D01*
X39237059Y-59565947D01*
X39397047Y-59402441D01*
X39522063Y-59210864D01*
X39605964Y-58977810D01*
X39480163Y-58799000D01*
X38089000Y-58799000D01*
X38089000Y-58819000D01*
X37835000Y-58819000D01*
X37835000Y-58799000D01*
X36443837Y-58799000D01*
X36318036Y-58977810D01*
X35374710Y-58977810D01*
X35376119Y-58973874D01*
X35249954Y-58799000D01*
X33909000Y-58799000D01*
X33655000Y-58799000D01*
X33635000Y-58799000D01*
X33635000Y-58545000D01*
X33655000Y-58545000D01*
X33655000Y-57537000D01*
X33909000Y-57537000D01*
X33909000Y-58545000D01*
X35249954Y-58545000D01*
X35376119Y-58370126D01*
X35374711Y-58366190D01*
X36318036Y-58366190D01*
X36443837Y-58545000D01*
X37835000Y-58545000D01*
X37835000Y-57512000D01*
X38089000Y-57512000D01*
X38089000Y-58545000D01*
X39480163Y-58545000D01*
X39605964Y-58366190D01*
X39522063Y-58133136D01*
X39397047Y-57941559D01*
X39237059Y-57778053D01*
X39048246Y-57648901D01*
X38837865Y-57559066D01*
X38614000Y-57512000D01*
X38089000Y-57512000D01*
X37835000Y-57512000D01*
X37310000Y-57512000D01*
X37086135Y-57559066D01*
X36875754Y-57648901D01*
X36686941Y-57778053D01*
X36526953Y-57941559D01*
X36401937Y-58133136D01*
X36318036Y-58366190D01*
X35374711Y-58366190D01*
X35296276Y-58147024D01*
X35174369Y-57959236D01*
X35018169Y-57798839D01*
X34833678Y-57671997D01*
X34627987Y-57583585D01*
X34409000Y-57537000D01*
X33909000Y-57537000D01*
X33655000Y-57537000D01*
X33172000Y-57537000D01*
X33172000Y-52984061D01*
X37471400Y-52984061D01*
X37471400Y-53187939D01*
X37511174Y-53387898D01*
X37589195Y-53576256D01*
X37702463Y-53745774D01*
X37846626Y-53889937D01*
X38016144Y-54003205D01*
X38204502Y-54081226D01*
X38404461Y-54121000D01*
X38466598Y-54121000D01*
X39123210Y-54777613D01*
X39123210Y-55136677D01*
X39119533Y-55174010D01*
X39134207Y-55322996D01*
X39177664Y-55466257D01*
X39248236Y-55598286D01*
X39343209Y-55714011D01*
X39458934Y-55808984D01*
X39590963Y-55879556D01*
X39734224Y-55923013D01*
X39883210Y-55937687D01*
X39920543Y-55934010D01*
X40152279Y-55934010D01*
X40196216Y-55977947D01*
X40365734Y-56091215D01*
X40554092Y-56169236D01*
X40754051Y-56209010D01*
X40957929Y-56209010D01*
X41157888Y-56169236D01*
X41346246Y-56091215D01*
X41515764Y-55977947D01*
X41659927Y-55833784D01*
X41773195Y-55664266D01*
X41851216Y-55475908D01*
X41890990Y-55275949D01*
X41890990Y-55072071D01*
X41851216Y-54872112D01*
X41773195Y-54683754D01*
X41659927Y-54514236D01*
X41515764Y-54370073D01*
X41346246Y-54256805D01*
X41157888Y-54178784D01*
X40957929Y-54139010D01*
X40754051Y-54139010D01*
X40589135Y-54171814D01*
X40588756Y-54170563D01*
X40518184Y-54038534D01*
X40486610Y-54000061D01*
X40447009Y-53951806D01*
X40447005Y-53951802D01*
X40423211Y-53922809D01*
X40394218Y-53899015D01*
X39541400Y-53046198D01*
X39541400Y-52984061D01*
X39501626Y-52784102D01*
X39423605Y-52595744D01*
X39310337Y-52426226D01*
X39166174Y-52282063D01*
X38996656Y-52168795D01*
X38808298Y-52090774D01*
X38608339Y-52051000D01*
X38404461Y-52051000D01*
X38204502Y-52090774D01*
X38016144Y-52168795D01*
X37846626Y-52282063D01*
X37702463Y-52426226D01*
X37589195Y-52595744D01*
X37511174Y-52784102D01*
X37471400Y-52984061D01*
X33172000Y-52984061D01*
X33172000Y-41431392D01*
X33208333Y-41024285D01*
X33757000Y-41024285D01*
X33757000Y-41779715D01*
X33904377Y-42520628D01*
X34193467Y-43218554D01*
X34613161Y-43846670D01*
X35147330Y-44380839D01*
X35775446Y-44800533D01*
X36473372Y-45089623D01*
X37214285Y-45237000D01*
X37969715Y-45237000D01*
X38710628Y-45089623D01*
X39408554Y-44800533D01*
X40036670Y-44380839D01*
X40570839Y-43846670D01*
X40990533Y-43218554D01*
X41279623Y-42520628D01*
X41427000Y-41779715D01*
X41427000Y-41024285D01*
X185141000Y-41024285D01*
X185141000Y-41779715D01*
X185288377Y-42520628D01*
X185577467Y-43218554D01*
X185997161Y-43846670D01*
X186531330Y-44380839D01*
X187159446Y-44800533D01*
X187857372Y-45089623D01*
X188598285Y-45237000D01*
X189353715Y-45237000D01*
X190094628Y-45089623D01*
X190792554Y-44800533D01*
X191420670Y-44380839D01*
X191954839Y-43846670D01*
X192374533Y-43218554D01*
X192663623Y-42520628D01*
X192811000Y-41779715D01*
X192811000Y-41024285D01*
X192663623Y-40283372D01*
X192374533Y-39585446D01*
X191954839Y-38957330D01*
X191420670Y-38423161D01*
X190792554Y-38003467D01*
X190094628Y-37714377D01*
X189353715Y-37567000D01*
X188598285Y-37567000D01*
X187857372Y-37714377D01*
X187159446Y-38003467D01*
X186531330Y-38423161D01*
X185997161Y-38957330D01*
X185577467Y-39585446D01*
X185288377Y-40283372D01*
X185141000Y-41024285D01*
X41427000Y-41024285D01*
X41279623Y-40283372D01*
X40990533Y-39585446D01*
X40570839Y-38957330D01*
X40036670Y-38423161D01*
X39408554Y-38003467D01*
X38710628Y-37714377D01*
X37969715Y-37567000D01*
X37214285Y-37567000D01*
X36473372Y-37714377D01*
X35775446Y-38003467D01*
X35147330Y-38423161D01*
X34613161Y-38957330D01*
X34193467Y-39585446D01*
X33904377Y-40283372D01*
X33757000Y-41024285D01*
X33208333Y-41024285D01*
X33244437Y-40619751D01*
X33451672Y-39862226D01*
X33789777Y-39153375D01*
X34248067Y-38515596D01*
X34812055Y-37969054D01*
X35463913Y-37531023D01*
X36183038Y-37215349D01*
X36951768Y-37030794D01*
X37616207Y-36982000D01*
X188946608Y-36982000D01*
X189758249Y-37054437D01*
G37*
X189758249Y-37054437D02*
X190515774Y-37261672D01*
X191224625Y-37599777D01*
X191862404Y-38058067D01*
X192408946Y-38622055D01*
X192846977Y-39273913D01*
X193162651Y-39993038D01*
X193347206Y-40761768D01*
X193396001Y-41426221D01*
X193396000Y-88616608D01*
X193323563Y-89428249D01*
X193116328Y-90185774D01*
X192778221Y-90894627D01*
X192319928Y-91532410D01*
X191755945Y-92078946D01*
X191104085Y-92516978D01*
X190384963Y-92832651D01*
X189616232Y-93017206D01*
X188951792Y-93066000D01*
X37621392Y-93066000D01*
X36809751Y-92993563D01*
X36052226Y-92786328D01*
X35343373Y-92448221D01*
X34705590Y-91989928D01*
X34159054Y-91425945D01*
X33721022Y-90774085D01*
X33405349Y-90054963D01*
X33220794Y-89286232D01*
X33172000Y-88621792D01*
X33172000Y-88268285D01*
X33757000Y-88268285D01*
X33757000Y-89023715D01*
X33904377Y-89764628D01*
X34193467Y-90462554D01*
X34613161Y-91090670D01*
X35147330Y-91624839D01*
X35775446Y-92044533D01*
X36473372Y-92333623D01*
X37214285Y-92481000D01*
X37969715Y-92481000D01*
X38710628Y-92333623D01*
X39408554Y-92044533D01*
X40036670Y-91624839D01*
X40570839Y-91090670D01*
X40990533Y-90462554D01*
X41279623Y-89764628D01*
X41427000Y-89023715D01*
X41427000Y-88268285D01*
X94971000Y-88268285D01*
X94971000Y-89023715D01*
X95118377Y-89764628D01*
X95407467Y-90462554D01*
X95827161Y-91090670D01*
X96361330Y-91624839D01*
X96989446Y-92044533D01*
X97687372Y-92333623D01*
X98428285Y-92481000D01*
X99183715Y-92481000D01*
X99924628Y-92333623D01*
X100622554Y-92044533D01*
X101250670Y-91624839D01*
X101784839Y-91090670D01*
X102204533Y-90462554D01*
X102493623Y-89764628D01*
X102641000Y-89023715D01*
X102641000Y-88268285D01*
X102535468Y-87737740D01*
X126277000Y-87737740D01*
X126277000Y-88030260D01*
X126334068Y-88317158D01*
X126446010Y-88587411D01*
X126608525Y-88830632D01*
X126815368Y-89037475D01*
X126989760Y-89154000D01*
X126815368Y-89270525D01*
X126608525Y-89477368D01*
X126446010Y-89720589D01*
X126334068Y-89990842D01*
X126277000Y-90277740D01*
X126277000Y-90570260D01*
X126334068Y-90857158D01*
X126446010Y-91127411D01*
X126608525Y-91370632D01*
X126815368Y-91577475D01*
X127058589Y-91739990D01*
X127328842Y-91851932D01*
X127615740Y-91909000D01*
X127908260Y-91909000D01*
X128195158Y-91851932D01*
X128465411Y-91739990D01*
X128708632Y-91577475D01*
X128915475Y-91370632D01*
X129032000Y-91196240D01*
X129148525Y-91370632D01*
X129355368Y-91577475D01*
X129598589Y-91739990D01*
X129868842Y-91851932D01*
X130155740Y-91909000D01*
X130448260Y-91909000D01*
X130735158Y-91851932D01*
X131005411Y-91739990D01*
X131248632Y-91577475D01*
X131380487Y-91445620D01*
X131402498Y-91518180D01*
X131461463Y-91628494D01*
X131540815Y-91725185D01*
X131637506Y-91804537D01*
X131747820Y-91863502D01*
X131867518Y-91899812D01*
X131992000Y-91912072D01*
X133692000Y-91912072D01*
X133816482Y-91899812D01*
X133936180Y-91863502D01*
X134046494Y-91804537D01*
X134143185Y-91725185D01*
X134222537Y-91628494D01*
X134281502Y-91518180D01*
X134317812Y-91398482D01*
X134330072Y-91274000D01*
X134330072Y-89574000D01*
X134317812Y-89449518D01*
X134281502Y-89329820D01*
X134222537Y-89219506D01*
X134143185Y-89122815D01*
X134046494Y-89043463D01*
X133936180Y-88984498D01*
X133863620Y-88962487D01*
X133995475Y-88830632D01*
X134157990Y-88587411D01*
X134269932Y-88317158D01*
X134327000Y-88030260D01*
X134327000Y-87737740D01*
X134269932Y-87450842D01*
X134157990Y-87180589D01*
X133995475Y-86937368D01*
X133788632Y-86730525D01*
X133545411Y-86568010D01*
X133275158Y-86456068D01*
X132988260Y-86399000D01*
X132695740Y-86399000D01*
X132408842Y-86456068D01*
X132138589Y-86568010D01*
X131895368Y-86730525D01*
X131688525Y-86937368D01*
X131572000Y-87111760D01*
X131455475Y-86937368D01*
X131248632Y-86730525D01*
X131005411Y-86568010D01*
X130735158Y-86456068D01*
X130448260Y-86399000D01*
X130155740Y-86399000D01*
X129868842Y-86456068D01*
X129598589Y-86568010D01*
X129355368Y-86730525D01*
X129148525Y-86937368D01*
X129032000Y-87111760D01*
X128915475Y-86937368D01*
X128708632Y-86730525D01*
X128465411Y-86568010D01*
X128195158Y-86456068D01*
X127908260Y-86399000D01*
X127615740Y-86399000D01*
X127328842Y-86456068D01*
X127058589Y-86568010D01*
X126815368Y-86730525D01*
X126608525Y-86937368D01*
X126446010Y-87180589D01*
X126334068Y-87450842D01*
X126277000Y-87737740D01*
X102535468Y-87737740D01*
X102493623Y-87527372D01*
X102204533Y-86829446D01*
X101992463Y-86512061D01*
X117583000Y-86512061D01*
X117583000Y-86715939D01*
X117622774Y-86915898D01*
X117700795Y-87104256D01*
X117814063Y-87273774D01*
X117958226Y-87417937D01*
X118127744Y-87531205D01*
X118316102Y-87609226D01*
X118516061Y-87649000D01*
X118719939Y-87649000D01*
X118919898Y-87609226D01*
X119108256Y-87531205D01*
X119277774Y-87417937D01*
X119421937Y-87273774D01*
X119535205Y-87104256D01*
X119613226Y-86915898D01*
X119653000Y-86715939D01*
X119653000Y-86512061D01*
X119613226Y-86312102D01*
X119535205Y-86123744D01*
X119421937Y-85954226D01*
X119378000Y-85910289D01*
X119378000Y-79845803D01*
X121182794Y-78041010D01*
X137349314Y-78041010D01*
X137352991Y-78078342D01*
X137352990Y-85648408D01*
X137349314Y-85685730D01*
X137352990Y-85723052D01*
X137352990Y-85723062D01*
X137363987Y-85834715D01*
X137397169Y-85944102D01*
X137407444Y-85977976D01*
X137478016Y-86110006D01*
X137506117Y-86144247D01*
X137572989Y-86225731D01*
X137601993Y-86249534D01*
X138032466Y-86680007D01*
X138056269Y-86709011D01*
X138122037Y-86762985D01*
X138171993Y-86803984D01*
X138219629Y-86829446D01*
X138304023Y-86874556D01*
X138447284Y-86918013D01*
X138558937Y-86929010D01*
X138558946Y-86929010D01*
X138596269Y-86932686D01*
X138633592Y-86929010D01*
X141123668Y-86929010D01*
X141160990Y-86932686D01*
X141198312Y-86929010D01*
X141198323Y-86929010D01*
X141309976Y-86918013D01*
X141453237Y-86874556D01*
X141585266Y-86803984D01*
X141700991Y-86709011D01*
X141724793Y-86680008D01*
X141771801Y-86633000D01*
X141833939Y-86633000D01*
X142033898Y-86593226D01*
X142222256Y-86515205D01*
X142391774Y-86401937D01*
X142535937Y-86257774D01*
X142649205Y-86088256D01*
X142727226Y-85899898D01*
X142767000Y-85699939D01*
X142767000Y-85496061D01*
X142727226Y-85296102D01*
X142649205Y-85107744D01*
X142535937Y-84938226D01*
X142391774Y-84794063D01*
X142222256Y-84680795D01*
X142188510Y-84666817D01*
X142265677Y-84522445D01*
X142330578Y-84308497D01*
X142347001Y-84141750D01*
X142352492Y-84085999D01*
X142351310Y-84074000D01*
X142352492Y-84062001D01*
X142330578Y-83839502D01*
X142310132Y-83772102D01*
X142265677Y-83625554D01*
X142160285Y-83428378D01*
X142018450Y-83255552D01*
X141975136Y-83220005D01*
X141959001Y-83203870D01*
X141959001Y-80501383D01*
X142138061Y-80537000D01*
X142341939Y-80537000D01*
X142541898Y-80497226D01*
X142730256Y-80419205D01*
X142899774Y-80305937D01*
X143043937Y-80161774D01*
X143157205Y-79992256D01*
X143235226Y-79803898D01*
X143275000Y-79603939D01*
X143275000Y-79400061D01*
X143235226Y-79200102D01*
X143157205Y-79011744D01*
X143043937Y-78842226D01*
X143000000Y-78798289D01*
X143000000Y-75082061D01*
X143237000Y-75082061D01*
X143237000Y-75285939D01*
X143276774Y-75485898D01*
X143354795Y-75674256D01*
X143468063Y-75843774D01*
X143612226Y-75987937D01*
X143781744Y-76101205D01*
X143970102Y-76179226D01*
X144170061Y-76219000D01*
X144232199Y-76219000D01*
X144782001Y-76768803D01*
X144782000Y-85148289D01*
X144738063Y-85192226D01*
X144624795Y-85361744D01*
X144546774Y-85550102D01*
X144507000Y-85750061D01*
X144507000Y-85953939D01*
X144546774Y-86153898D01*
X144624795Y-86342256D01*
X144738063Y-86511774D01*
X144882226Y-86655937D01*
X145051744Y-86769205D01*
X145240102Y-86847226D01*
X145440061Y-86887000D01*
X145643939Y-86887000D01*
X145843898Y-86847226D01*
X146032256Y-86769205D01*
X146201774Y-86655937D01*
X146345937Y-86511774D01*
X146459205Y-86342256D01*
X146537226Y-86153898D01*
X146577000Y-85953939D01*
X146577000Y-85750061D01*
X146537226Y-85550102D01*
X146459205Y-85361744D01*
X146345937Y-85192226D01*
X146302000Y-85148289D01*
X146302000Y-76491322D01*
X146305676Y-76453999D01*
X146302000Y-76416676D01*
X146302000Y-76416667D01*
X146291003Y-76305014D01*
X146247546Y-76161753D01*
X146176974Y-76029724D01*
X146082001Y-75913999D01*
X146053003Y-75890201D01*
X145854802Y-75692000D01*
X147193000Y-75692000D01*
X147193000Y-85852000D01*
X147195440Y-85876776D01*
X147202667Y-85900601D01*
X147214403Y-85922557D01*
X147230197Y-85941803D01*
X147249443Y-85957597D01*
X147271399Y-85969333D01*
X147295224Y-85976560D01*
X147320000Y-85979000D01*
X159004000Y-85979000D01*
X159028776Y-85976560D01*
X159052601Y-85969333D01*
X159074557Y-85957597D01*
X159093803Y-85941803D01*
X159109597Y-85922557D01*
X159121333Y-85900601D01*
X159128560Y-85876776D01*
X159131000Y-85852000D01*
X159131000Y-75692000D01*
X159128560Y-75667224D01*
X159121333Y-75643399D01*
X159109597Y-75621443D01*
X159093803Y-75602197D01*
X159074557Y-75586403D01*
X159052601Y-75574667D01*
X159028776Y-75567440D01*
X159004000Y-75565000D01*
X147320000Y-75565000D01*
X147295224Y-75567440D01*
X147271399Y-75574667D01*
X147249443Y-75586403D01*
X147230197Y-75602197D01*
X147214403Y-75621443D01*
X147202667Y-75643399D01*
X147195440Y-75667224D01*
X147193000Y-75692000D01*
X145854802Y-75692000D01*
X145307000Y-75144199D01*
X145307000Y-75082061D01*
X145267226Y-74882102D01*
X145189205Y-74693744D01*
X145075937Y-74524226D01*
X144931774Y-74380063D01*
X144762256Y-74266795D01*
X144573898Y-74188774D01*
X144373939Y-74149000D01*
X144170061Y-74149000D01*
X143970102Y-74188774D01*
X143781744Y-74266795D01*
X143612226Y-74380063D01*
X143468063Y-74524226D01*
X143354795Y-74693744D01*
X143276774Y-74882102D01*
X143237000Y-75082061D01*
X143000000Y-75082061D01*
X143000000Y-70510061D01*
X143237000Y-70510061D01*
X143237000Y-70713939D01*
X143276774Y-70913898D01*
X143354795Y-71102256D01*
X143468063Y-71271774D01*
X143612226Y-71415937D01*
X143781744Y-71529205D01*
X143970102Y-71607226D01*
X144170061Y-71647000D01*
X144373939Y-71647000D01*
X144573898Y-71607226D01*
X144762256Y-71529205D01*
X144931774Y-71415937D01*
X145075937Y-71271774D01*
X145189205Y-71102256D01*
X145267226Y-70913898D01*
X145307000Y-70713939D01*
X145307000Y-70510061D01*
X145267226Y-70310102D01*
X145189205Y-70121744D01*
X145075937Y-69952226D01*
X145032000Y-69908289D01*
X145032000Y-61233000D01*
X145135939Y-61233000D01*
X145335898Y-61193226D01*
X145524256Y-61115205D01*
X145693774Y-61001937D01*
X145837937Y-60857774D01*
X145951205Y-60688256D01*
X146029226Y-60499898D01*
X146038753Y-60452000D01*
X147193000Y-60452000D01*
X147193000Y-70612000D01*
X147195440Y-70636776D01*
X147202667Y-70660601D01*
X147214403Y-70682557D01*
X147230197Y-70701803D01*
X147249443Y-70717597D01*
X147271399Y-70729333D01*
X147295224Y-70736560D01*
X147320000Y-70739000D01*
X159004000Y-70739000D01*
X159028776Y-70736560D01*
X159052601Y-70729333D01*
X159074557Y-70717597D01*
X159093803Y-70701803D01*
X159109597Y-70682557D01*
X159121333Y-70660601D01*
X159128560Y-70636776D01*
X159131000Y-70612000D01*
X159131000Y-63134875D01*
X170561000Y-63134875D01*
X170561000Y-88138000D01*
X170563440Y-88162776D01*
X170570667Y-88186601D01*
X170582403Y-88208557D01*
X170598197Y-88227803D01*
X170617443Y-88243597D01*
X170639399Y-88255333D01*
X170663224Y-88262560D01*
X170687811Y-88265000D01*
X192023811Y-88296750D01*
X192048591Y-88294346D01*
X192072426Y-88287155D01*
X192094400Y-88275452D01*
X192113669Y-88259686D01*
X192129492Y-88240464D01*
X192141260Y-88218525D01*
X192148523Y-88194712D01*
X192151000Y-88169750D01*
X192151000Y-72136000D01*
X192148560Y-72111224D01*
X192141333Y-72087399D01*
X192129597Y-72065443D01*
X192113803Y-72046197D01*
X192094557Y-72030403D01*
X192072601Y-72018667D01*
X192048776Y-72011440D01*
X192024000Y-72009000D01*
X179197000Y-72009000D01*
X179197000Y-67785580D01*
X182838025Y-67785580D01*
X183294197Y-68357185D01*
X184094183Y-68797207D01*
X184964641Y-69072704D01*
X185872121Y-69173091D01*
X186781748Y-69094508D01*
X187658566Y-68839975D01*
X188468879Y-68419275D01*
X188561803Y-68357185D01*
X189017975Y-67785580D01*
X185928000Y-64695605D01*
X182838025Y-67785580D01*
X179197000Y-67785580D01*
X179197000Y-64460121D01*
X181270909Y-64460121D01*
X181349492Y-65369748D01*
X181604025Y-66246566D01*
X182024725Y-67056879D01*
X182086815Y-67149803D01*
X182658420Y-67605975D01*
X185748395Y-64516000D01*
X186107605Y-64516000D01*
X189197580Y-67605975D01*
X189769185Y-67149803D01*
X190209207Y-66349817D01*
X190484704Y-65479359D01*
X190585091Y-64571879D01*
X190506508Y-63662252D01*
X190251975Y-62785434D01*
X189831275Y-61975121D01*
X189769185Y-61882197D01*
X189197580Y-61426025D01*
X186107605Y-64516000D01*
X185748395Y-64516000D01*
X182658420Y-61426025D01*
X182086815Y-61882197D01*
X181646793Y-62682183D01*
X181371296Y-63552641D01*
X181270909Y-64460121D01*
X179197000Y-64460121D01*
X179197000Y-62992000D01*
X179194560Y-62967224D01*
X179187333Y-62943399D01*
X179175597Y-62921443D01*
X179159803Y-62902197D01*
X179140557Y-62886403D01*
X179118601Y-62874667D01*
X179094776Y-62867440D01*
X179067836Y-62865018D01*
X170685836Y-63007893D01*
X170661104Y-63010756D01*
X170637407Y-63018388D01*
X170615653Y-63030496D01*
X170596680Y-63046616D01*
X170581216Y-63066128D01*
X170569856Y-63088281D01*
X170563036Y-63112225D01*
X170561000Y-63134875D01*
X159131000Y-63134875D01*
X159131000Y-61246420D01*
X182838025Y-61246420D01*
X185928000Y-64336395D01*
X189017975Y-61246420D01*
X188561803Y-60674815D01*
X187761817Y-60234793D01*
X186891359Y-59959296D01*
X185983879Y-59858909D01*
X185074252Y-59937492D01*
X184197434Y-60192025D01*
X183387121Y-60612725D01*
X183294197Y-60674815D01*
X182838025Y-61246420D01*
X159131000Y-61246420D01*
X159131000Y-60452000D01*
X159128560Y-60427224D01*
X159121333Y-60403399D01*
X159109597Y-60381443D01*
X159093803Y-60362197D01*
X159074557Y-60346403D01*
X159052601Y-60334667D01*
X159028776Y-60327440D01*
X159004000Y-60325000D01*
X147320000Y-60325000D01*
X147295224Y-60327440D01*
X147271399Y-60334667D01*
X147249443Y-60346403D01*
X147230197Y-60362197D01*
X147214403Y-60381443D01*
X147202667Y-60403399D01*
X147195440Y-60427224D01*
X147193000Y-60452000D01*
X146038753Y-60452000D01*
X146069000Y-60299939D01*
X146069000Y-60096061D01*
X146029226Y-59896102D01*
X145951205Y-59707744D01*
X145837937Y-59538226D01*
X145693774Y-59394063D01*
X145524256Y-59280795D01*
X145335898Y-59202774D01*
X145135939Y-59163000D01*
X144932061Y-59163000D01*
X144732102Y-59202774D01*
X144543744Y-59280795D01*
X144374226Y-59394063D01*
X144230063Y-59538226D01*
X144116795Y-59707744D01*
X144061174Y-59842025D01*
X143760998Y-60142201D01*
X143732000Y-60165999D01*
X143708202Y-60194997D01*
X143708201Y-60194998D01*
X143637026Y-60281724D01*
X143566454Y-60413754D01*
X143551045Y-60464554D01*
X143522998Y-60557014D01*
X143513361Y-60654861D01*
X143508324Y-60706000D01*
X143512001Y-60743332D01*
X143512000Y-69908289D01*
X143468063Y-69952226D01*
X143354795Y-70121744D01*
X143276774Y-70310102D01*
X143237000Y-70510061D01*
X143000000Y-70510061D01*
X143000000Y-64965711D01*
X143043937Y-64921774D01*
X143157205Y-64752256D01*
X143235226Y-64563898D01*
X143275000Y-64363939D01*
X143275000Y-64160061D01*
X143235226Y-63960102D01*
X143157205Y-63771744D01*
X143043937Y-63602226D01*
X142899774Y-63458063D01*
X142730256Y-63344795D01*
X142541898Y-63266774D01*
X142341939Y-63227000D01*
X142138061Y-63227000D01*
X141938102Y-63266774D01*
X141749744Y-63344795D01*
X141580226Y-63458063D01*
X141436063Y-63602226D01*
X141322795Y-63771744D01*
X141244774Y-63960102D01*
X141205000Y-64160061D01*
X141205000Y-64363939D01*
X141244774Y-64563898D01*
X141322795Y-64752256D01*
X141436063Y-64921774D01*
X141480000Y-64965711D01*
X141480000Y-69249586D01*
X141446499Y-69239423D01*
X141224000Y-69217509D01*
X141001502Y-69239423D01*
X140787554Y-69304324D01*
X140590378Y-69409716D01*
X140417552Y-69551551D01*
X140275717Y-69724377D01*
X140170324Y-69921553D01*
X140105423Y-70135501D01*
X140089000Y-70302248D01*
X140089000Y-72427869D01*
X140060866Y-72456003D01*
X140017552Y-72491550D01*
X139875717Y-72664376D01*
X139773259Y-72856063D01*
X139770325Y-72861553D01*
X139705424Y-73075501D01*
X139683510Y-73297999D01*
X139689001Y-73353751D01*
X139689001Y-73895000D01*
X139598061Y-73895000D01*
X139398102Y-73934774D01*
X139209744Y-74012795D01*
X139040226Y-74126063D01*
X138896063Y-74270226D01*
X138782795Y-74439744D01*
X138704774Y-74628102D01*
X138665000Y-74828061D01*
X138665000Y-75031939D01*
X138704774Y-75231898D01*
X138782795Y-75420256D01*
X138896063Y-75589774D01*
X138940000Y-75633711D01*
X138940001Y-75750288D01*
X138896063Y-75794226D01*
X138782795Y-75963744D01*
X138704774Y-76152102D01*
X138665000Y-76352061D01*
X138665000Y-76414198D01*
X137601988Y-77477211D01*
X137572990Y-77501009D01*
X137549192Y-77530007D01*
X137549191Y-77530008D01*
X137478016Y-77616734D01*
X137407444Y-77748764D01*
X137400427Y-77771898D01*
X137363988Y-77892024D01*
X137353649Y-77997000D01*
X137349314Y-78041010D01*
X121182794Y-78041010D01*
X121655009Y-77568796D01*
X121684001Y-77545003D01*
X121707795Y-77516010D01*
X121707799Y-77516006D01*
X121778973Y-77429279D01*
X121778974Y-77429278D01*
X121849546Y-77297249D01*
X121893003Y-77153988D01*
X121904000Y-77042335D01*
X121904000Y-77042326D01*
X121907676Y-77005003D01*
X121904000Y-76967680D01*
X121904000Y-72796061D01*
X125965000Y-72796061D01*
X125965000Y-72999939D01*
X126004774Y-73199898D01*
X126082795Y-73388256D01*
X126196063Y-73557774D01*
X126240000Y-73601711D01*
X126240001Y-75496288D01*
X126196063Y-75540226D01*
X126082795Y-75709744D01*
X126004774Y-75898102D01*
X125965000Y-76098061D01*
X125965000Y-76301939D01*
X126004774Y-76501898D01*
X126082795Y-76690256D01*
X126196063Y-76859774D01*
X126340226Y-77003937D01*
X126509744Y-77117205D01*
X126698102Y-77195226D01*
X126898061Y-77235000D01*
X127101939Y-77235000D01*
X127301898Y-77195226D01*
X127490256Y-77117205D01*
X127659774Y-77003937D01*
X127803937Y-76859774D01*
X127917205Y-76690256D01*
X127995226Y-76501898D01*
X128035000Y-76301939D01*
X128035000Y-76098061D01*
X127995226Y-75898102D01*
X127917205Y-75709744D01*
X127803937Y-75540226D01*
X127760000Y-75496289D01*
X127760000Y-73601711D01*
X127803937Y-73557774D01*
X127917205Y-73388256D01*
X127995226Y-73199898D01*
X128035000Y-72999939D01*
X128035000Y-72796061D01*
X127995226Y-72596102D01*
X127917205Y-72407744D01*
X127803937Y-72238226D01*
X127659774Y-72094063D01*
X127490256Y-71980795D01*
X127301898Y-71902774D01*
X127101939Y-71863000D01*
X126898061Y-71863000D01*
X126698102Y-71902774D01*
X126509744Y-71980795D01*
X126340226Y-72094063D01*
X126196063Y-72238226D01*
X126082795Y-72407744D01*
X126004774Y-72596102D01*
X125965000Y-72796061D01*
X121904000Y-72796061D01*
X121904000Y-66757711D01*
X121947937Y-66713774D01*
X122061205Y-66544256D01*
X122139226Y-66355898D01*
X122179000Y-66155939D01*
X122179000Y-65952061D01*
X122139226Y-65752102D01*
X122061205Y-65563744D01*
X121947937Y-65394226D01*
X121803774Y-65250063D01*
X121634256Y-65136795D01*
X121445898Y-65058774D01*
X121245939Y-65019000D01*
X121042061Y-65019000D01*
X120842102Y-65058774D01*
X120653744Y-65136795D01*
X120484226Y-65250063D01*
X120340063Y-65394226D01*
X120226795Y-65563744D01*
X120148774Y-65752102D01*
X120109000Y-65952061D01*
X120109000Y-66155939D01*
X120148774Y-66355898D01*
X120226795Y-66544256D01*
X120340063Y-66713774D01*
X120384001Y-66757712D01*
X120384000Y-76690199D01*
X118106998Y-78967203D01*
X118078000Y-78991001D01*
X118054202Y-79019999D01*
X118054201Y-79020000D01*
X117983026Y-79106726D01*
X117912454Y-79238756D01*
X117868998Y-79382017D01*
X117854324Y-79531002D01*
X117858001Y-79568334D01*
X117858000Y-85910289D01*
X117814063Y-85954226D01*
X117700795Y-86123744D01*
X117622774Y-86312102D01*
X117583000Y-86512061D01*
X101992463Y-86512061D01*
X101784839Y-86201330D01*
X101250670Y-85667161D01*
X100622554Y-85247467D01*
X99924628Y-84958377D01*
X99183715Y-84811000D01*
X98428285Y-84811000D01*
X97687372Y-84958377D01*
X96989446Y-85247467D01*
X96361330Y-85667161D01*
X95827161Y-86201330D01*
X95407467Y-86829446D01*
X95118377Y-87527372D01*
X94971000Y-88268285D01*
X41427000Y-88268285D01*
X41279623Y-87527372D01*
X40990533Y-86829446D01*
X40570839Y-86201330D01*
X40036670Y-85667161D01*
X39408554Y-85247467D01*
X38710628Y-84958377D01*
X37969715Y-84811000D01*
X37214285Y-84811000D01*
X36473372Y-84958377D01*
X35775446Y-85247467D01*
X35147330Y-85667161D01*
X34613161Y-86201330D01*
X34193467Y-86829446D01*
X33904377Y-87527372D01*
X33757000Y-88268285D01*
X33172000Y-88268285D01*
X33172000Y-68447000D01*
X33655000Y-68447000D01*
X33655000Y-67439000D01*
X33635000Y-67439000D01*
X33635000Y-67185000D01*
X33655000Y-67185000D01*
X33655000Y-66177000D01*
X33909000Y-66177000D01*
X33909000Y-67185000D01*
X33929000Y-67185000D01*
X33929000Y-67439000D01*
X33909000Y-67439000D01*
X33909000Y-68447000D01*
X34409000Y-68447000D01*
X34627987Y-68400415D01*
X34833678Y-68312003D01*
X35018169Y-68185161D01*
X35174369Y-68024764D01*
X35296276Y-67836976D01*
X35376119Y-67613874D01*
X35249955Y-67439002D01*
X35376980Y-67439002D01*
X35376981Y-74631448D01*
X35373304Y-74668780D01*
X35376981Y-74706113D01*
X35387978Y-74817766D01*
X35401160Y-74861222D01*
X35431434Y-74961026D01*
X35502006Y-75093056D01*
X35573181Y-75179782D01*
X35596980Y-75208781D01*
X35625978Y-75232579D01*
X40443390Y-80049992D01*
X40399600Y-80270140D01*
X40399600Y-80562660D01*
X40456668Y-80849558D01*
X40568610Y-81119811D01*
X40731125Y-81363032D01*
X40937968Y-81569875D01*
X41181189Y-81732390D01*
X41451442Y-81844332D01*
X41738340Y-81901400D01*
X42030860Y-81901400D01*
X42317758Y-81844332D01*
X42588011Y-81732390D01*
X42831232Y-81569875D01*
X43038075Y-81363032D01*
X43154600Y-81188640D01*
X43271125Y-81363032D01*
X43477968Y-81569875D01*
X43721189Y-81732390D01*
X43991442Y-81844332D01*
X44278340Y-81901400D01*
X44570860Y-81901400D01*
X44857758Y-81844332D01*
X45128011Y-81732390D01*
X45371232Y-81569875D01*
X45578075Y-81363032D01*
X45699795Y-81180866D01*
X45769422Y-81297755D01*
X45964331Y-81513988D01*
X46197680Y-81688041D01*
X46460501Y-81813225D01*
X46607710Y-81857876D01*
X46837600Y-81736555D01*
X46837600Y-80543400D01*
X46817600Y-80543400D01*
X46817600Y-80289400D01*
X46837600Y-80289400D01*
X46837600Y-80269400D01*
X47091600Y-80269400D01*
X47091600Y-80289400D01*
X47111600Y-80289400D01*
X47111600Y-80543400D01*
X47091600Y-80543400D01*
X47091600Y-81736555D01*
X47321490Y-81857876D01*
X47468699Y-81813225D01*
X47731520Y-81688041D01*
X47863783Y-81589387D01*
X48376800Y-82102403D01*
X48400598Y-82131402D01*
X48516323Y-82226375D01*
X48648352Y-82296947D01*
X48791613Y-82340404D01*
X48903266Y-82351401D01*
X48903275Y-82351401D01*
X48940598Y-82355077D01*
X48977921Y-82351401D01*
X55657279Y-82351401D01*
X55694601Y-82355077D01*
X55731923Y-82351401D01*
X55731934Y-82351401D01*
X55843587Y-82340404D01*
X55986848Y-82296947D01*
X56118877Y-82226375D01*
X56234602Y-82131402D01*
X56258405Y-82102398D01*
X56270598Y-82090205D01*
X56299602Y-82066402D01*
X56394575Y-81950677D01*
X56465147Y-81818648D01*
X56508604Y-81675387D01*
X56519601Y-81563734D01*
X56519601Y-81563723D01*
X56523277Y-81526401D01*
X56519601Y-81489078D01*
X56519601Y-76129582D01*
X56549263Y-76173974D01*
X56693426Y-76318137D01*
X56862944Y-76431405D01*
X57051302Y-76509426D01*
X57251261Y-76549200D01*
X57455139Y-76549200D01*
X57655098Y-76509426D01*
X57843456Y-76431405D01*
X58012974Y-76318137D01*
X58157137Y-76173974D01*
X58270405Y-76004456D01*
X58348426Y-75816098D01*
X58388200Y-75616139D01*
X58388200Y-75412261D01*
X58348426Y-75212302D01*
X58270405Y-75023944D01*
X58157137Y-74854426D01*
X58113200Y-74810489D01*
X58113200Y-74320061D01*
X115297000Y-74320061D01*
X115297000Y-74523939D01*
X115336774Y-74723898D01*
X115414795Y-74912256D01*
X115528063Y-75081774D01*
X115672226Y-75225937D01*
X115841744Y-75339205D01*
X116030102Y-75417226D01*
X116200263Y-75451073D01*
X116567000Y-75891158D01*
X116567000Y-76047939D01*
X116606774Y-76247898D01*
X116684795Y-76436256D01*
X116798063Y-76605774D01*
X116942226Y-76749937D01*
X117111744Y-76863205D01*
X117300102Y-76941226D01*
X117500061Y-76981000D01*
X117703939Y-76981000D01*
X117903898Y-76941226D01*
X118092256Y-76863205D01*
X118261774Y-76749937D01*
X118405937Y-76605774D01*
X118519205Y-76436256D01*
X118597226Y-76247898D01*
X118637000Y-76047939D01*
X118637000Y-75844061D01*
X118597226Y-75644102D01*
X118519205Y-75455744D01*
X118405937Y-75286226D01*
X118261774Y-75142063D01*
X118092256Y-75028795D01*
X117903898Y-74950774D01*
X117733737Y-74916927D01*
X117367000Y-74476842D01*
X117367000Y-74320061D01*
X117327226Y-74120102D01*
X117249205Y-73931744D01*
X117135937Y-73762226D01*
X116991774Y-73618063D01*
X116822256Y-73504795D01*
X116633898Y-73426774D01*
X116433939Y-73387000D01*
X116230061Y-73387000D01*
X116030102Y-73426774D01*
X115841744Y-73504795D01*
X115672226Y-73618063D01*
X115528063Y-73762226D01*
X115414795Y-73931744D01*
X115336774Y-74120102D01*
X115297000Y-74320061D01*
X58113200Y-74320061D01*
X58113200Y-65467722D01*
X58116876Y-65430400D01*
X58113200Y-65393077D01*
X58113200Y-65393067D01*
X58102203Y-65281414D01*
X58058746Y-65138153D01*
X58024581Y-65074236D01*
X57988174Y-65006123D01*
X57916999Y-64919397D01*
X57893201Y-64890399D01*
X57864204Y-64866602D01*
X54248000Y-61250399D01*
X54248000Y-61188261D01*
X54208226Y-60988302D01*
X54130205Y-60799944D01*
X54016937Y-60630426D01*
X53872774Y-60486263D01*
X53703256Y-60372995D01*
X53514898Y-60294974D01*
X53314939Y-60255200D01*
X53111061Y-60255200D01*
X52911102Y-60294974D01*
X52722744Y-60372995D01*
X52553226Y-60486263D01*
X52450146Y-60589343D01*
X51071607Y-59210804D01*
X51047804Y-59181800D01*
X50932079Y-59086827D01*
X50800050Y-59016255D01*
X50656789Y-58972798D01*
X50545136Y-58961801D01*
X50545125Y-58961801D01*
X50507803Y-58958125D01*
X50470481Y-58961801D01*
X49611721Y-58961801D01*
X49574398Y-58958125D01*
X49537076Y-58961801D01*
X49537066Y-58961801D01*
X49425413Y-58972798D01*
X49282152Y-59016255D01*
X49150174Y-59086800D01*
X49072461Y-59086800D01*
X48872502Y-59126574D01*
X48684144Y-59204595D01*
X48514626Y-59317863D01*
X48370463Y-59462026D01*
X48257195Y-59631544D01*
X48179174Y-59819902D01*
X48139400Y-60019861D01*
X48139400Y-60223739D01*
X48179174Y-60423698D01*
X48257195Y-60612056D01*
X48370463Y-60781574D01*
X48514626Y-60925737D01*
X48606911Y-60987400D01*
X45050779Y-60987400D01*
X45070806Y-60962997D01*
X53431004Y-52602800D01*
X53460002Y-52579002D01*
X53554975Y-52463277D01*
X53625547Y-52331248D01*
X53669004Y-52187987D01*
X53680001Y-52076334D01*
X53680001Y-52076325D01*
X53683677Y-52039002D01*
X53680001Y-52001679D01*
X53680001Y-50455999D01*
X54460290Y-50455999D01*
X54504227Y-50499936D01*
X54673745Y-50613204D01*
X54862103Y-50691225D01*
X55062062Y-50730999D01*
X55265940Y-50730999D01*
X55465899Y-50691225D01*
X55654257Y-50613204D01*
X55823775Y-50499936D01*
X55967938Y-50355773D01*
X56081206Y-50186255D01*
X56159227Y-49997897D01*
X56199001Y-49797938D01*
X56199001Y-49594060D01*
X56159227Y-49394101D01*
X56152252Y-49377261D01*
X58401000Y-49377261D01*
X58401000Y-49581139D01*
X58440774Y-49781098D01*
X58518795Y-49969456D01*
X58632063Y-50138974D01*
X58776226Y-50283137D01*
X58945744Y-50396405D01*
X59134102Y-50474426D01*
X59334061Y-50514200D01*
X59396199Y-50514200D01*
X60167601Y-51285603D01*
X60191399Y-51314601D01*
X60217159Y-51335742D01*
X60283063Y-51434374D01*
X60427226Y-51578537D01*
X60596744Y-51691805D01*
X60785102Y-51769826D01*
X60985061Y-51809600D01*
X61188939Y-51809600D01*
X61388898Y-51769826D01*
X61577256Y-51691805D01*
X61746774Y-51578537D01*
X61890937Y-51434374D01*
X62004205Y-51264856D01*
X62082226Y-51076498D01*
X62122000Y-50876539D01*
X62122000Y-50672661D01*
X62082226Y-50472702D01*
X62004205Y-50284344D01*
X61890937Y-50114826D01*
X61746774Y-49970663D01*
X61577256Y-49857395D01*
X61388898Y-49779374D01*
X61188939Y-49739600D01*
X60985061Y-49739600D01*
X60806683Y-49775081D01*
X60471000Y-49439399D01*
X60471000Y-49428061D01*
X77451000Y-49428061D01*
X77451000Y-49631939D01*
X77490774Y-49831898D01*
X77568795Y-50020256D01*
X77682063Y-50189774D01*
X77826226Y-50333937D01*
X77995744Y-50447205D01*
X78184102Y-50525226D01*
X78384061Y-50565000D01*
X78587939Y-50565000D01*
X78787898Y-50525226D01*
X78976256Y-50447205D01*
X79145774Y-50333937D01*
X79289937Y-50189774D01*
X79403205Y-50020256D01*
X79423350Y-49971621D01*
X81868060Y-49971621D01*
X81868060Y-50175499D01*
X81907834Y-50375458D01*
X81985855Y-50563816D01*
X82099123Y-50733334D01*
X82243286Y-50877497D01*
X82412804Y-50990765D01*
X82601162Y-51068786D01*
X82801121Y-51108560D01*
X83004999Y-51108560D01*
X83204958Y-51068786D01*
X83393316Y-50990765D01*
X83562834Y-50877497D01*
X83631771Y-50808560D01*
X84600134Y-50808560D01*
X84931300Y-51139727D01*
X84931300Y-51237219D01*
X84971074Y-51437178D01*
X85049095Y-51625536D01*
X85162363Y-51795054D01*
X85306526Y-51939217D01*
X85476044Y-52052485D01*
X85664402Y-52130506D01*
X85864361Y-52170280D01*
X86068239Y-52170280D01*
X86255320Y-52133068D01*
X86255321Y-67165987D01*
X86251644Y-67203320D01*
X86255321Y-67240653D01*
X86266318Y-67352306D01*
X86268575Y-67359747D01*
X86309774Y-67495566D01*
X86380346Y-67627596D01*
X86411814Y-67665939D01*
X86475320Y-67743321D01*
X86504318Y-67767119D01*
X86849000Y-68111801D01*
X86849000Y-68173939D01*
X86888774Y-68373898D01*
X86966795Y-68562256D01*
X87080063Y-68731774D01*
X87224226Y-68875937D01*
X87393744Y-68989205D01*
X87582102Y-69067226D01*
X87782061Y-69107000D01*
X87985939Y-69107000D01*
X88185898Y-69067226D01*
X88374256Y-68989205D01*
X88543774Y-68875937D01*
X88687937Y-68731774D01*
X88801205Y-68562256D01*
X88879226Y-68373898D01*
X88919000Y-68173939D01*
X88919000Y-67970061D01*
X88879226Y-67770102D01*
X88801205Y-67581744D01*
X88687937Y-67412226D01*
X88543774Y-67268063D01*
X88374256Y-67154795D01*
X88185898Y-67076774D01*
X87985939Y-67037000D01*
X87923801Y-67037000D01*
X87775320Y-66888519D01*
X87775320Y-63906061D01*
X126981000Y-63906061D01*
X126981000Y-64109939D01*
X127020774Y-64309898D01*
X127098795Y-64498256D01*
X127212063Y-64667774D01*
X127356226Y-64811937D01*
X127525744Y-64925205D01*
X127714102Y-65003226D01*
X127914061Y-65043000D01*
X128117939Y-65043000D01*
X128317898Y-65003226D01*
X128506256Y-64925205D01*
X128675774Y-64811937D01*
X128819937Y-64667774D01*
X128933205Y-64498256D01*
X129011226Y-64309898D01*
X129051000Y-64109939D01*
X129051000Y-64047801D01*
X134135803Y-58962999D01*
X134137290Y-58962999D01*
X134070063Y-59030226D01*
X133956795Y-59199744D01*
X133878774Y-59388102D01*
X133839000Y-59588061D01*
X133839000Y-59791939D01*
X133878774Y-59991898D01*
X133956795Y-60180256D01*
X134070063Y-60349774D01*
X134114000Y-60393711D01*
X134114001Y-71590668D01*
X134110324Y-71628000D01*
X134114001Y-71665333D01*
X134114604Y-71671451D01*
X134093000Y-71780061D01*
X134093000Y-71983939D01*
X134132774Y-72183898D01*
X134210795Y-72372256D01*
X134324063Y-72541774D01*
X134468226Y-72685937D01*
X134637744Y-72799205D01*
X134826102Y-72877226D01*
X135026061Y-72917000D01*
X135229939Y-72917000D01*
X135429898Y-72877226D01*
X135618256Y-72799205D01*
X135787774Y-72685937D01*
X135931937Y-72541774D01*
X136045205Y-72372256D01*
X136123226Y-72183898D01*
X136163000Y-71983939D01*
X136163000Y-71780061D01*
X136123226Y-71580102D01*
X136045205Y-71391744D01*
X135931937Y-71222226D01*
X135787774Y-71078063D01*
X135634000Y-70975315D01*
X135634000Y-60393711D01*
X135677937Y-60349774D01*
X135791205Y-60180256D01*
X135869226Y-59991898D01*
X135909000Y-59791939D01*
X135909000Y-59588061D01*
X135869226Y-59388102D01*
X135791205Y-59199744D01*
X135677937Y-59030226D01*
X135610710Y-58962999D01*
X138590199Y-58962999D01*
X137156998Y-60396201D01*
X137128000Y-60419999D01*
X137104202Y-60448997D01*
X137104201Y-60448998D01*
X137033026Y-60535724D01*
X136962454Y-60667754D01*
X136939251Y-60744247D01*
X136918998Y-60811014D01*
X136914055Y-60861205D01*
X136904324Y-60960000D01*
X136908001Y-60997332D01*
X136908000Y-66352289D01*
X136864063Y-66396226D01*
X136750795Y-66565744D01*
X136672774Y-66754102D01*
X136633000Y-66954061D01*
X136633000Y-67157939D01*
X136672774Y-67357898D01*
X136750795Y-67546256D01*
X136864063Y-67715774D01*
X137008226Y-67859937D01*
X137177744Y-67973205D01*
X137366102Y-68051226D01*
X137566061Y-68091000D01*
X137769939Y-68091000D01*
X137969898Y-68051226D01*
X138158256Y-67973205D01*
X138327774Y-67859937D01*
X138471937Y-67715774D01*
X138585205Y-67546256D01*
X138663226Y-67357898D01*
X138703000Y-67157939D01*
X138703000Y-66954061D01*
X138663226Y-66754102D01*
X138585205Y-66565744D01*
X138471937Y-66396226D01*
X138428000Y-66352289D01*
X138428000Y-61274801D01*
X139739802Y-59963000D01*
X139801939Y-59963000D01*
X140001898Y-59923226D01*
X140190256Y-59845205D01*
X140359774Y-59731937D01*
X140503937Y-59587774D01*
X140617205Y-59418256D01*
X140695226Y-59229898D01*
X140735000Y-59029939D01*
X140735000Y-58962999D01*
X147042198Y-58962999D01*
X147047000Y-58967801D01*
X147047000Y-59029939D01*
X147086774Y-59229898D01*
X147164795Y-59418256D01*
X147278063Y-59587774D01*
X147422226Y-59731937D01*
X147591744Y-59845205D01*
X147780102Y-59923226D01*
X147980061Y-59963000D01*
X148183939Y-59963000D01*
X148383898Y-59923226D01*
X148572256Y-59845205D01*
X148741774Y-59731937D01*
X148885937Y-59587774D01*
X148999205Y-59418256D01*
X149077226Y-59229898D01*
X149117000Y-59029939D01*
X149117000Y-58826061D01*
X149077226Y-58626102D01*
X148999205Y-58437744D01*
X148885937Y-58268226D01*
X148741774Y-58124063D01*
X148572256Y-58010795D01*
X148383898Y-57932774D01*
X148183939Y-57893000D01*
X148121801Y-57893000D01*
X147920802Y-57692001D01*
X147897000Y-57662998D01*
X147781275Y-57568025D01*
X147649246Y-57497453D01*
X147505985Y-57453996D01*
X147394332Y-57442999D01*
X147394321Y-57442999D01*
X147356999Y-57439323D01*
X147319677Y-57442999D01*
X133858323Y-57442999D01*
X133821000Y-57439323D01*
X133783677Y-57442999D01*
X133783668Y-57442999D01*
X133672015Y-57453996D01*
X133528754Y-57497453D01*
X133396724Y-57568025D01*
X133338190Y-57616063D01*
X133281000Y-57662998D01*
X133257202Y-57691996D01*
X127976199Y-62973000D01*
X127914061Y-62973000D01*
X127714102Y-63012774D01*
X127525744Y-63090795D01*
X127356226Y-63204063D01*
X127212063Y-63348226D01*
X127098795Y-63517744D01*
X127020774Y-63706102D01*
X126981000Y-63906061D01*
X87775320Y-63906061D01*
X87775320Y-51872011D01*
X87819257Y-51828074D01*
X87932525Y-51658556D01*
X88010546Y-51470198D01*
X88050320Y-51270239D01*
X88050320Y-51066361D01*
X88010546Y-50866402D01*
X87932525Y-50678044D01*
X87856992Y-50565000D01*
X87879554Y-50565000D01*
X91675000Y-54360447D01*
X91675000Y-54457939D01*
X91714774Y-54657898D01*
X91792795Y-54846256D01*
X91906063Y-55015774D01*
X92050226Y-55159937D01*
X92219744Y-55273205D01*
X92408102Y-55351226D01*
X92608061Y-55391000D01*
X92811939Y-55391000D01*
X93011898Y-55351226D01*
X93200256Y-55273205D01*
X93369774Y-55159937D01*
X93513937Y-55015774D01*
X93627205Y-54846256D01*
X93705226Y-54657898D01*
X93745000Y-54457939D01*
X93745000Y-54254061D01*
X93705226Y-54054102D01*
X93627205Y-53865744D01*
X93513937Y-53696226D01*
X93369774Y-53552063D01*
X93200256Y-53438795D01*
X93011898Y-53360774D01*
X92811939Y-53321000D01*
X92714447Y-53321000D01*
X90980508Y-51587061D01*
X91802000Y-51587061D01*
X91802000Y-51790939D01*
X91841774Y-51990898D01*
X91919795Y-52179256D01*
X92033063Y-52348774D01*
X92177226Y-52492937D01*
X92346744Y-52606205D01*
X92535102Y-52684226D01*
X92735061Y-52724000D01*
X92938939Y-52724000D01*
X93138898Y-52684226D01*
X93327256Y-52606205D01*
X93496774Y-52492937D01*
X93640937Y-52348774D01*
X93754205Y-52179256D01*
X93832226Y-51990898D01*
X93872000Y-51790939D01*
X93872000Y-51693446D01*
X94492447Y-51073000D01*
X94589939Y-51073000D01*
X94789898Y-51033226D01*
X94978256Y-50955205D01*
X95147774Y-50841937D01*
X95291937Y-50697774D01*
X95405205Y-50528256D01*
X95483226Y-50339898D01*
X95523000Y-50139939D01*
X95523000Y-49936061D01*
X95483226Y-49736102D01*
X95405205Y-49547744D01*
X95291937Y-49378226D01*
X95147774Y-49234063D01*
X94978256Y-49120795D01*
X94789898Y-49042774D01*
X94589939Y-49003000D01*
X94386061Y-49003000D01*
X94186102Y-49042774D01*
X93997744Y-49120795D01*
X93828226Y-49234063D01*
X93684063Y-49378226D01*
X93570795Y-49547744D01*
X93492774Y-49736102D01*
X93453000Y-49936061D01*
X93453000Y-50033553D01*
X92832554Y-50654000D01*
X92735061Y-50654000D01*
X92535102Y-50693774D01*
X92346744Y-50771795D01*
X92177226Y-50885063D01*
X92033063Y-51029226D01*
X91919795Y-51198744D01*
X91841774Y-51387102D01*
X91802000Y-51587061D01*
X90980508Y-51587061D01*
X88919000Y-49525554D01*
X88919000Y-49428061D01*
X88879226Y-49228102D01*
X88801205Y-49039744D01*
X88687937Y-48870226D01*
X88543774Y-48726063D01*
X88374256Y-48612795D01*
X88185898Y-48534774D01*
X87985939Y-48495000D01*
X87782061Y-48495000D01*
X87582102Y-48534774D01*
X87393744Y-48612795D01*
X87224226Y-48726063D01*
X87080063Y-48870226D01*
X86966795Y-49039744D01*
X86888774Y-49228102D01*
X86849000Y-49428061D01*
X86849000Y-49631939D01*
X86888774Y-49831898D01*
X86966795Y-50020256D01*
X87042328Y-50133300D01*
X86913381Y-50133300D01*
X86713422Y-50173074D01*
X86525064Y-50251095D01*
X86515519Y-50257473D01*
X86456556Y-50218075D01*
X86268198Y-50140054D01*
X86068239Y-50100280D01*
X85970747Y-50100280D01*
X85449838Y-49579372D01*
X85426818Y-49551322D01*
X85314900Y-49459473D01*
X85187213Y-49391223D01*
X85048665Y-49349195D01*
X84940685Y-49338560D01*
X84904580Y-49335004D01*
X84868475Y-49338560D01*
X83631771Y-49338560D01*
X83562834Y-49269623D01*
X83393316Y-49156355D01*
X83204958Y-49078334D01*
X83004999Y-49038560D01*
X82801121Y-49038560D01*
X82601162Y-49078334D01*
X82412804Y-49156355D01*
X82243286Y-49269623D01*
X82099123Y-49413786D01*
X81985855Y-49583304D01*
X81907834Y-49771662D01*
X81868060Y-49971621D01*
X79423350Y-49971621D01*
X79481226Y-49831898D01*
X79521000Y-49631939D01*
X79521000Y-49569801D01*
X82965813Y-46124989D01*
X97065406Y-46124989D01*
X97063928Y-46140000D01*
X97063928Y-47840000D01*
X97076188Y-47964482D01*
X97112498Y-48084180D01*
X97171463Y-48194494D01*
X97250815Y-48291185D01*
X97347506Y-48370537D01*
X97457820Y-48429502D01*
X97530380Y-48451513D01*
X97398525Y-48583368D01*
X97236010Y-48826589D01*
X97124068Y-49096842D01*
X97067000Y-49383740D01*
X97067000Y-49676260D01*
X97124068Y-49963158D01*
X97236010Y-50233411D01*
X97398525Y-50476632D01*
X97605368Y-50683475D01*
X97848589Y-50845990D01*
X98118842Y-50957932D01*
X98405740Y-51015000D01*
X98698260Y-51015000D01*
X98985158Y-50957932D01*
X99255411Y-50845990D01*
X99498632Y-50683475D01*
X99705475Y-50476632D01*
X99822000Y-50302240D01*
X99938525Y-50476632D01*
X100145368Y-50683475D01*
X100388589Y-50845990D01*
X100658842Y-50957932D01*
X100945740Y-51015000D01*
X101238260Y-51015000D01*
X101525158Y-50957932D01*
X101795411Y-50845990D01*
X102038632Y-50683475D01*
X102245475Y-50476632D01*
X102367195Y-50294466D01*
X102436822Y-50411355D01*
X102631731Y-50627588D01*
X102865080Y-50801641D01*
X103127901Y-50926825D01*
X103275110Y-50971476D01*
X103505000Y-50850155D01*
X103505000Y-49657000D01*
X103485000Y-49657000D01*
X103485000Y-49403000D01*
X103505000Y-49403000D01*
X103505000Y-47117000D01*
X103485000Y-47117000D01*
X103485000Y-46863000D01*
X103505000Y-46863000D01*
X103505000Y-46843000D01*
X103759000Y-46843000D01*
X103759000Y-46863000D01*
X103779000Y-46863000D01*
X103779000Y-47117000D01*
X103759000Y-47117000D01*
X103759000Y-49403000D01*
X103779000Y-49403000D01*
X103779000Y-49657000D01*
X103759000Y-49657000D01*
X103759000Y-50850155D01*
X103978160Y-50965813D01*
X103961999Y-51047060D01*
X103961999Y-51250938D01*
X104001773Y-51450897D01*
X104079794Y-51639255D01*
X104193062Y-51808773D01*
X104236999Y-51852710D01*
X104237000Y-56605289D01*
X104193062Y-56649227D01*
X104079794Y-56818745D01*
X104001773Y-57007103D01*
X103961999Y-57207062D01*
X103961999Y-57410940D01*
X104001773Y-57610899D01*
X104079794Y-57799257D01*
X104193062Y-57968775D01*
X104337225Y-58112938D01*
X104506743Y-58226206D01*
X104695101Y-58304227D01*
X104895060Y-58344001D01*
X105098938Y-58344001D01*
X105298897Y-58304227D01*
X105487255Y-58226206D01*
X105656773Y-58112938D01*
X105800936Y-57968775D01*
X105914204Y-57799257D01*
X105992225Y-57610899D01*
X106031999Y-57410940D01*
X106031999Y-57207062D01*
X105992225Y-57007103D01*
X105914204Y-56818745D01*
X105800936Y-56649227D01*
X105756999Y-56605290D01*
X105756999Y-51852710D01*
X105800936Y-51808773D01*
X105914204Y-51639255D01*
X105992225Y-51450897D01*
X106031999Y-51250938D01*
X106031999Y-51047060D01*
X106025617Y-51014976D01*
X106025740Y-51015000D01*
X106318260Y-51015000D01*
X106605158Y-50957932D01*
X106875411Y-50845990D01*
X107118632Y-50683475D01*
X107325475Y-50476632D01*
X107442000Y-50302240D01*
X107558525Y-50476632D01*
X107765368Y-50683475D01*
X108008589Y-50845990D01*
X108278842Y-50957932D01*
X108565740Y-51015000D01*
X108858260Y-51015000D01*
X109145158Y-50957932D01*
X109415411Y-50845990D01*
X109658632Y-50683475D01*
X109865475Y-50476632D01*
X110027990Y-50233411D01*
X110139932Y-49963158D01*
X110197000Y-49676260D01*
X110197000Y-49549802D01*
X110744744Y-50097545D01*
X110702063Y-50140226D01*
X110588795Y-50309744D01*
X110510774Y-50498102D01*
X110471000Y-50698061D01*
X110471000Y-50901939D01*
X110510774Y-51101898D01*
X110588795Y-51290256D01*
X110702063Y-51459774D01*
X110846226Y-51603937D01*
X111015744Y-51717205D01*
X111204102Y-51795226D01*
X111404061Y-51835000D01*
X111607939Y-51835000D01*
X111807898Y-51795226D01*
X111996256Y-51717205D01*
X112165774Y-51603937D01*
X112309937Y-51459774D01*
X112423205Y-51290256D01*
X112501226Y-51101898D01*
X112541000Y-50901939D01*
X112541000Y-50698061D01*
X112501226Y-50498102D01*
X112423205Y-50309744D01*
X112309937Y-50140226D01*
X112266000Y-50096289D01*
X112266000Y-49821325D01*
X112269676Y-49784000D01*
X112266000Y-49746675D01*
X112266000Y-49746667D01*
X112255003Y-49635014D01*
X112211546Y-49491753D01*
X112140974Y-49359724D01*
X112046001Y-49243999D01*
X112017003Y-49220201D01*
X110153209Y-47356408D01*
X110197000Y-47136260D01*
X110197000Y-46843740D01*
X110143544Y-46574999D01*
X110778198Y-46574999D01*
X112988876Y-48785678D01*
X112789808Y-48984746D01*
X112761762Y-49007763D01*
X112669913Y-49119681D01*
X112601663Y-49247368D01*
X112578442Y-49323917D01*
X112559635Y-49385915D01*
X112545444Y-49530000D01*
X112549000Y-49566105D01*
X112549001Y-53881288D01*
X112480063Y-53950226D01*
X112366795Y-54119744D01*
X112288774Y-54308102D01*
X112249000Y-54508061D01*
X112249000Y-54711939D01*
X112288774Y-54911898D01*
X112366795Y-55100256D01*
X112480063Y-55269774D01*
X112624226Y-55413937D01*
X112793744Y-55527205D01*
X112982102Y-55605226D01*
X113182061Y-55645000D01*
X113385939Y-55645000D01*
X113585898Y-55605226D01*
X113774256Y-55527205D01*
X113943774Y-55413937D01*
X114087937Y-55269774D01*
X114201205Y-55100256D01*
X114279226Y-54911898D01*
X114284974Y-54883000D01*
X114401939Y-54883000D01*
X114601898Y-54843226D01*
X114790256Y-54765205D01*
X114959774Y-54651937D01*
X115103937Y-54507774D01*
X115217205Y-54338256D01*
X115295226Y-54149898D01*
X115325500Y-53997697D01*
X115333744Y-54003205D01*
X115522102Y-54081226D01*
X115722061Y-54121000D01*
X115925939Y-54121000D01*
X116125898Y-54081226D01*
X116314256Y-54003205D01*
X116332430Y-53991061D01*
X122672000Y-53991061D01*
X122672000Y-54194939D01*
X122711774Y-54394898D01*
X122789795Y-54583256D01*
X122903063Y-54752774D01*
X123047226Y-54896937D01*
X123216744Y-55010205D01*
X123405102Y-55088226D01*
X123605061Y-55128000D01*
X123808939Y-55128000D01*
X124008898Y-55088226D01*
X124197256Y-55010205D01*
X124366774Y-54896937D01*
X124410711Y-54853000D01*
X126287289Y-54853000D01*
X126331226Y-54896937D01*
X126500744Y-55010205D01*
X126689102Y-55088226D01*
X126889061Y-55128000D01*
X127092939Y-55128000D01*
X127292898Y-55088226D01*
X127481256Y-55010205D01*
X127650774Y-54896937D01*
X127794937Y-54752774D01*
X127908205Y-54583256D01*
X127986226Y-54394898D01*
X128026000Y-54194939D01*
X128026000Y-53991061D01*
X127986226Y-53791102D01*
X127908205Y-53602744D01*
X127794937Y-53433226D01*
X127650774Y-53289063D01*
X127481256Y-53175795D01*
X127292898Y-53097774D01*
X127092939Y-53058000D01*
X126889061Y-53058000D01*
X126689102Y-53097774D01*
X126500744Y-53175795D01*
X126331226Y-53289063D01*
X126287289Y-53333000D01*
X124410711Y-53333000D01*
X124366774Y-53289063D01*
X124197256Y-53175795D01*
X124008898Y-53097774D01*
X123808939Y-53058000D01*
X123605061Y-53058000D01*
X123405102Y-53097774D01*
X123216744Y-53175795D01*
X123047226Y-53289063D01*
X122903063Y-53433226D01*
X122789795Y-53602744D01*
X122711774Y-53791102D01*
X122672000Y-53991061D01*
X116332430Y-53991061D01*
X116483774Y-53889937D01*
X116627937Y-53745774D01*
X116741205Y-53576256D01*
X116819226Y-53387898D01*
X116849500Y-53235697D01*
X116857744Y-53241205D01*
X117046102Y-53319226D01*
X117246061Y-53359000D01*
X117449939Y-53359000D01*
X117649898Y-53319226D01*
X117838256Y-53241205D01*
X118007774Y-53127937D01*
X118151937Y-52983774D01*
X118265205Y-52814256D01*
X118343226Y-52625898D01*
X118373500Y-52473697D01*
X118381744Y-52479205D01*
X118570102Y-52557226D01*
X118770061Y-52597000D01*
X118973939Y-52597000D01*
X119173898Y-52557226D01*
X119362256Y-52479205D01*
X119531774Y-52365937D01*
X119675937Y-52221774D01*
X119789205Y-52052256D01*
X119867226Y-51863898D01*
X119899612Y-51701081D01*
X119923744Y-51717205D01*
X120112102Y-51795226D01*
X120312061Y-51835000D01*
X120515939Y-51835000D01*
X120715898Y-51795226D01*
X120904256Y-51717205D01*
X121073774Y-51603937D01*
X121217937Y-51459774D01*
X121331205Y-51290256D01*
X121409226Y-51101898D01*
X121449000Y-50901939D01*
X121449000Y-50804447D01*
X121650438Y-50603009D01*
X121665907Y-50603009D01*
X121647000Y-50698061D01*
X121647000Y-50901939D01*
X121686774Y-51101898D01*
X121764795Y-51290256D01*
X121878063Y-51459774D01*
X122022226Y-51603937D01*
X122191744Y-51717205D01*
X122380102Y-51795226D01*
X122580061Y-51835000D01*
X122783939Y-51835000D01*
X122983898Y-51795226D01*
X123172256Y-51717205D01*
X123341774Y-51603937D01*
X123410711Y-51535000D01*
X125693895Y-51535000D01*
X125730000Y-51538556D01*
X125766105Y-51535000D01*
X125874085Y-51524365D01*
X126012633Y-51482337D01*
X126140320Y-51414087D01*
X126252238Y-51322238D01*
X126275258Y-51294188D01*
X127766447Y-49803000D01*
X127863939Y-49803000D01*
X128063898Y-49763226D01*
X128252256Y-49685205D01*
X128421774Y-49571937D01*
X128565937Y-49427774D01*
X128679205Y-49258256D01*
X128757226Y-49069898D01*
X128797000Y-48869939D01*
X128797000Y-48666061D01*
X128757226Y-48466102D01*
X128679205Y-48277744D01*
X128565937Y-48108226D01*
X128421774Y-47964063D01*
X128252256Y-47850795D01*
X128063898Y-47772774D01*
X127863939Y-47733000D01*
X127660061Y-47733000D01*
X127460102Y-47772774D01*
X127271744Y-47850795D01*
X127102226Y-47964063D01*
X126958063Y-48108226D01*
X126844795Y-48277744D01*
X126766774Y-48466102D01*
X126727000Y-48666061D01*
X126727000Y-48763553D01*
X126483783Y-49006771D01*
X126511000Y-48869939D01*
X126511000Y-48666061D01*
X126471226Y-48466102D01*
X126393205Y-48277744D01*
X126279937Y-48108226D01*
X126135774Y-47964063D01*
X125966256Y-47850795D01*
X125777898Y-47772774D01*
X125577939Y-47733000D01*
X125374061Y-47733000D01*
X125174102Y-47772774D01*
X124985744Y-47850795D01*
X124816226Y-47964063D01*
X124672063Y-48108226D01*
X124558795Y-48277744D01*
X124480774Y-48466102D01*
X124441000Y-48666061D01*
X124441000Y-48763553D01*
X124197783Y-49006771D01*
X124225000Y-48869939D01*
X124225000Y-48666061D01*
X124185226Y-48466102D01*
X124107205Y-48277744D01*
X123993937Y-48108226D01*
X123849774Y-47964063D01*
X123680256Y-47850795D01*
X123491898Y-47772774D01*
X123291939Y-47733000D01*
X123088061Y-47733000D01*
X122888102Y-47772774D01*
X122699744Y-47850795D01*
X122530226Y-47964063D01*
X122386063Y-48108226D01*
X122272795Y-48277744D01*
X122194774Y-48466102D01*
X122155000Y-48666061D01*
X122155000Y-48733001D01*
X121939000Y-48733001D01*
X121939000Y-48666061D01*
X121899226Y-48466102D01*
X121821205Y-48277744D01*
X121707937Y-48108226D01*
X121563774Y-47964063D01*
X121394256Y-47850795D01*
X121205898Y-47772774D01*
X121005939Y-47733000D01*
X120802061Y-47733000D01*
X120602102Y-47772774D01*
X120413744Y-47850795D01*
X120244226Y-47964063D01*
X120151776Y-48056513D01*
X120055682Y-48085663D01*
X119927995Y-48153913D01*
X119816077Y-48245762D01*
X119793061Y-48273807D01*
X119609577Y-48457292D01*
X119535205Y-48277744D01*
X119421937Y-48108226D01*
X119277774Y-47964063D01*
X119108256Y-47850795D01*
X118919898Y-47772774D01*
X118719939Y-47733000D01*
X118516061Y-47733000D01*
X118316102Y-47772774D01*
X118127744Y-47850795D01*
X117958226Y-47964063D01*
X117814063Y-48108226D01*
X117700795Y-48277744D01*
X117622774Y-48466102D01*
X117583000Y-48666061D01*
X117583000Y-48763553D01*
X117339783Y-49006771D01*
X117367000Y-48869939D01*
X117367000Y-48666061D01*
X117327226Y-48466102D01*
X117249205Y-48277744D01*
X117135937Y-48108226D01*
X116991774Y-47964063D01*
X116822256Y-47850795D01*
X116633898Y-47772774D01*
X116433939Y-47733000D01*
X116230061Y-47733000D01*
X116030102Y-47772774D01*
X115841744Y-47850795D01*
X115672226Y-47964063D01*
X115528063Y-48108226D01*
X115414795Y-48277744D01*
X115336774Y-48466102D01*
X115297000Y-48666061D01*
X115297000Y-48763553D01*
X115053783Y-49006771D01*
X115081000Y-48869939D01*
X115081000Y-48666061D01*
X115041226Y-48466102D01*
X114963205Y-48277744D01*
X114849937Y-48108226D01*
X114705774Y-47964063D01*
X114536256Y-47850795D01*
X114347898Y-47772774D01*
X114147939Y-47733000D01*
X114085802Y-47733000D01*
X112477790Y-46124989D01*
X126781186Y-46124989D01*
X129427199Y-48771003D01*
X129450997Y-48800001D01*
X129566722Y-48894974D01*
X129698751Y-48965546D01*
X129796001Y-48995046D01*
X129796000Y-56192289D01*
X129752063Y-56236226D01*
X129638795Y-56405744D01*
X129560774Y-56594102D01*
X129521000Y-56794061D01*
X129521000Y-56856198D01*
X128012998Y-58364201D01*
X127984000Y-58387999D01*
X127960202Y-58416997D01*
X127960201Y-58416998D01*
X127889026Y-58503724D01*
X127818454Y-58635754D01*
X127795251Y-58712247D01*
X127774998Y-58779014D01*
X127764001Y-58890667D01*
X127760324Y-58928000D01*
X127764001Y-58965332D01*
X127764001Y-59240288D01*
X127720063Y-59284226D01*
X127606795Y-59453744D01*
X127528774Y-59642102D01*
X127489000Y-59842061D01*
X127489000Y-60045939D01*
X127528774Y-60245898D01*
X127606795Y-60434256D01*
X127720063Y-60603774D01*
X127864226Y-60747937D01*
X128033744Y-60861205D01*
X128222102Y-60939226D01*
X128422061Y-60979000D01*
X128625939Y-60979000D01*
X128825898Y-60939226D01*
X129014256Y-60861205D01*
X129183774Y-60747937D01*
X129327937Y-60603774D01*
X129441205Y-60434256D01*
X129519226Y-60245898D01*
X129559000Y-60045939D01*
X129559000Y-59842061D01*
X129519226Y-59642102D01*
X129441205Y-59453744D01*
X129327937Y-59284226D01*
X129285256Y-59241545D01*
X130595802Y-57931000D01*
X130657939Y-57931000D01*
X130857898Y-57891226D01*
X131046256Y-57813205D01*
X131215774Y-57699937D01*
X131359937Y-57555774D01*
X131473205Y-57386256D01*
X131551226Y-57197898D01*
X131591000Y-56997939D01*
X131591000Y-56794061D01*
X131551226Y-56594102D01*
X131473205Y-56405744D01*
X131359937Y-56236226D01*
X131316000Y-56192289D01*
X131316000Y-48574801D01*
X132627802Y-47263000D01*
X132689939Y-47263000D01*
X132889898Y-47223226D01*
X133078256Y-47145205D01*
X133247774Y-47031937D01*
X133391937Y-46887774D01*
X133505205Y-46718256D01*
X133583226Y-46529898D01*
X133623000Y-46329939D01*
X133623000Y-46262999D01*
X138702208Y-46262999D01*
X138704774Y-46275898D01*
X138782795Y-46464256D01*
X138896063Y-46633774D01*
X139040226Y-46777937D01*
X139209744Y-46891205D01*
X139398102Y-46969226D01*
X139598061Y-47009000D01*
X139801939Y-47009000D01*
X140001898Y-46969226D01*
X140190256Y-46891205D01*
X140359774Y-46777937D01*
X140430133Y-46707578D01*
X152636748Y-58914193D01*
X152659764Y-58942238D01*
X152710406Y-58983799D01*
X152771682Y-59034087D01*
X152899368Y-59102337D01*
X153037917Y-59144365D01*
X153182002Y-59158556D01*
X153218107Y-59155000D01*
X155989289Y-59155000D01*
X156058226Y-59223937D01*
X156227744Y-59337205D01*
X156416102Y-59415226D01*
X156616061Y-59455000D01*
X156819939Y-59455000D01*
X157019898Y-59415226D01*
X157208256Y-59337205D01*
X157377774Y-59223937D01*
X157421711Y-59180000D01*
X158966678Y-59180000D01*
X159004000Y-59183676D01*
X159041322Y-59180000D01*
X159041333Y-59180000D01*
X159152986Y-59169003D01*
X159296247Y-59125546D01*
X159428276Y-59054974D01*
X159544001Y-58960001D01*
X159554671Y-58947000D01*
X159613939Y-58947000D01*
X159813898Y-58907226D01*
X160002256Y-58829205D01*
X160171774Y-58715937D01*
X160315937Y-58571774D01*
X160429205Y-58402256D01*
X160507226Y-58213898D01*
X160547000Y-58013939D01*
X160547000Y-57810061D01*
X160507226Y-57610102D01*
X160429205Y-57421744D01*
X160315937Y-57252226D01*
X160171774Y-57108063D01*
X160002256Y-56994795D01*
X159813898Y-56916774D01*
X159613939Y-56877000D01*
X159410061Y-56877000D01*
X159210102Y-56916774D01*
X159021744Y-56994795D01*
X158852226Y-57108063D01*
X158708063Y-57252226D01*
X158594795Y-57421744D01*
X158516774Y-57610102D01*
X158506849Y-57660000D01*
X157421711Y-57660000D01*
X157377774Y-57616063D01*
X157208256Y-57502795D01*
X157019898Y-57424774D01*
X156819939Y-57385000D01*
X156616061Y-57385000D01*
X156416102Y-57424774D01*
X156227744Y-57502795D01*
X156058226Y-57616063D01*
X155989289Y-57685000D01*
X153486449Y-57685000D01*
X149801510Y-54000061D01*
X164319000Y-54000061D01*
X164319000Y-54203939D01*
X164358774Y-54403898D01*
X164436795Y-54592256D01*
X164550063Y-54761774D01*
X164694226Y-54905937D01*
X164863744Y-55019205D01*
X165052102Y-55097226D01*
X165252061Y-55137000D01*
X165455939Y-55137000D01*
X165655898Y-55097226D01*
X165844256Y-55019205D01*
X166013774Y-54905937D01*
X166057711Y-54862000D01*
X169888678Y-54862000D01*
X169926000Y-54865676D01*
X169963322Y-54862000D01*
X169963333Y-54862000D01*
X170074986Y-54851003D01*
X170218247Y-54807546D01*
X170350276Y-54736974D01*
X170466001Y-54642001D01*
X170489804Y-54612998D01*
X171058635Y-54044167D01*
X171148102Y-54081226D01*
X171348061Y-54121000D01*
X171551939Y-54121000D01*
X171751898Y-54081226D01*
X171940256Y-54003205D01*
X172109774Y-53889937D01*
X172253937Y-53745774D01*
X172367205Y-53576256D01*
X172445226Y-53387898D01*
X172485000Y-53187939D01*
X172485000Y-52984061D01*
X172445226Y-52784102D01*
X172367205Y-52595744D01*
X172253937Y-52426226D01*
X172109774Y-52282063D01*
X171940256Y-52168795D01*
X171751898Y-52090774D01*
X171551939Y-52051000D01*
X171348061Y-52051000D01*
X171148102Y-52090774D01*
X170959744Y-52168795D01*
X170790226Y-52282063D01*
X170710158Y-52362131D01*
X170679812Y-52371336D01*
X170649753Y-52380454D01*
X170517723Y-52451026D01*
X170434083Y-52519668D01*
X170401999Y-52545999D01*
X170378201Y-52574997D01*
X169611199Y-53342000D01*
X166057711Y-53342000D01*
X166013774Y-53298063D01*
X165844256Y-53184795D01*
X165655898Y-53106774D01*
X165455939Y-53067000D01*
X165252061Y-53067000D01*
X165052102Y-53106774D01*
X164863744Y-53184795D01*
X164694226Y-53298063D01*
X164550063Y-53442226D01*
X164436795Y-53611744D01*
X164358774Y-53800102D01*
X164319000Y-54000061D01*
X149801510Y-54000061D01*
X143950510Y-48149061D01*
X147546000Y-48149061D01*
X147546000Y-48352939D01*
X147585774Y-48552898D01*
X147663795Y-48741256D01*
X147683158Y-48770235D01*
X147672795Y-48785744D01*
X147594774Y-48974102D01*
X147555000Y-49174061D01*
X147555000Y-49377939D01*
X147594774Y-49577898D01*
X147672795Y-49766256D01*
X147786063Y-49935774D01*
X147930226Y-50079937D01*
X148099744Y-50193205D01*
X148288102Y-50271226D01*
X148488061Y-50311000D01*
X148691939Y-50311000D01*
X148891898Y-50271226D01*
X149080256Y-50193205D01*
X149249774Y-50079937D01*
X149293711Y-50036000D01*
X150076678Y-50036000D01*
X150114000Y-50039676D01*
X150151322Y-50036000D01*
X150151333Y-50036000D01*
X150262986Y-50025003D01*
X150406247Y-49981546D01*
X150538276Y-49910974D01*
X150654001Y-49816001D01*
X150677804Y-49786997D01*
X152947802Y-47517000D01*
X153009939Y-47517000D01*
X153209898Y-47477226D01*
X153398256Y-47399205D01*
X153567774Y-47285937D01*
X153711937Y-47141774D01*
X153825205Y-46972256D01*
X153903226Y-46783898D01*
X153943000Y-46583939D01*
X153943000Y-46516999D01*
X159742198Y-46516999D01*
X161017000Y-47791802D01*
X161017000Y-47853939D01*
X161056774Y-48053898D01*
X161134795Y-48242256D01*
X161248063Y-48411774D01*
X161392226Y-48555937D01*
X161561744Y-48669205D01*
X161750102Y-48747226D01*
X161950061Y-48787000D01*
X162153939Y-48787000D01*
X162353898Y-48747226D01*
X162542256Y-48669205D01*
X162711774Y-48555937D01*
X162855937Y-48411774D01*
X162969205Y-48242256D01*
X163047226Y-48053898D01*
X163087000Y-47853939D01*
X163087000Y-47650061D01*
X163047226Y-47450102D01*
X162969205Y-47261744D01*
X162855937Y-47092226D01*
X162711774Y-46948063D01*
X162542256Y-46834795D01*
X162353898Y-46756774D01*
X162153939Y-46717000D01*
X162091802Y-46717000D01*
X160620803Y-45246001D01*
X160597000Y-45216998D01*
X160481275Y-45122025D01*
X160349246Y-45051453D01*
X160205985Y-45007996D01*
X160094332Y-44996999D01*
X160094321Y-44996999D01*
X160056999Y-44993323D01*
X160019677Y-44996999D01*
X152597321Y-44996999D01*
X152559998Y-44993323D01*
X152522675Y-44996999D01*
X152522666Y-44996999D01*
X152411013Y-45007996D01*
X152268181Y-45051323D01*
X152267752Y-45051453D01*
X152135722Y-45122025D01*
X152052082Y-45190667D01*
X152019998Y-45216998D01*
X151996200Y-45245996D01*
X149751197Y-47491000D01*
X149284711Y-47491000D01*
X149240774Y-47447063D01*
X149071256Y-47333795D01*
X148882898Y-47255774D01*
X148682939Y-47216000D01*
X148479061Y-47216000D01*
X148279102Y-47255774D01*
X148090744Y-47333795D01*
X147921226Y-47447063D01*
X147777063Y-47591226D01*
X147663795Y-47760744D01*
X147585774Y-47949102D01*
X147546000Y-48149061D01*
X143950510Y-48149061D01*
X138238341Y-42436893D01*
X138215320Y-42408842D01*
X138103402Y-42316993D01*
X137975715Y-42248743D01*
X137837167Y-42206715D01*
X137729187Y-42196080D01*
X137693082Y-42192524D01*
X137656977Y-42196080D01*
X95143051Y-42196080D01*
X95074114Y-42127143D01*
X94904596Y-42013875D01*
X94716238Y-41935854D01*
X94516279Y-41896080D01*
X94312401Y-41896080D01*
X94112442Y-41935854D01*
X93924084Y-42013875D01*
X93754566Y-42127143D01*
X93610403Y-42271306D01*
X93497135Y-42440824D01*
X93419114Y-42629182D01*
X93379340Y-42829141D01*
X93379340Y-43033019D01*
X93419114Y-43232978D01*
X93497135Y-43421336D01*
X93610403Y-43590854D01*
X93754566Y-43735017D01*
X93924084Y-43848285D01*
X94112442Y-43926306D01*
X94312401Y-43966080D01*
X94516279Y-43966080D01*
X94716238Y-43926306D01*
X94904596Y-43848285D01*
X95074114Y-43735017D01*
X95143051Y-43666080D01*
X137388636Y-43666080D01*
X138465555Y-44742999D01*
X130330084Y-44742999D01*
X130314263Y-44730015D01*
X130182234Y-44659443D01*
X130038973Y-44615986D01*
X129927320Y-44604989D01*
X127133309Y-44604989D01*
X127095987Y-44601313D01*
X127058665Y-44604989D01*
X82688333Y-44604989D01*
X82651010Y-44601313D01*
X82613687Y-44604989D01*
X82613678Y-44604989D01*
X82502025Y-44615986D01*
X82358764Y-44659443D01*
X82226734Y-44730015D01*
X82143094Y-44798657D01*
X82111010Y-44824988D01*
X82087212Y-44853986D01*
X78446199Y-48495000D01*
X78384061Y-48495000D01*
X78184102Y-48534774D01*
X77995744Y-48612795D01*
X77826226Y-48726063D01*
X77682063Y-48870226D01*
X77568795Y-49039744D01*
X77490774Y-49228102D01*
X77451000Y-49428061D01*
X60471000Y-49428061D01*
X60471000Y-49377261D01*
X60431226Y-49177302D01*
X60353205Y-48988944D01*
X60239937Y-48819426D01*
X60095774Y-48675263D01*
X59926256Y-48561995D01*
X59737898Y-48483974D01*
X59537939Y-48444200D01*
X59334061Y-48444200D01*
X59134102Y-48483974D01*
X58945744Y-48561995D01*
X58776226Y-48675263D01*
X58632063Y-48819426D01*
X58518795Y-48988944D01*
X58440774Y-49177302D01*
X58401000Y-49377261D01*
X56152252Y-49377261D01*
X56081206Y-49205743D01*
X55967938Y-49036225D01*
X55823775Y-48892062D01*
X55654257Y-48778794D01*
X55465899Y-48700773D01*
X55265940Y-48660999D01*
X55062062Y-48660999D01*
X54862103Y-48700773D01*
X54673745Y-48778794D01*
X54504227Y-48892062D01*
X54460290Y-48935999D01*
X52957334Y-48935999D01*
X52920001Y-48932322D01*
X52882668Y-48935999D01*
X52771015Y-48946996D01*
X52627754Y-48990453D01*
X52495725Y-49061025D01*
X52380000Y-49155998D01*
X52285027Y-49271723D01*
X52214455Y-49403752D01*
X52170998Y-49547013D01*
X52156324Y-49695999D01*
X52160001Y-49733332D01*
X52160002Y-51724198D01*
X51530956Y-52353245D01*
X51459774Y-52282063D01*
X51290256Y-52168795D01*
X51101898Y-52090774D01*
X50901939Y-52051000D01*
X50698061Y-52051000D01*
X50498102Y-52090774D01*
X50309744Y-52168795D01*
X50140226Y-52282063D01*
X50096289Y-52326000D01*
X49764320Y-52326000D01*
X49726997Y-52322324D01*
X49689674Y-52326000D01*
X49689665Y-52326000D01*
X49578012Y-52336997D01*
X49434751Y-52380454D01*
X49302722Y-52451026D01*
X49186997Y-52545999D01*
X49163199Y-52574997D01*
X42197997Y-59540200D01*
X42168999Y-59563998D01*
X42145201Y-59592996D01*
X42145200Y-59592997D01*
X42074025Y-59679723D01*
X42003453Y-59811753D01*
X41995008Y-59839595D01*
X41959996Y-59955013D01*
X41948999Y-60066666D01*
X41948999Y-60066677D01*
X41945323Y-60103999D01*
X41948999Y-60141321D01*
X41948999Y-60762679D01*
X41945323Y-60800001D01*
X41948999Y-60837323D01*
X41948999Y-60837333D01*
X41959996Y-60948986D01*
X42003453Y-61092247D01*
X42074025Y-61224277D01*
X42111384Y-61269799D01*
X42168998Y-61340002D01*
X42198001Y-61363805D01*
X43092599Y-62258403D01*
X43116397Y-62287401D01*
X43145395Y-62311199D01*
X43232122Y-62382374D01*
X43364151Y-62452946D01*
X43507412Y-62496403D01*
X43656398Y-62511077D01*
X43693731Y-62507400D01*
X48980057Y-62507400D01*
X49094848Y-62584101D01*
X49283206Y-62662122D01*
X49483165Y-62701896D01*
X49602734Y-62701896D01*
X49522344Y-62735195D01*
X49352826Y-62848463D01*
X49210976Y-62990313D01*
X49123939Y-62973000D01*
X48920061Y-62973000D01*
X48720102Y-63012774D01*
X48531744Y-63090795D01*
X48362226Y-63204063D01*
X48218063Y-63348226D01*
X48104795Y-63517744D01*
X48026774Y-63706102D01*
X47987000Y-63906061D01*
X47987000Y-64109939D01*
X48026774Y-64309898D01*
X48104795Y-64498256D01*
X48117672Y-64517528D01*
X47722400Y-64912801D01*
X41657237Y-64912801D01*
X41686026Y-64843298D01*
X41725800Y-64643339D01*
X41725800Y-64439461D01*
X41686026Y-64239502D01*
X41608005Y-64051144D01*
X41494737Y-63881626D01*
X41350574Y-63737463D01*
X41181056Y-63624195D01*
X40992698Y-63546174D01*
X40847575Y-63517307D01*
X40631901Y-63301634D01*
X40631901Y-61060386D01*
X40714106Y-60937357D01*
X40792127Y-60748999D01*
X40831901Y-60549040D01*
X40831901Y-60345162D01*
X40792127Y-60145203D01*
X40714106Y-59956845D01*
X40600838Y-59787327D01*
X40456675Y-59643164D01*
X40287157Y-59529896D01*
X40098799Y-59451875D01*
X39898840Y-59412101D01*
X39694962Y-59412101D01*
X39495003Y-59451875D01*
X39306645Y-59529896D01*
X39137127Y-59643164D01*
X38992964Y-59787327D01*
X38879696Y-59956845D01*
X38801675Y-60145203D01*
X38761901Y-60345162D01*
X38761901Y-60549040D01*
X38801675Y-60748999D01*
X38879696Y-60937357D01*
X38961901Y-61060386D01*
X38961902Y-63606473D01*
X38957861Y-63647501D01*
X38973983Y-63811189D01*
X39021729Y-63968587D01*
X39050274Y-64021990D01*
X37000920Y-64021990D01*
X36963597Y-64018314D01*
X36926274Y-64021990D01*
X36926265Y-64021990D01*
X36814612Y-64032987D01*
X36671351Y-64076444D01*
X36539322Y-64147016D01*
X36539320Y-64147017D01*
X36539321Y-64147017D01*
X36452594Y-64218191D01*
X36452590Y-64218195D01*
X36423597Y-64241989D01*
X36399803Y-64270982D01*
X35625982Y-65044805D01*
X35596979Y-65068607D01*
X35549693Y-65126226D01*
X35502006Y-65184332D01*
X35458436Y-65265845D01*
X35431434Y-65316362D01*
X35387977Y-65459623D01*
X35376980Y-65571276D01*
X35376980Y-65571286D01*
X35373304Y-65608608D01*
X35376980Y-65645930D01*
X35376980Y-67184998D01*
X35249955Y-67184998D01*
X35376119Y-67010126D01*
X35296276Y-66787024D01*
X35174369Y-66599236D01*
X35018169Y-66438839D01*
X34833678Y-66311997D01*
X34627987Y-66223585D01*
X34409000Y-66177000D01*
X33909000Y-66177000D01*
X33655000Y-66177000D01*
X33172000Y-66177000D01*
X33172000Y-59807000D01*
X33655000Y-59807000D01*
X33655000Y-58799000D01*
X33909000Y-58799000D01*
X33909000Y-59807000D01*
X34409000Y-59807000D01*
X34627987Y-59760415D01*
X34833678Y-59672003D01*
X35018169Y-59545161D01*
X35174369Y-59384764D01*
X35296276Y-59196976D01*
X35374710Y-58977810D01*
X36318036Y-58977810D01*
X36401937Y-59210864D01*
X36526953Y-59402441D01*
X36674258Y-59552985D01*
X36611259Y-59647269D01*
X36538892Y-59821978D01*
X36502000Y-60007448D01*
X36502000Y-60196552D01*
X36538892Y-60382022D01*
X36611259Y-60556731D01*
X36716319Y-60713964D01*
X36850036Y-60847681D01*
X37007269Y-60952741D01*
X37181978Y-61025108D01*
X37367448Y-61062000D01*
X37556552Y-61062000D01*
X37742022Y-61025108D01*
X37916731Y-60952741D01*
X38073964Y-60847681D01*
X38207681Y-60713964D01*
X38312741Y-60556731D01*
X38385108Y-60382022D01*
X38422000Y-60196552D01*
X38422000Y-60007448D01*
X38387101Y-59832000D01*
X38614000Y-59832000D01*
X38837865Y-59784934D01*
X39048246Y-59695099D01*
X39237059Y-59565947D01*
X39397047Y-59402441D01*
X39522063Y-59210864D01*
X39605964Y-58977810D01*
X39480163Y-58799000D01*
X38089000Y-58799000D01*
X38089000Y-58819000D01*
X37835000Y-58819000D01*
X37835000Y-58799000D01*
X36443837Y-58799000D01*
X36318036Y-58977810D01*
X35374710Y-58977810D01*
X35376119Y-58973874D01*
X35249954Y-58799000D01*
X33909000Y-58799000D01*
X33655000Y-58799000D01*
X33635000Y-58799000D01*
X33635000Y-58545000D01*
X33655000Y-58545000D01*
X33655000Y-57537000D01*
X33909000Y-57537000D01*
X33909000Y-58545000D01*
X35249954Y-58545000D01*
X35376119Y-58370126D01*
X35374711Y-58366190D01*
X36318036Y-58366190D01*
X36443837Y-58545000D01*
X37835000Y-58545000D01*
X37835000Y-57512000D01*
X38089000Y-57512000D01*
X38089000Y-58545000D01*
X39480163Y-58545000D01*
X39605964Y-58366190D01*
X39522063Y-58133136D01*
X39397047Y-57941559D01*
X39237059Y-57778053D01*
X39048246Y-57648901D01*
X38837865Y-57559066D01*
X38614000Y-57512000D01*
X38089000Y-57512000D01*
X37835000Y-57512000D01*
X37310000Y-57512000D01*
X37086135Y-57559066D01*
X36875754Y-57648901D01*
X36686941Y-57778053D01*
X36526953Y-57941559D01*
X36401937Y-58133136D01*
X36318036Y-58366190D01*
X35374711Y-58366190D01*
X35296276Y-58147024D01*
X35174369Y-57959236D01*
X35018169Y-57798839D01*
X34833678Y-57671997D01*
X34627987Y-57583585D01*
X34409000Y-57537000D01*
X33909000Y-57537000D01*
X33655000Y-57537000D01*
X33172000Y-57537000D01*
X33172000Y-52984061D01*
X37471400Y-52984061D01*
X37471400Y-53187939D01*
X37511174Y-53387898D01*
X37589195Y-53576256D01*
X37702463Y-53745774D01*
X37846626Y-53889937D01*
X38016144Y-54003205D01*
X38204502Y-54081226D01*
X38404461Y-54121000D01*
X38466598Y-54121000D01*
X39123210Y-54777613D01*
X39123210Y-55136677D01*
X39119533Y-55174010D01*
X39134207Y-55322996D01*
X39177664Y-55466257D01*
X39248236Y-55598286D01*
X39343209Y-55714011D01*
X39458934Y-55808984D01*
X39590963Y-55879556D01*
X39734224Y-55923013D01*
X39883210Y-55937687D01*
X39920543Y-55934010D01*
X40152279Y-55934010D01*
X40196216Y-55977947D01*
X40365734Y-56091215D01*
X40554092Y-56169236D01*
X40754051Y-56209010D01*
X40957929Y-56209010D01*
X41157888Y-56169236D01*
X41346246Y-56091215D01*
X41515764Y-55977947D01*
X41659927Y-55833784D01*
X41773195Y-55664266D01*
X41851216Y-55475908D01*
X41890990Y-55275949D01*
X41890990Y-55072071D01*
X41851216Y-54872112D01*
X41773195Y-54683754D01*
X41659927Y-54514236D01*
X41515764Y-54370073D01*
X41346246Y-54256805D01*
X41157888Y-54178784D01*
X40957929Y-54139010D01*
X40754051Y-54139010D01*
X40589135Y-54171814D01*
X40588756Y-54170563D01*
X40518184Y-54038534D01*
X40486610Y-54000061D01*
X40447009Y-53951806D01*
X40447005Y-53951802D01*
X40423211Y-53922809D01*
X40394218Y-53899015D01*
X39541400Y-53046198D01*
X39541400Y-52984061D01*
X39501626Y-52784102D01*
X39423605Y-52595744D01*
X39310337Y-52426226D01*
X39166174Y-52282063D01*
X38996656Y-52168795D01*
X38808298Y-52090774D01*
X38608339Y-52051000D01*
X38404461Y-52051000D01*
X38204502Y-52090774D01*
X38016144Y-52168795D01*
X37846626Y-52282063D01*
X37702463Y-52426226D01*
X37589195Y-52595744D01*
X37511174Y-52784102D01*
X37471400Y-52984061D01*
X33172000Y-52984061D01*
X33172000Y-41431392D01*
X33208333Y-41024285D01*
X33757000Y-41024285D01*
X33757000Y-41779715D01*
X33904377Y-42520628D01*
X34193467Y-43218554D01*
X34613161Y-43846670D01*
X35147330Y-44380839D01*
X35775446Y-44800533D01*
X36473372Y-45089623D01*
X37214285Y-45237000D01*
X37969715Y-45237000D01*
X38710628Y-45089623D01*
X39408554Y-44800533D01*
X40036670Y-44380839D01*
X40570839Y-43846670D01*
X40990533Y-43218554D01*
X41279623Y-42520628D01*
X41427000Y-41779715D01*
X41427000Y-41024285D01*
X185141000Y-41024285D01*
X185141000Y-41779715D01*
X185288377Y-42520628D01*
X185577467Y-43218554D01*
X185997161Y-43846670D01*
X186531330Y-44380839D01*
X187159446Y-44800533D01*
X187857372Y-45089623D01*
X188598285Y-45237000D01*
X189353715Y-45237000D01*
X190094628Y-45089623D01*
X190792554Y-44800533D01*
X191420670Y-44380839D01*
X191954839Y-43846670D01*
X192374533Y-43218554D01*
X192663623Y-42520628D01*
X192811000Y-41779715D01*
X192811000Y-41024285D01*
X192663623Y-40283372D01*
X192374533Y-39585446D01*
X191954839Y-38957330D01*
X191420670Y-38423161D01*
X190792554Y-38003467D01*
X190094628Y-37714377D01*
X189353715Y-37567000D01*
X188598285Y-37567000D01*
X187857372Y-37714377D01*
X187159446Y-38003467D01*
X186531330Y-38423161D01*
X185997161Y-38957330D01*
X185577467Y-39585446D01*
X185288377Y-40283372D01*
X185141000Y-41024285D01*
X41427000Y-41024285D01*
X41279623Y-40283372D01*
X40990533Y-39585446D01*
X40570839Y-38957330D01*
X40036670Y-38423161D01*
X39408554Y-38003467D01*
X38710628Y-37714377D01*
X37969715Y-37567000D01*
X37214285Y-37567000D01*
X36473372Y-37714377D01*
X35775446Y-38003467D01*
X35147330Y-38423161D01*
X34613161Y-38957330D01*
X34193467Y-39585446D01*
X33904377Y-40283372D01*
X33757000Y-41024285D01*
X33208333Y-41024285D01*
X33244437Y-40619751D01*
X33451672Y-39862226D01*
X33789777Y-39153375D01*
X34248067Y-38515596D01*
X34812055Y-37969054D01*
X35463913Y-37531023D01*
X36183038Y-37215349D01*
X36951768Y-37030794D01*
X37616207Y-36982000D01*
X188946608Y-36982000D01*
X189758249Y-37054437D01*
G36*
X49631600Y-77749400D02*
G01*
X49651600Y-77749400D01*
X49651600Y-78003400D01*
X49631600Y-78003400D01*
X49631600Y-78023400D01*
X49377600Y-78023400D01*
X49377600Y-78003400D01*
X49357600Y-78003400D01*
X49357600Y-77749400D01*
X49377600Y-77749400D01*
X49377600Y-77729400D01*
X49631600Y-77729400D01*
X49631600Y-77749400D01*
G37*
X49631600Y-77749400D02*
X49651600Y-77749400D01*
X49651600Y-78003400D01*
X49631600Y-78003400D01*
X49631600Y-78023400D01*
X49377600Y-78023400D01*
X49377600Y-78003400D01*
X49357600Y-78003400D01*
X49357600Y-77749400D01*
X49377600Y-77749400D01*
X49377600Y-77729400D01*
X49631600Y-77729400D01*
X49631600Y-77749400D01*
G36*
X41383000Y-66979461D02*
G01*
X41383000Y-67183339D01*
X41422774Y-67383298D01*
X41500795Y-67571656D01*
X41614063Y-67741174D01*
X41758226Y-67885337D01*
X41927744Y-67998605D01*
X42116102Y-68076626D01*
X42316061Y-68116400D01*
X42378199Y-68116400D01*
X44632424Y-70370626D01*
X44524535Y-70360000D01*
X44524524Y-70360000D01*
X44487202Y-70356324D01*
X44449880Y-70360000D01*
X43121711Y-70360000D01*
X43077774Y-70316063D01*
X42908256Y-70202795D01*
X42719898Y-70124774D01*
X42519939Y-70085000D01*
X42316061Y-70085000D01*
X42116102Y-70124774D01*
X41927744Y-70202795D01*
X41758226Y-70316063D01*
X41614063Y-70460226D01*
X41500795Y-70629744D01*
X41422774Y-70818102D01*
X41383000Y-71018061D01*
X41383000Y-71221939D01*
X41422774Y-71421898D01*
X41500795Y-71610256D01*
X41614063Y-71779774D01*
X41758226Y-71923937D01*
X41927744Y-72037205D01*
X42116102Y-72115226D01*
X42316061Y-72155000D01*
X42519939Y-72155000D01*
X42719898Y-72115226D01*
X42908256Y-72037205D01*
X43077774Y-71923937D01*
X43121711Y-71880000D01*
X44172401Y-71880000D01*
X48845706Y-76553305D01*
X48737680Y-76604759D01*
X48504331Y-76778812D01*
X48309422Y-76995045D01*
X48239795Y-77111934D01*
X48118075Y-76929768D01*
X47911232Y-76722925D01*
X47668011Y-76560410D01*
X47397758Y-76448468D01*
X47110860Y-76391400D01*
X46818340Y-76391400D01*
X46531442Y-76448468D01*
X46261189Y-76560410D01*
X46017968Y-76722925D01*
X45811125Y-76929768D01*
X45694600Y-77104160D01*
X45578075Y-76929768D01*
X45371232Y-76722925D01*
X45128011Y-76560410D01*
X44857758Y-76448468D01*
X44570860Y-76391400D01*
X44278340Y-76391400D01*
X43991442Y-76448468D01*
X43721189Y-76560410D01*
X43477968Y-76722925D01*
X43271125Y-76929768D01*
X43154600Y-77104160D01*
X43038075Y-76929768D01*
X42831232Y-76722925D01*
X42588011Y-76560410D01*
X42317758Y-76448468D01*
X42030860Y-76391400D01*
X41738340Y-76391400D01*
X41518192Y-76435190D01*
X37346990Y-72263989D01*
X37346990Y-68472000D01*
X37835000Y-68472000D01*
X37835000Y-67439000D01*
X38089000Y-67439000D01*
X38089000Y-68472000D01*
X38614000Y-68472000D01*
X38837865Y-68424934D01*
X39048246Y-68335099D01*
X39237059Y-68205947D01*
X39397047Y-68042441D01*
X39522063Y-67850864D01*
X39605964Y-67617810D01*
X39480163Y-67439000D01*
X38089000Y-67439000D01*
X37835000Y-67439000D01*
X37815000Y-67439000D01*
X37815000Y-67185000D01*
X37835000Y-67185000D01*
X37835000Y-67165000D01*
X38089000Y-67165000D01*
X38089000Y-67185000D01*
X39480163Y-67185000D01*
X39605964Y-67006190D01*
X39561547Y-66882811D01*
X41402225Y-66882811D01*
X41383000Y-66979461D01*
G37*
X41383000Y-66979461D02*
X41383000Y-67183339D01*
X41422774Y-67383298D01*
X41500795Y-67571656D01*
X41614063Y-67741174D01*
X41758226Y-67885337D01*
X41927744Y-67998605D01*
X42116102Y-68076626D01*
X42316061Y-68116400D01*
X42378199Y-68116400D01*
X44632424Y-70370626D01*
X44524535Y-70360000D01*
X44524524Y-70360000D01*
X44487202Y-70356324D01*
X44449880Y-70360000D01*
X43121711Y-70360000D01*
X43077774Y-70316063D01*
X42908256Y-70202795D01*
X42719898Y-70124774D01*
X42519939Y-70085000D01*
X42316061Y-70085000D01*
X42116102Y-70124774D01*
X41927744Y-70202795D01*
X41758226Y-70316063D01*
X41614063Y-70460226D01*
X41500795Y-70629744D01*
X41422774Y-70818102D01*
X41383000Y-71018061D01*
X41383000Y-71221939D01*
X41422774Y-71421898D01*
X41500795Y-71610256D01*
X41614063Y-71779774D01*
X41758226Y-71923937D01*
X41927744Y-72037205D01*
X42116102Y-72115226D01*
X42316061Y-72155000D01*
X42519939Y-72155000D01*
X42719898Y-72115226D01*
X42908256Y-72037205D01*
X43077774Y-71923937D01*
X43121711Y-71880000D01*
X44172401Y-71880000D01*
X48845706Y-76553305D01*
X48737680Y-76604759D01*
X48504331Y-76778812D01*
X48309422Y-76995045D01*
X48239795Y-77111934D01*
X48118075Y-76929768D01*
X47911232Y-76722925D01*
X47668011Y-76560410D01*
X47397758Y-76448468D01*
X47110860Y-76391400D01*
X46818340Y-76391400D01*
X46531442Y-76448468D01*
X46261189Y-76560410D01*
X46017968Y-76722925D01*
X45811125Y-76929768D01*
X45694600Y-77104160D01*
X45578075Y-76929768D01*
X45371232Y-76722925D01*
X45128011Y-76560410D01*
X44857758Y-76448468D01*
X44570860Y-76391400D01*
X44278340Y-76391400D01*
X43991442Y-76448468D01*
X43721189Y-76560410D01*
X43477968Y-76722925D01*
X43271125Y-76929768D01*
X43154600Y-77104160D01*
X43038075Y-76929768D01*
X42831232Y-76722925D01*
X42588011Y-76560410D01*
X42317758Y-76448468D01*
X42030860Y-76391400D01*
X41738340Y-76391400D01*
X41518192Y-76435190D01*
X37346990Y-72263989D01*
X37346990Y-68472000D01*
X37835000Y-68472000D01*
X37835000Y-67439000D01*
X38089000Y-67439000D01*
X38089000Y-68472000D01*
X38614000Y-68472000D01*
X38837865Y-68424934D01*
X39048246Y-68335099D01*
X39237059Y-68205947D01*
X39397047Y-68042441D01*
X39522063Y-67850864D01*
X39605964Y-67617810D01*
X39480163Y-67439000D01*
X38089000Y-67439000D01*
X37835000Y-67439000D01*
X37815000Y-67439000D01*
X37815000Y-67185000D01*
X37835000Y-67185000D01*
X37835000Y-67165000D01*
X38089000Y-67165000D01*
X38089000Y-67185000D01*
X39480163Y-67185000D01*
X39605964Y-67006190D01*
X39561547Y-66882811D01*
X41402225Y-66882811D01*
X41383000Y-66979461D01*
%TO.N,V_OUTPUT*%
G36*
X178181000Y-72644000D02*
G01*
X178183440Y-72668776D01*
X178190667Y-72692601D01*
X178202403Y-72714557D01*
X178218197Y-72733803D01*
X178237443Y-72749597D01*
X178259399Y-72761333D01*
X178283224Y-72768560D01*
X178308000Y-72771000D01*
X185657751Y-72771000D01*
X184807702Y-73621048D01*
X187038260Y-73611010D01*
X187048298Y-73621048D01*
X187540844Y-73608748D01*
X187038260Y-73611010D01*
X186198249Y-72771000D01*
X191389000Y-72771000D01*
X191389000Y-77961751D01*
X190284952Y-76857702D01*
X190294990Y-79088260D01*
X191389000Y-77994249D01*
X191389000Y-87503000D01*
X171577000Y-87503000D01*
X171577000Y-82347252D01*
X184315156Y-82347252D01*
X184817740Y-82344990D01*
X185928000Y-83455249D01*
X187048298Y-82334952D01*
X184817740Y-82344990D01*
X184807702Y-82334952D01*
X184315156Y-82347252D01*
X171577000Y-82347252D01*
X171577000Y-77978000D01*
X180450751Y-77978000D01*
X181571048Y-79098298D01*
X190284952Y-79098298D01*
X190297252Y-79590844D01*
X190294990Y-79088260D01*
X190284952Y-79098298D01*
X181571048Y-79098298D01*
X181561010Y-76867740D01*
X180450751Y-77978000D01*
X171577000Y-77978000D01*
X171577000Y-76365156D01*
X181558748Y-76365156D01*
X181561010Y-76867740D01*
X181571048Y-76857702D01*
X181558748Y-76365156D01*
X171577000Y-76365156D01*
X171577000Y-63627000D01*
X178181000Y-63627000D01*
X178181000Y-72644000D01*
G37*
X178181000Y-72644000D02*
X178183440Y-72668776D01*
X178190667Y-72692601D01*
X178202403Y-72714557D01*
X178218197Y-72733803D01*
X178237443Y-72749597D01*
X178259399Y-72761333D01*
X178283224Y-72768560D01*
X178308000Y-72771000D01*
X185657751Y-72771000D01*
X184807702Y-73621048D01*
X187038260Y-73611010D01*
X187048298Y-73621048D01*
X187540844Y-73608748D01*
X187038260Y-73611010D01*
X186198249Y-72771000D01*
X191389000Y-72771000D01*
X191389000Y-77961751D01*
X190284952Y-76857702D01*
X190294990Y-79088260D01*
X191389000Y-77994249D01*
X191389000Y-87503000D01*
X171577000Y-87503000D01*
X171577000Y-82347252D01*
X184315156Y-82347252D01*
X184817740Y-82344990D01*
X185928000Y-83455249D01*
X187048298Y-82334952D01*
X184817740Y-82344990D01*
X184807702Y-82334952D01*
X184315156Y-82347252D01*
X171577000Y-82347252D01*
X171577000Y-77978000D01*
X180450751Y-77978000D01*
X181571048Y-79098298D01*
X190284952Y-79098298D01*
X190297252Y-79590844D01*
X190294990Y-79088260D01*
X190284952Y-79098298D01*
X181571048Y-79098298D01*
X181561010Y-76867740D01*
X180450751Y-77978000D01*
X171577000Y-77978000D01*
X171577000Y-76365156D01*
X181558748Y-76365156D01*
X181561010Y-76867740D01*
X181571048Y-76857702D01*
X181558748Y-76365156D01*
X171577000Y-76365156D01*
X171577000Y-63627000D01*
X178181000Y-63627000D01*
X178181000Y-72644000D01*
%TD*%
M02*
