M48
; DRILL file {KiCad (5.1.6)-1} date 09/17/20 14:23:16
; FORMAT={-:-/ absolute / inch / decimal}
; #@! TF.CreationDate,2020-09-17T14:23:16+02:00
; #@! TF.GenerationSoftware,Kicad,Pcbnew,(5.1.6)-1
FMAT,2
INCH
T1C0.0157
T2C0.0197
T3C0.0236
T4C0.0394
T5C0.1260
T6C0.2031
T7C0.0256
%
G90
G05
T1
X1.33Y-2.37
X1.33Y-2.41
X1.33Y-2.45
X1.33Y-2.49
X1.33Y-2.53
X1.33Y-2.57
X1.37Y-2.37
X1.37Y-2.41
X1.37Y-2.45
X1.37Y-2.49
X1.37Y-2.53
X1.37Y-2.57
X1.41Y-2.37
X1.41Y-2.41
X1.41Y-2.45
X1.41Y-2.49
X1.41Y-2.53
X1.45Y-2.45
X1.45Y-2.49
X1.516Y-2.09
X1.56Y-2.34
X1.5668Y-2.3798
X1.602Y-2.541
X1.6085Y-2.1722
X1.67Y-2.641
X1.67Y-2.8
X1.68Y-2.19
X1.702Y-2.557
X1.71Y-2.38
X1.8873Y-2.5473
X1.93Y-2.52
X1.936Y-2.367
X1.9522Y-2.4278
X1.96Y-2.583
X1.969Y-2.506
X1.987Y-2.392
X1.992Y-2.4384
X2.0Y-2.09
X2.0403Y-2.5018
X2.095Y-2.413
X2.1Y-2.771
X2.119Y-2.624
X2.121Y-2.682
X2.1718Y-1.9565
X2.258Y-2.973
X2.28Y-2.32
X2.32Y-2.32
X2.34Y-1.948
X2.36Y-2.32
X2.38Y-2.28
X2.4Y-2.24
X2.4Y-2.32
X2.405Y-1.999
X2.41Y-2.2
X2.42Y-2.28
X2.44Y-2.24
X2.44Y-2.32
X2.45Y-2.2
X2.4554Y-2.1346
X2.46Y-2.28
X2.47Y-1.83
X2.48Y-2.32
X2.5Y-2.28
X2.52Y-1.83
X2.52Y-2.32
X2.54Y-1.87
X2.54Y-2.28
X2.56Y-1.83
X2.56Y-2.32
X2.58Y-1.87
X2.6Y-1.83
X2.62Y-1.87
X2.62Y-3.02
X2.64Y-1.83
X2.66Y-1.87
X2.68Y-1.83
X2.7Y-1.87
X2.72Y-1.83
X2.74Y-1.87
X3.09Y-1.95
X3.1188Y-2.2162
X3.39Y-1.92
X3.41Y-2.03
X3.46Y-1.95
X3.46Y-2.68
X3.65Y-2.14
X3.655Y-2.035
X3.72Y-1.97
X4.1337Y-2.0137
X4.1337Y-2.2563
X4.39Y-2.0
X4.4196Y-2.2604
X4.46Y-2.15
X4.49Y-1.92
X4.5Y-2.12
X4.56Y-2.09
X4.58Y-1.92
X4.58Y-2.93
X4.62Y-2.06
X4.63Y-2.99
X4.67Y-1.92
X4.68Y-2.03
X4.7407Y-2.0
X4.76Y-1.92
X4.83Y-2.0
X4.84Y-3.06
X4.85Y-1.92
X4.8704Y-2.1296
X4.94Y-1.92
X4.94Y-3.14
X4.9996Y-2.1296
X5.0Y-2.87
X5.0Y-3.0
X5.03Y-1.92
X5.07Y-1.81
X5.14Y-2.24
X5.16Y-2.63
X5.22Y-1.82
X5.25Y-2.63
X5.31Y-2.35
X5.32Y-2.83
X5.42Y-2.64
X5.47Y-3.36
X5.5Y-1.81
X5.5Y-2.32
X5.5Y-2.95
X5.5Y-3.01
X5.5Y-3.36
X5.53Y-3.34
X5.555Y-3.315
X5.56Y-2.77
X5.56Y-2.8
X5.56Y-2.83
X5.56Y-2.87
X5.6Y-2.53
X5.6Y-3.13
X5.69Y-1.71
X5.78Y-3.46
X5.84Y-3.46
X5.8496Y-1.8996
X5.85Y-1.94
X5.87Y-2.45
X5.87Y-2.5
X5.87Y-2.55
X5.87Y-2.61
X5.87Y-2.66
X5.87Y-2.71
X5.87Y-3.06
X5.87Y-3.11
X5.87Y-3.16
X5.87Y-3.21
X5.87Y-3.26
X5.87Y-3.31
X5.91Y-3.46
X5.92Y-2.5
X5.92Y-2.55
X5.92Y-2.61
X5.92Y-2.66
X5.92Y-2.71
X5.92Y-3.06
X5.92Y-3.11
X5.92Y-3.16
X5.92Y-3.21
X5.92Y-3.26
X5.92Y-3.31
X5.93Y-2.45
X5.97Y-1.78
X5.97Y-3.06
X5.97Y-3.11
X5.97Y-3.16
X5.97Y-3.21
X5.97Y-3.26
X5.97Y-3.31
X5.97Y-3.46
X5.98Y-2.61
X5.98Y-2.66
X5.98Y-2.71
X5.99Y-2.45
X5.99Y-2.5
X5.99Y-2.55
X6.02Y-1.83
X6.02Y-3.06
X6.02Y-3.11
X6.02Y-3.16
X6.02Y-3.21
X6.02Y-3.26
X6.02Y-3.31
X6.03Y-3.46
X6.04Y-2.45
X6.04Y-2.5
X6.04Y-2.55
X6.04Y-2.59
X6.04Y-2.66
X6.04Y-2.71
X6.07Y-3.06
X6.07Y-3.11
X6.07Y-3.16
X6.07Y-3.21
X6.07Y-3.26
X6.07Y-3.31
X6.08Y-3.46
X6.09Y-2.45
X6.09Y-2.5
X6.09Y-2.55
X6.09Y-2.6
X6.1Y-2.71
X6.105Y-2.655
X6.12Y-3.06
X6.12Y-3.11
X6.12Y-3.16
X6.12Y-3.21
X6.12Y-3.26
X6.12Y-3.31
X6.14Y-2.45
X6.14Y-2.5
X6.14Y-2.6
X6.15Y-2.55
X6.15Y-3.46
X6.165Y-2.715
X6.17Y-2.3
X6.17Y-2.66
X6.17Y-3.06
X6.17Y-3.11
X6.17Y-3.16
X6.17Y-3.21
X6.17Y-3.26
X6.17Y-3.31
X6.19Y-2.45
X6.19Y-2.5
X6.19Y-2.55
X6.19Y-2.6
X6.2004Y-2.1204
X6.21Y-3.47
X6.26Y-3.46
X6.28Y-2.28
X6.34Y-2.85
X6.34Y-3.42
X6.35Y-2.88
X6.38Y-1.88
X6.39Y-2.88
X6.44Y-2.88
X6.49Y-2.9
X6.51Y-2.13
X6.54Y-2.92
X6.75Y-2.09
X6.7666Y-2.3353
X6.79Y-3.51
X6.79Y-3.56
X6.83Y-2.6
X6.83Y-2.67
X6.83Y-2.74
X6.83Y-2.81
X6.83Y-2.89
X6.83Y-2.96
X6.83Y-3.03
X6.83Y-3.1
X6.85Y-3.51
X6.85Y-3.56
X6.91Y-2.6
X6.91Y-2.67
X6.91Y-2.89
X6.91Y-2.96
X6.91Y-3.03
X6.91Y-3.1
X6.92Y-3.51
X6.92Y-3.56
X6.98Y-3.51
X6.98Y-3.56
X7.04Y-3.51
X7.04Y-3.56
X7.06Y-3.05
X7.07Y-3.0
X7.07Y-3.1
X7.08Y-3.14
X7.09Y-2.94
X7.09Y-3.51
X7.09Y-3.56
X7.1Y-3.05
X7.1Y-3.18
X7.11Y-3.1
X7.12Y-3.0
X7.13Y-3.14
X7.13Y-3.23
X7.14Y-2.94
X7.14Y-3.18
X7.16Y-3.51
X7.16Y-3.56
X7.2Y-2.89
X7.21Y-3.23
X7.22Y-3.51
X7.22Y-3.56
X7.25Y-2.9
X7.25Y-3.26
X7.27Y-3.51
X7.27Y-3.56
X7.28Y-1.98
X7.28Y-2.03
X7.28Y-2.08
X7.28Y-2.13
X7.28Y-2.18
X7.28Y-2.23
X7.28Y-2.28
X7.28Y-2.33
X7.32Y-3.51
X7.32Y-3.56
X7.35Y-1.98
X7.35Y-2.03
X7.35Y-2.08
X7.35Y-2.13
X7.35Y-2.18
X7.35Y-2.23
X7.35Y-2.28
X7.35Y-2.33
X7.39Y-2.9
X7.39Y-3.51
X7.39Y-3.56
X7.4Y-1.98
X7.4Y-2.03
X7.4Y-2.08
X7.4Y-2.13
X7.4Y-2.18
X7.4Y-2.23
X7.4Y-2.28
X7.4Y-2.33
X7.4Y-3.25
X7.45Y-3.21
X7.45Y-3.51
X7.45Y-3.56
X7.46Y-1.98
X7.46Y-2.03
X7.46Y-2.08
X7.46Y-2.13
X7.46Y-2.18
X7.46Y-2.23
X7.46Y-2.28
X7.46Y-2.33
X7.46Y-3.28
X7.47Y-2.93
X7.49Y-2.97
X7.49Y-3.18
X7.5Y-3.13
X7.5Y-3.24
X7.5Y-3.51
X7.5Y-3.56
X7.51Y-3.02
X7.52Y-1.98
X7.52Y-2.03
X7.52Y-2.08
X7.52Y-2.13
X7.52Y-2.18
X7.52Y-2.23
X7.52Y-2.28
X7.52Y-2.33
X7.53Y-2.39
X7.53Y-2.46
X7.53Y-2.51
X7.53Y-2.57
X7.53Y-2.63
X7.53Y-2.7
X7.53Y-2.76
X7.58Y-2.39
X7.58Y-2.46
X7.58Y-2.51
X7.58Y-2.57
X7.58Y-2.63
X7.58Y-2.7
X7.58Y-2.76
X7.59Y-1.98
X7.59Y-2.03
X7.59Y-2.08
X7.59Y-2.13
X7.59Y-2.18
X7.59Y-2.23
X7.59Y-2.28
X7.59Y-2.33
T2
X1.3855Y-3.49
X1.4132Y-3.4232
X1.4132Y-3.5568
X1.48Y-3.3955
X1.48Y-3.5845
X1.5468Y-3.4232
X1.5468Y-3.5568
X1.5745Y-3.49
X1.3855Y-1.63
X1.4132Y-1.5632
X1.4132Y-1.6968
X1.48Y-1.5355
X1.48Y-1.7245
X1.5468Y-1.5632
X1.5468Y-1.6968
X1.5745Y-1.63
X7.3455Y-1.63
X7.3732Y-1.5632
X7.3732Y-1.6968
X7.44Y-1.5355
X7.44Y-1.7245
X7.5068Y-1.5632
X7.5068Y-1.6968
X7.5345Y-1.63
X3.7955Y-3.49
X3.8232Y-3.4232
X3.8232Y-3.5568
X3.89Y-3.3955
X3.89Y-3.5845
X3.9568Y-3.4232
X3.9568Y-3.5568
X3.9845Y-3.49
T4
X3.88Y-1.85
X3.88Y-1.95
X3.98Y-1.85
X3.98Y-1.95
X4.08Y-1.85
X4.08Y-1.95
X4.18Y-1.85
X4.18Y-1.95
X4.28Y-1.85
X4.28Y-1.95
X1.649Y-3.066
X1.649Y-3.166
X1.749Y-3.066
X1.749Y-3.166
X1.849Y-3.066
X1.849Y-3.166
X1.949Y-3.066
X1.949Y-3.166
X2.049Y-3.066
X2.049Y-3.166
X2.149Y-3.066
X2.149Y-3.166
T5
X1.48Y-1.63
X7.44Y-1.63
X3.89Y-3.49
X1.48Y-3.49
T6
X7.32Y-2.54
X7.32Y-3.07
T7
X1.4749Y-2.3662
X1.4749Y-2.5938
T3
G00X1.3457Y-2.3099
M15
G01X1.3143Y-2.3099
M16
G05
G00X1.3457Y-2.6501
M15
G01X1.3143Y-2.6501
M16
G05
G00X1.5162Y-2.3099
M15
G01X1.4729Y-2.3099
M16
G05
G00X1.5162Y-2.6501
M15
G01X1.4729Y-2.6501
M16
G05
T0
M30
